{"glyphs":{"0":{"ha":790,"x_min":35,"x_max":756,"o":"m 386 -15 q 567 33 496 -15 q 681 156 639 81 q 739 327 722 232 q 756 517 756 422 q 740 690 756 606 q 686 841 725 775 q 579 947 647 907 q 406 988 511 988 q 224 944 296 988 q 110 828 151 900 q 51 666 68 757 q 35 482 35 575 q 50 304 35 393 q 105 144 65 215 q 213 29 144 74 q 386 -15 281 -15 m 290 472 q 292 521 290 490 q 299 588 294 551 q 313 663 304 625 q 333 730 321 700 q 363 779 346 760 q 404 799 381 799 q 456 763 436 799 q 487 677 476 726 q 501 577 497 628 q 504 499 504 526 q 503 456 504 485 q 499 393 503 428 q 489 322 496 358 q 470 254 482 285 q 441 204 458 224 q 399 185 424 185 q 358 202 375 185 q 329 246 342 219 q 309 306 317 272 q 297 371 301 339 q 292 430 293 403 q 290 472 290 457 "},"1":{"ha":519,"x_min":13,"x_max":500,"o":"m 28 115 q 41 56 28 79 q 77 21 54 33 q 132 4 100 8 q 201 0 164 0 l 260 0 q 365 2 319 0 q 440 14 410 4 q 485 44 469 24 q 500 104 500 65 q 487 194 500 161 q 440 228 474 228 q 412 232 424 228 q 400 253 400 236 q 403 474 400 371 q 406 696 406 578 q 403 813 406 760 q 385 903 400 865 q 342 961 371 940 q 260 982 313 982 q 178 963 222 982 q 98 912 135 943 q 37 841 61 881 q 13 761 13 801 q 17 722 13 744 q 33 678 22 699 q 58 643 43 657 q 90 629 72 629 q 132 639 113 629 q 156 649 151 649 q 159 635 160 649 q 158 618 158 622 q 158 524 158 565 q 156 443 157 482 q 155 363 156 404 q 154 268 154 321 q 142 243 154 247 q 113 239 131 239 l 100 239 q 64 225 78 239 q 42 192 50 211 q 31 151 33 172 q 28 115 28 131 "},"2":{"ha":753,"x_min":38,"x_max":729,"o":"m 701 679 q 623 917 701 844 q 376 989 544 989 q 242 972 304 989 q 137 920 181 956 q 68 831 93 885 q 43 704 43 778 q 49 656 43 681 q 66 613 54 632 q 97 581 78 593 q 144 569 117 569 q 216 590 185 569 q 257 647 247 611 q 299 740 272 708 q 376 772 325 772 q 435 751 422 772 q 449 685 449 731 q 418 597 449 639 q 342 515 388 556 q 243 432 296 474 q 144 347 190 390 q 68 258 99 304 q 38 158 38 211 q 69 66 38 99 q 147 18 100 33 q 247 1 193 3 q 343 -1 300 -1 l 504 -1 q 594 1 553 -1 q 665 16 635 4 q 712 49 694 28 q 729 108 729 71 q 688 199 729 174 q 567 225 646 225 q 461 222 514 225 q 364 219 408 219 q 349 225 353 219 q 349 239 344 231 q 381 265 353 249 q 448 306 408 281 q 532 365 488 331 q 614 446 576 400 q 676 550 651 492 q 701 679 701 608 "},"3":{"ha":707,"x_min":24,"x_max":686,"o":"m 333 790 q 405 759 379 790 q 431 685 431 728 q 402 603 431 626 q 335 579 374 579 q 286 577 308 579 q 249 567 264 575 q 226 541 235 558 q 218 493 218 524 q 224 443 218 461 q 242 417 229 425 q 274 406 254 408 q 324 404 294 404 q 410 380 382 404 q 438 293 438 356 q 410 221 438 246 q 335 196 382 196 q 245 228 269 196 q 221 307 221 260 q 194 351 221 335 q 131 367 168 367 q 89 356 108 367 q 55 327 69 344 q 32 288 40 310 q 24 246 24 267 q 51 133 24 181 q 123 53 79 85 q 222 6 167 21 q 333 -10 278 -10 q 476 9 411 -10 q 588 66 540 28 q 660 163 635 104 q 686 299 686 221 q 666 394 686 358 q 621 451 646 431 q 576 481 596 471 q 556 496 556 490 q 572 513 556 503 q 610 545 589 524 q 647 603 631 567 q 664 696 664 639 q 643 840 664 783 q 581 930 622 897 q 480 976 540 963 q 340 989 419 989 q 229 972 282 989 q 135 920 176 954 q 70 837 94 886 q 46 724 46 788 q 68 645 46 675 q 143 615 90 615 q 215 638 193 615 q 238 706 238 660 q 261 772 238 754 q 333 790 285 790 "},"4":{"ha":775,"x_min":13,"x_max":757,"o":"m 542 0 q 589 10 567 0 q 628 37 611 19 q 654 77 644 54 q 664 126 664 100 q 663 172 664 158 q 676 185 663 185 q 735 215 713 185 q 757 288 757 246 q 745 367 757 350 q 713 385 733 385 q 685 388 696 385 q 675 406 675 392 l 675 428 q 676 497 675 458 q 678 576 678 536 q 681 656 679 617 q 682 724 682 694 q 676 819 682 772 q 651 904 671 867 q 594 965 632 942 q 493 988 557 988 q 398 949 450 988 q 292 851 346 911 q 189 715 239 790 q 99 567 139 640 q 36 432 60 494 q 13 332 13 369 q 22 281 13 307 q 50 233 32 254 q 92 198 68 211 q 142 185 115 185 q 272 183 207 185 q 401 181 336 181 q 420 162 414 181 q 426 117 426 143 q 433 75 426 96 q 452 38 439 54 q 488 10 465 21 q 542 0 510 0 m 265 407 q 287 474 265 431 q 338 560 308 518 q 395 634 367 603 q 438 665 424 665 q 445 644 442 665 q 451 592 449 624 q 452 525 453 561 q 448 458 451 489 q 439 406 444 426 q 425 385 433 385 q 378 383 406 385 q 325 383 350 382 q 283 389 300 383 q 265 407 265 394 "},"5":{"ha":761,"x_min":22,"x_max":739,"o":"m 149 426 q 223 437 193 426 q 276 459 253 447 q 322 481 300 471 q 371 492 344 492 q 467 454 438 492 q 496 343 496 417 q 488 285 496 314 q 466 232 481 256 q 428 194 451 208 q 375 179 406 179 q 285 208 322 179 q 233 278 249 238 q 194 339 219 315 q 118 363 168 363 q 75 351 93 363 q 45 323 57 340 q 28 284 33 306 q 22 240 22 263 q 55 128 22 176 q 138 47 88 79 q 248 -3 188 14 q 363 -19 308 -19 q 503 8 435 -19 q 623 83 571 35 q 707 198 675 132 q 739 343 739 264 q 716 501 739 436 q 653 608 693 567 q 556 669 613 650 q 429 688 499 688 q 337 678 378 688 q 276 649 296 668 q 272 650 272 644 l 272 651 q 271 681 272 660 q 272 724 269 703 q 278 763 274 746 q 296 781 283 781 q 406 776 351 781 q 515 771 460 771 q 568 774 540 771 q 619 786 596 776 q 658 815 643 796 q 674 869 674 835 q 660 933 674 911 q 623 966 646 956 q 572 978 600 976 q 515 979 543 979 l 331 979 q 210 976 264 979 q 116 952 156 972 q 55 889 76 932 q 33 767 33 846 q 34 615 33 679 q 45 508 35 550 q 79 447 56 467 q 149 426 103 426 "},"6":{"ha":765,"x_min":26,"x_max":743,"o":"m 296 650 q 324 710 300 682 q 383 760 349 739 q 456 794 417 782 q 531 807 496 807 q 592 809 567 807 q 633 820 617 811 q 658 847 650 829 q 665 894 665 864 q 651 946 665 926 q 615 976 636 965 q 567 990 593 986 q 518 994 542 994 q 306 947 397 994 q 151 817 214 900 q 58 623 89 735 q 26 382 26 511 q 46 240 26 311 q 108 110 65 168 q 220 17 151 53 q 386 -19 289 -19 q 520 6 456 -19 q 634 78 585 31 q 713 194 683 125 q 743 349 743 263 q 722 501 743 440 q 665 597 701 561 q 577 648 628 633 q 465 663 526 663 q 365 651 397 663 q 313 626 332 640 q 301 621 304 621 q 296 650 292 621 m 261 325 q 297 424 261 388 q 397 461 332 461 q 482 422 460 461 q 504 319 504 382 q 479 220 504 261 q 393 179 454 179 q 322 195 349 179 q 283 233 296 211 q 265 281 269 256 q 261 325 261 307 "},"7":{"ha":660,"x_min":24,"x_max":639,"o":"m 332 757 q 332 744 343 757 q 299 698 313 721 q 272 647 285 675 q 181 399 219 533 q 143 115 143 264 q 172 32 143 65 q 254 -1 201 -1 q 319 14 296 -1 q 353 54 342 29 q 368 110 364 79 q 376 172 372 142 q 399 312 383 239 q 440 457 415 385 q 495 597 464 529 q 564 718 526 664 q 587 749 574 732 q 611 785 600 767 q 631 823 622 804 q 639 860 639 842 q 617 926 639 901 q 561 963 596 950 q 481 978 526 975 q 390 982 436 982 l 217 982 q 129 978 165 982 q 69 963 93 975 q 35 926 46 950 q 24 860 24 901 q 38 806 24 826 q 75 773 53 785 q 124 757 97 761 q 175 753 151 753 q 253 755 217 753 q 332 757 290 757 "},"8":{"ha":736,"x_min":21,"x_max":715,"o":"m 21 286 q 46 154 21 210 q 115 62 71 99 q 222 8 160 25 q 358 -10 283 -10 q 487 12 424 -10 q 601 73 550 33 q 684 169 653 113 q 715 296 715 225 q 701 368 715 340 q 671 415 688 396 q 640 447 654 433 q 626 476 626 460 q 638 509 626 489 q 662 556 649 529 q 686 617 675 583 q 697 688 697 650 q 610 917 697 844 q 371 990 524 990 q 137 921 222 990 q 51 701 51 851 q 60 638 51 667 q 81 585 69 608 q 102 543 93 561 q 111 513 111 525 q 97 482 111 500 q 66 437 83 464 q 35 373 49 410 q 21 286 21 336 m 276 704 q 303 788 276 751 q 376 824 331 824 q 426 813 407 824 q 457 785 446 803 q 472 744 468 768 q 476 692 476 719 q 471 656 476 675 q 454 622 465 638 q 428 597 443 607 q 392 586 413 586 q 308 615 340 586 q 276 704 276 644 m 478 294 q 440 213 478 242 q 354 183 403 183 q 242 293 242 183 q 247 337 242 314 q 263 379 253 360 q 289 411 274 399 q 325 424 304 424 q 374 415 347 424 q 424 389 401 406 q 463 348 447 372 q 478 294 478 324 "},"9":{"ha":768,"x_min":26,"x_max":743,"o":"m 474 325 q 445 265 469 293 q 387 215 421 236 q 313 181 353 193 q 239 168 274 168 q 178 166 204 168 q 136 155 153 164 q 112 128 119 146 q 104 81 104 111 q 119 30 104 50 q 155 -1 133 10 q 203 -15 176 -11 q 251 -19 229 -19 q 464 28 372 -19 q 618 158 556 75 q 712 352 681 240 q 743 593 743 464 q 724 735 743 664 q 661 865 704 807 q 550 958 618 922 q 383 994 482 994 q 249 969 314 994 q 135 897 185 944 q 56 781 86 850 q 26 626 26 713 q 47 474 26 535 q 105 378 68 414 q 192 327 142 342 q 304 313 243 313 q 405 324 372 313 q 457 349 438 335 q 468 354 465 354 q 474 325 478 354 m 508 650 q 473 551 508 588 q 372 514 438 514 q 288 553 310 514 q 265 656 265 593 q 290 755 265 714 q 376 796 315 796 q 447 780 421 796 q 488 742 474 764 q 505 694 501 719 q 508 650 508 669 "},"\u0000":{"ha":0,"x_min":0,"x_max":0,"o":""},"\r":{"ha":347,"x_min":0,"x_max":0,"o":""}," ":{"ha":306,"x_min":0,"x_max":0,"o":""},"!":{"ha":442,"x_min":67,"x_max":351,"o":"m 326 433 q 331 520 326 472 q 339 620 335 568 q 347 728 343 672 q 351 838 351 783 q 325 955 351 913 q 221 997 299 997 q 102 951 138 997 q 67 835 67 906 q 77 630 67 733 q 88 425 88 526 q 90 355 88 390 q 103 292 92 319 q 136 248 114 265 q 200 231 158 231 q 290 277 253 231 q 326 433 326 324 m 85 103 q 123 19 85 47 q 207 -10 161 -10 q 251 -2 229 -10 q 290 19 272 6 q 317 55 307 33 q 328 103 328 76 q 317 147 328 126 q 290 182 307 167 q 253 206 274 197 q 213 214 233 214 q 165 208 188 214 q 124 190 142 203 q 96 155 107 176 q 85 103 85 133 "},"\"":{"ha":508,"x_min":43,"x_max":475,"o":"m 143 681 q 203 709 182 681 q 235 778 225 738 q 248 861 246 818 q 250 935 250 904 q 225 1006 250 989 q 153 1024 200 1024 q 115 1021 135 1024 q 80 1009 96 1018 q 53 983 64 1000 q 43 935 43 965 q 44 861 43 899 q 51 792 46 824 q 60 749 56 769 q 73 713 64 728 q 99 690 82 699 q 143 681 115 681 m 368 681 q 428 709 407 681 q 460 778 450 738 q 473 861 471 818 q 475 935 475 904 q 450 1006 475 989 q 378 1024 425 1024 q 340 1021 360 1024 q 305 1009 321 1018 q 278 983 289 1000 q 268 935 268 965 q 269 861 268 899 q 276 792 271 824 q 285 749 281 769 q 298 713 289 728 q 324 690 307 699 q 368 681 340 681 "},"#":{"ha":1024,"x_min":17,"x_max":996,"o":"m 899 689 q 909 763 899 726 q 919 838 919 799 q 890 927 919 894 q 801 960 860 960 q 733 927 760 960 q 688 849 706 894 q 659 757 669 804 q 638 681 649 710 q 625 663 633 669 q 606 654 617 657 q 583 651 594 651 q 563 650 572 650 q 549 650 558 650 q 528 651 539 650 q 508 654 517 651 q 500 663 500 657 q 506 692 500 672 q 518 735 511 711 q 531 787 525 760 q 536 838 536 814 q 506 928 536 896 q 417 960 475 960 q 344 929 371 960 q 303 856 318 899 q 278 767 288 813 q 256 690 268 721 q 240 676 251 681 q 213 669 228 671 q 181 668 197 668 q 149 668 164 668 q 84 645 114 668 q 54 582 54 622 q 56 550 54 567 q 63 519 57 533 q 81 497 69 506 q 115 488 93 488 q 164 478 140 488 q 188 446 188 469 q 173 428 188 433 q 139 422 158 422 q 101 422 119 421 q 75 424 83 424 q 50 415 61 424 q 31 394 39 407 q 20 367 24 382 q 17 339 17 351 q 31 262 17 290 q 79 233 44 233 q 109 224 99 233 q 119 189 119 215 q 117 151 119 169 q 114 113 114 132 q 120 67 114 89 q 139 26 126 44 q 171 -2 151 8 q 217 -12 190 -12 q 273 6 250 -12 q 312 51 296 24 q 340 109 328 78 q 362 167 351 140 q 383 213 372 194 q 410 231 394 231 q 455 232 433 231 q 500 233 476 233 q 510 224 510 233 q 505 171 510 197 q 500 117 500 144 q 506 69 500 92 q 525 27 513 46 q 558 -3 538 8 q 606 -14 578 -14 q 666 9 642 -14 q 707 65 690 32 q 735 133 724 97 q 757 194 747 169 q 784 222 764 210 q 831 235 804 235 q 883 253 857 235 q 908 304 908 272 q 893 368 908 338 q 849 399 878 399 q 829 407 833 399 q 825 431 825 415 q 842 458 825 450 q 890 467 860 467 q 920 474 906 467 q 948 494 935 482 q 970 520 961 506 q 983 547 979 535 q 983 619 996 593 q 933 644 969 644 q 908 658 918 644 q 899 689 899 672 m 436 414 q 431 422 432 414 q 432 439 431 429 q 438 456 433 449 q 447 464 442 464 q 485 465 463 464 q 527 464 507 465 q 560 458 547 463 q 571 443 574 454 l 565 425 q 548 414 563 417 q 514 411 533 411 q 473 413 494 411 q 436 414 451 414 "},"$":{"ha":754,"x_min":35,"x_max":728,"o":"m 411 -160 q 456 -147 440 -160 q 477 -112 471 -133 q 484 -66 483 -92 q 485 -17 485 -40 q 494 8 485 -1 q 517 24 503 17 q 598 68 560 43 q 665 126 636 93 q 711 200 694 158 q 728 292 728 242 q 697 401 728 356 q 618 478 665 446 q 515 535 571 511 q 413 578 460 558 q 334 620 365 599 q 303 671 303 642 q 308 699 303 682 q 325 733 314 717 q 353 763 336 750 q 393 775 369 775 q 460 749 436 775 q 478 688 483 722 q 497 617 471 647 q 574 588 524 588 q 625 599 604 588 q 658 631 646 611 q 676 678 671 651 q 682 733 682 704 q 663 805 682 772 q 616 863 644 838 q 553 909 588 889 q 486 943 518 929 q 473 966 471 950 q 475 1010 475 982 q 449 1073 475 1046 q 383 1100 424 1100 q 338 1090 356 1100 q 310 1061 321 1079 q 295 1022 300 1043 q 288 976 290 1000 q 278 949 286 958 q 254 932 269 939 q 108 826 163 893 q 54 667 54 758 q 85 550 54 599 q 161 467 115 501 q 260 408 207 432 q 360 363 314 383 q 436 320 406 342 q 467 271 467 299 q 444 215 467 235 q 392 196 422 196 q 335 208 361 196 q 289 242 308 221 q 256 291 269 263 q 238 351 243 319 q 203 404 232 386 q 138 422 174 422 q 92 410 111 422 q 60 378 72 397 q 41 335 47 358 q 35 288 35 311 q 53 192 35 235 q 102 114 71 149 q 174 55 133 79 q 260 15 214 31 q 293 -16 283 7 q 303 -65 303 -39 q 329 -131 303 -101 q 411 -160 356 -160 "},"%":{"ha":1342,"x_min":7,"x_max":1321,"o":"m 557 738 q 542 865 557 808 q 496 959 528 921 q 413 1017 464 997 q 288 1038 361 1038 q 156 1017 210 1038 q 69 956 103 996 q 22 857 36 915 q 7 724 7 799 q 20 592 7 650 q 64 495 33 535 q 145 435 94 456 q 272 414 196 414 q 398 437 344 414 q 487 503 451 460 q 540 606 522 546 q 557 738 557 665 m 272 -10 q 299 -64 276 -44 q 357 -79 322 -83 q 401 -65 381 -76 q 438 -36 422 -53 q 483 26 454 -17 q 546 124 511 68 q 619 246 581 179 q 699 381 658 313 q 777 518 739 450 q 848 646 815 586 q 906 753 881 706 q 944 826 931 800 q 970 890 960 857 q 976 957 981 922 q 943 1015 972 997 q 876 1029 914 1033 q 815 988 850 1026 q 740 890 779 949 q 660 761 700 832 q 585 624 621 690 q 522 503 550 557 q 478 422 493 449 q 424 330 460 389 q 353 206 388 271 q 293 83 318 142 q 272 -10 268 24 m 233 728 q 235 763 233 739 q 244 810 238 786 q 260 851 250 833 q 286 869 271 869 q 308 850 300 869 q 321 805 317 831 q 326 755 325 779 q 328 719 328 731 q 327 688 328 710 q 322 646 326 667 q 310 609 318 625 q 286 593 301 593 q 259 610 269 593 q 243 648 249 626 q 235 692 238 669 q 233 728 233 715 m 1039 -18 q 1172 3 1118 -18 q 1258 67 1225 25 q 1306 169 1292 108 q 1321 306 1321 229 q 1306 431 1321 375 q 1260 525 1292 486 q 1177 585 1228 564 q 1053 606 1126 606 q 918 587 972 606 q 832 529 864 568 q 786 431 800 490 q 772 292 772 372 q 787 167 772 224 q 833 69 801 110 q 915 5 864 28 q 1039 -18 967 -18 m 1092 314 l 1092 260 q 1090 235 1092 251 q 1083 201 1088 218 q 1070 173 1078 185 q 1051 161 1063 161 q 1023 177 1033 161 q 1007 215 1013 193 q 1000 260 1001 238 q 999 294 999 282 q 1001 331 999 307 q 1008 378 1003 354 q 1024 419 1014 401 q 1051 438 1035 438 q 1072 422 1064 438 q 1083 384 1079 406 q 1090 342 1088 363 q 1092 314 1092 322 "},"&":{"ha":836,"x_min":47,"x_max":811,"o":"m 531 15 q 551 26 540 19 q 574 41 563 33 q 594 54 585 49 q 608 60 603 60 q 630 48 619 60 q 647 26 640 36 q 683 -2 664 6 q 719 -8 701 -10 q 751 1 736 -7 q 775 21 767 10 q 792 49 783 32 q 802 85 800 65 q 797 128 804 106 q 768 172 790 150 q 753 191 761 179 q 747 214 744 203 q 765 248 754 232 q 785 285 775 264 q 803 338 796 307 q 811 418 811 369 q 803 453 811 435 q 782 485 796 471 q 751 509 768 500 q 714 518 733 518 q 663 501 683 518 q 642 472 642 483 q 642 437 642 454 q 642 403 643 419 q 637 375 642 388 q 621 354 632 363 q 608 353 615 350 q 592 365 600 357 q 578 380 585 372 q 567 392 571 388 q 527 435 547 411 q 496 483 507 460 q 494 499 493 490 q 503 511 496 508 q 563 543 532 524 q 621 591 594 563 q 664 658 647 619 q 681 746 681 696 q 665 841 681 796 q 616 921 650 886 q 528 976 582 956 q 396 997 474 997 q 258 974 317 997 q 160 910 200 950 q 101 819 121 871 q 82 713 82 768 q 97 632 82 665 q 131 575 113 599 q 164 535 149 551 q 179 503 179 518 q 158 470 179 489 q 113 425 138 451 q 68 363 89 399 q 47 282 47 328 q 63 188 47 231 q 101 112 78 144 q 153 56 125 79 q 208 21 182 33 q 305 -7 254 -1 q 401 -9 356 -12 q 483 3 447 -6 q 531 15 518 11 m 372 631 q 353 639 363 631 q 335 658 343 647 q 322 682 326 669 q 317 704 317 694 q 338 778 317 757 q 396 800 358 800 q 423 794 411 800 q 442 778 435 788 q 452 758 449 768 q 456 740 456 749 q 430 663 456 694 q 372 631 404 631 m 453 231 q 462 213 464 219 q 451 204 460 207 q 433 201 443 201 q 414 200 422 200 q 328 223 361 200 q 294 304 294 246 q 299 340 294 319 q 313 361 304 360 q 340 349 324 361 q 374 317 356 336 q 414 274 393 297 q 453 231 435 251 "},"'":{"ha":283,"x_min":43,"x_max":250,"o":"m 143 681 q 203 709 182 681 q 235 778 225 738 q 248 861 246 818 q 250 935 250 904 q 225 1006 250 989 q 153 1024 200 1024 q 115 1021 135 1024 q 80 1009 96 1018 q 53 983 64 1000 q 43 935 43 965 q 44 861 43 899 q 51 792 46 824 q 60 749 56 769 q 73 713 64 728 q 99 690 82 699 q 143 681 115 681 "},"(":{"ha":593,"x_min":71,"x_max":608,"o":"m 321 492 q 326 576 321 528 q 340 675 331 625 q 365 770 350 725 q 403 844 381 815 q 436 875 417 863 q 499 888 456 888 q 608 992 608 888 q 596 1040 608 1021 q 564 1072 583 1060 q 521 1089 544 1083 q 474 1094 497 1094 q 340 1066 399 1094 q 235 989 281 1038 q 159 878 190 940 q 108 747 128 815 q 80 610 89 679 q 71 482 71 542 q 77 367 71 431 q 99 238 83 303 q 142 112 115 174 q 210 3 168 50 q 308 -74 251 -44 q 442 -103 365 -103 q 547 -71 517 -103 q 576 24 576 -39 q 567 64 576 49 q 544 88 558 79 q 510 101 529 97 q 472 107 492 106 q 394 157 424 113 q 348 260 364 201 q 326 383 332 319 q 321 492 321 447 "},")":{"ha":589,"x_min":6,"x_max":543,"o":"m 293 494 q 288 410 293 458 q 274 311 283 361 q 249 216 264 261 q 211 142 233 171 q 178 111 197 124 q 115 99 158 99 q 6 -6 6 99 q 18 -54 6 -35 q 50 -85 31 -74 q 93 -103 69 -97 q 140 -108 117 -108 q 274 -80 215 -108 q 378 -3 333 -51 q 455 108 424 46 q 506 239 486 171 q 534 376 525 307 q 543 504 543 444 q 537 619 543 556 q 515 748 531 683 q 472 874 499 813 q 404 983 446 936 q 306 1060 363 1031 q 172 1089 249 1089 q 67 1057 97 1089 q 38 963 38 1025 q 47 922 38 938 q 70 898 56 907 q 103 885 85 889 q 142 879 122 882 q 220 829 190 874 q 266 726 250 785 q 288 603 282 667 q 293 494 293 539 "},"*":{"ha":529,"x_min":54,"x_max":478,"o":"m 194 706 q 207 694 206 706 q 208 665 208 683 q 219 620 208 643 q 260 597 229 597 q 301 606 282 597 q 331 635 319 615 q 333 650 332 638 q 334 676 333 663 q 337 701 335 690 q 343 711 339 711 q 358 703 350 711 q 373 687 365 696 q 388 670 381 678 q 403 663 396 663 q 455 681 435 663 q 475 733 475 699 q 465 749 475 740 q 442 765 454 757 q 420 780 431 774 q 410 788 410 786 q 420 794 410 789 q 444 807 431 800 q 467 822 457 814 q 478 839 478 831 q 471 871 478 856 q 454 899 464 886 q 433 918 444 911 q 413 925 422 925 q 392 920 404 925 q 370 909 381 915 q 351 898 360 903 q 342 893 343 893 q 339 899 339 896 q 322 966 336 939 q 271 993 308 993 q 225 984 247 993 q 196 947 203 975 q 195 936 196 944 q 194 918 194 928 q 192 901 193 908 q 189 894 192 894 q 179 899 186 894 q 163 910 172 904 q 145 920 154 915 q 129 925 136 925 q 101 917 115 925 q 77 897 88 910 q 60 869 67 885 q 54 839 54 854 q 63 816 54 825 q 81 801 71 807 q 100 791 92 794 q 108 783 108 788 q 100 775 108 779 q 83 766 92 771 q 65 753 74 761 q 57 733 57 746 q 77 681 57 700 q 128 663 97 663 q 143 669 135 663 q 161 684 151 676 q 179 699 171 692 q 194 706 188 706 "},"+":{"ha":667,"x_min":42,"x_max":625,"o":"m 446 689 q 437 718 446 706 q 414 738 428 731 q 384 749 400 746 q 353 753 368 753 q 269 724 290 753 q 247 663 247 696 q 242 597 247 619 q 208 575 238 575 q 163 576 185 575 q 117 576 140 576 q 61 547 81 576 q 42 485 42 518 q 60 428 42 446 q 106 403 79 410 q 165 397 133 397 q 221 392 196 396 q 238 385 229 390 q 247 356 247 381 q 250 313 247 336 q 262 268 253 289 q 289 233 271 247 q 338 219 307 219 q 406 235 383 219 q 436 275 428 251 q 444 325 444 299 q 443 371 443 351 q 465 386 443 386 q 531 389 501 386 q 582 402 561 392 q 614 431 603 413 q 625 481 625 450 q 605 555 625 533 q 544 576 585 576 q 508 577 526 576 q 476 581 490 578 q 453 590 461 583 q 444 611 444 597 q 445 649 444 632 q 446 689 446 667 "},",":{"ha":499,"x_min":82,"x_max":400,"o":"m 99 -107 q 115 -149 99 -133 q 157 -165 131 -165 q 245 -135 201 -165 q 324 -60 289 -104 q 379 35 358 -15 q 400 128 400 86 q 387 189 400 161 q 351 237 374 217 q 300 269 329 257 q 239 281 271 281 q 178 269 207 281 q 128 236 150 257 q 94 187 107 215 q 82 126 82 158 q 86 91 82 110 q 99 56 90 72 q 121 30 107 40 q 154 19 135 19 q 163 11 163 19 q 153 -13 163 1 q 131 -43 143 -28 q 108 -75 118 -58 q 99 -107 99 -92 "},"-":{"ha":586,"x_min":42,"x_max":543,"o":"m 42 431 q 56 365 42 389 q 92 329 69 342 q 146 313 115 317 q 208 310 176 310 q 249 310 224 310 q 306 310 275 310 q 369 312 336 310 q 432 318 401 314 q 519 353 496 326 q 543 417 543 381 q 529 496 543 465 q 471 525 515 526 l 136 517 q 67 488 93 515 q 42 431 42 460 "},".":{"ha":522,"x_min":82,"x_max":400,"o":"m 82 140 q 96 73 82 101 q 132 25 110 44 q 183 -4 154 6 q 242 -14 211 -14 q 299 -4 271 -14 q 350 25 328 6 q 386 74 372 44 q 400 140 400 103 q 386 206 400 178 q 350 254 372 235 q 299 283 328 274 q 242 293 271 293 q 183 283 213 293 q 132 254 154 274 q 96 206 110 235 q 82 140 82 178 "},"/":{"ha":658,"x_min":26,"x_max":640,"o":"m 550 1069 q 490 1057 519 1069 q 446 1018 461 1044 q 394 926 421 979 q 340 815 367 872 q 288 703 313 758 q 244 603 264 647 q 156 412 203 506 q 74 218 110 318 q 42 125 58 172 q 26 29 26 78 q 48 -47 26 -17 q 119 -78 69 -78 q 171 -60 147 -78 q 214 -17 194 -43 q 249 37 233 8 q 274 86 264 65 q 346 245 313 165 q 417 404 379 325 q 451 478 429 432 q 499 578 474 524 q 549 690 524 632 q 594 803 574 749 q 627 902 614 857 q 640 974 640 947 q 617 1042 640 1015 q 550 1069 593 1069 "},":":{"ha":507,"x_min":82,"x_max":400,"o":"m 82 833 q 96 766 82 794 q 132 718 110 738 q 183 689 154 699 q 242 679 211 679 q 299 689 271 679 q 350 718 328 699 q 386 767 372 738 q 400 833 400 796 q 386 899 400 871 q 350 947 372 928 q 299 976 328 967 q 242 986 271 986 q 183 976 213 986 q 132 947 154 967 q 96 899 110 928 q 82 833 82 871 m 82 140 q 96 73 82 101 q 132 25 110 44 q 183 -4 154 6 q 242 -14 211 -14 q 299 -4 271 -14 q 350 25 328 6 q 386 74 372 44 q 400 140 400 103 q 386 206 400 178 q 350 254 372 235 q 299 283 328 274 q 242 293 271 293 q 183 283 213 293 q 132 254 154 274 q 96 206 110 235 q 82 140 82 178 "},";":{"ha":526,"x_min":72,"x_max":400,"o":"m 82 833 q 127 721 82 763 q 242 679 172 679 q 355 722 310 679 q 400 833 400 764 q 354 944 400 901 q 242 986 308 986 q 179 975 208 986 q 128 944 150 964 q 94 896 107 924 q 82 833 82 868 m 119 3 q 99 -37 108 -17 q 89 -78 89 -57 q 90 -93 89 -85 q 97 -110 92 -101 q 99 -112 97 -110 q 115 -128 104 -121 q 146 -136 126 -136 q 244 -108 200 -136 q 320 -36 289 -79 q 368 57 351 7 q 385 150 385 107 q 375 201 385 175 q 347 247 365 226 q 299 281 328 268 q 229 294 269 294 q 161 282 190 294 q 112 250 132 269 q 82 206 92 231 q 72 156 72 181 q 94 93 72 124 q 147 47 117 63 q 133 25 140 36 q 119 3 126 14 "},"<":{"ha":688,"x_min":108,"x_max":606,"o":"m 501 164 q 537 170 518 164 q 570 188 556 176 q 594 215 585 199 q 604 250 604 231 q 571 335 604 303 q 497 389 538 367 q 424 428 457 411 q 390 465 390 444 q 424 504 390 486 q 498 545 457 522 q 572 600 539 568 q 606 681 606 632 q 597 713 606 699 q 573 737 588 726 q 541 753 558 747 q 508 758 524 758 q 483 757 496 758 q 460 749 471 756 q 376 701 410 724 q 312 655 342 678 q 252 608 282 632 q 182 557 222 585 q 158 538 171 549 q 133 514 144 526 q 115 487 122 501 q 108 458 108 472 q 114 434 108 446 q 128 413 119 422 q 145 395 136 403 q 160 383 154 388 l 417 188 q 458 169 435 174 q 501 164 481 164 "},"=":{"ha":586,"x_min":28,"x_max":554,"o":"m 28 581 q 45 519 28 540 q 88 488 63 497 q 144 476 114 478 q 200 472 175 475 q 251 471 225 469 q 300 472 276 472 q 361 474 321 472 q 442 485 401 476 q 513 513 483 494 q 543 564 543 531 q 521 644 543 608 q 461 679 499 679 q 279 676 369 679 q 97 672 189 672 q 70 664 83 672 q 48 642 57 656 q 33 613 39 629 q 28 581 28 597 m 40 381 q 49 331 40 357 q 74 290 58 306 q 110 278 82 282 q 174 272 139 274 q 240 269 208 269 q 285 269 271 269 q 350 270 306 269 q 440 279 394 271 q 520 307 486 288 q 554 363 554 326 q 541 419 554 400 q 507 446 528 438 q 460 454 486 454 q 410 454 435 454 q 362 456 386 454 q 313 457 338 457 q 232 455 272 457 q 151 453 192 453 q 114 451 133 453 q 78 443 94 450 q 51 422 61 436 q 40 381 40 407 "},">":{"ha":696,"x_min":108,"x_max":606,"o":"m 213 758 q 177 752 196 758 q 144 735 158 746 q 119 708 129 724 q 110 672 110 692 q 141 588 110 619 q 210 533 172 556 q 278 494 247 511 q 310 457 310 478 q 278 418 310 436 q 209 377 247 400 q 140 322 171 354 q 108 242 108 290 q 117 210 108 224 q 141 185 126 196 q 173 169 156 175 q 206 164 190 164 q 231 165 218 164 q 254 174 243 167 q 338 222 304 199 q 402 267 372 244 q 462 315 432 290 q 532 365 492 339 q 556 385 543 374 q 581 408 569 396 q 599 435 592 421 q 606 464 606 450 q 600 488 606 476 q 586 510 594 500 q 569 527 578 519 q 554 539 560 535 l 297 735 q 256 753 279 749 q 213 758 233 758 "},"?":{"ha":689,"x_min":19,"x_max":672,"o":"m 450 335 q 482 393 461 369 q 527 438 503 417 q 578 479 551 458 q 625 528 604 500 q 659 596 646 557 q 672 690 672 635 q 647 819 672 763 q 580 914 622 875 q 481 973 538 953 q 363 993 425 993 q 232 970 294 993 q 122 906 169 947 q 47 810 75 865 q 19 689 19 754 q 53 604 19 642 q 142 567 86 567 q 200 575 172 567 q 249 599 228 583 q 281 636 269 614 q 293 686 293 658 q 303 751 293 728 q 338 774 314 774 q 379 751 364 774 q 394 681 394 729 q 363 594 394 635 q 294 511 332 553 q 224 426 256 469 q 193 335 193 383 q 206 283 193 304 q 239 247 219 261 q 281 227 258 233 q 324 221 304 221 q 403 252 372 221 q 450 335 433 283 m 168 86 q 180 37 168 58 q 210 1 192 15 q 253 -19 229 -12 q 303 -26 278 -26 q 394 2 354 -26 q 433 86 433 31 q 422 137 433 115 q 394 172 411 158 q 356 192 376 186 q 315 199 335 199 q 209 167 250 199 q 168 86 168 136 "},"@":{"ha":1154,"x_min":46,"x_max":1107,"o":"m 860 25 q 972 67 925 25 q 1049 173 1018 108 q 1093 316 1079 238 q 1107 469 1107 394 q 1069 708 1107 607 q 965 876 1032 810 q 805 975 897 943 q 603 1007 713 1007 q 401 970 501 1007 q 222 861 301 933 q 94 684 143 789 q 46 442 46 579 q 83 228 46 328 q 183 55 121 129 q 326 -62 246 -19 q 490 -106 406 -106 q 560 -99 521 -106 q 633 -77 599 -93 q 692 -35 668 -61 q 715 31 715 -10 q 698 85 715 64 q 649 107 681 107 q 591 95 622 107 q 515 83 560 83 q 415 106 464 83 q 329 172 367 129 q 269 278 292 215 q 246 418 246 340 q 278 590 246 515 q 363 717 311 665 q 476 797 414 769 q 597 824 538 824 q 738 798 676 824 q 840 724 799 772 q 903 608 882 676 q 925 457 925 540 q 922 384 925 428 q 910 300 918 340 q 888 231 901 260 q 854 201 874 201 q 828 225 836 201 q 819 287 821 249 q 819 371 817 325 q 826 462 822 417 q 834 545 831 507 q 838 606 838 583 q 821 685 838 653 q 776 738 804 718 q 709 767 747 758 q 626 776 671 776 q 481 751 546 776 q 372 679 417 725 q 303 571 328 633 q 279 435 279 508 q 299 312 279 369 q 351 211 318 254 q 428 143 385 168 q 522 118 472 118 q 571 125 549 118 q 610 140 593 132 q 641 156 628 149 q 664 163 654 163 q 694 141 679 163 q 731 94 710 119 q 782 47 751 68 q 860 25 813 25 m 654 592 l 654 560 q 652 518 654 544 q 646 460 650 492 q 635 398 642 429 q 617 341 628 367 q 590 299 606 315 q 556 282 575 282 q 522 298 536 282 q 500 337 508 314 q 488 387 492 360 q 483 435 483 414 q 492 499 483 468 q 516 555 500 531 q 555 594 532 579 q 608 610 578 610 q 639 606 624 610 q 654 592 654 601 "},"A":{"ha":803,"x_min":28,"x_max":775,"o":"m 638 1 q 699 17 674 1 q 742 60 725 33 q 767 118 758 86 q 775 181 775 150 q 758 476 775 332 q 678 760 740 621 q 634 843 658 801 q 578 918 610 885 q 505 972 546 951 q 413 992 464 992 q 279 949 338 992 q 178 835 221 906 q 107 678 136 765 q 60 501 78 590 q 35 332 43 413 q 28 194 28 251 q 31 132 28 167 q 44 67 33 97 q 78 17 56 38 q 138 -4 100 -4 q 213 22 186 -4 q 253 86 239 49 q 276 166 268 124 q 294 242 285 208 q 320 294 306 278 q 375 310 335 310 l 454 310 q 488 287 478 310 q 502 230 497 264 q 511 156 507 196 q 528 81 515 115 q 565 24 540 47 q 638 1 590 1 m 339 518 q 346 589 339 550 q 363 662 353 628 q 388 719 374 696 q 415 742 401 742 q 441 717 429 742 q 461 656 453 692 q 474 583 469 621 q 478 521 478 546 q 456 495 478 504 q 408 485 435 486 q 360 493 382 485 q 339 518 339 501 "},"B":{"ha":761,"x_min":35,"x_max":735,"o":"m 708 769 q 676 876 708 835 q 596 942 644 918 q 489 974 547 965 q 378 982 431 982 l 286 982 q 155 962 204 982 q 79 908 106 942 q 44 828 53 874 q 36 735 36 783 q 35 658 36 710 q 35 540 35 606 q 37 401 35 474 q 43 263 39 328 q 56 146 47 197 q 78 72 64 94 q 117 38 90 51 q 177 15 143 24 q 249 3 211 7 q 322 0 288 0 q 465 13 392 0 q 598 59 538 26 q 697 147 658 92 q 735 285 735 201 q 717 384 735 344 q 672 448 699 424 q 613 485 644 472 q 555 503 582 497 q 510 512 528 510 q 492 518 492 514 q 508 524 492 522 q 548 531 524 525 q 600 551 572 538 q 652 591 628 564 q 692 661 676 618 q 708 769 708 704 m 286 685 q 286 729 286 711 q 291 758 286 747 q 310 773 296 768 q 354 778 325 778 q 422 760 394 778 q 449 693 449 743 q 414 612 449 636 q 329 588 379 588 q 310 589 322 588 q 294 600 297 590 q 288 642 289 619 q 286 685 286 664 m 314 246 q 310 263 311 250 q 308 296 308 276 q 307 339 307 315 q 307 386 307 363 q 320 397 307 393 q 342 400 333 400 q 385 401 364 400 q 424 394 407 401 q 452 371 442 388 q 463 318 463 354 q 442 268 463 286 q 395 242 421 250 q 345 236 369 235 q 314 246 321 238 "},"C":{"ha":768,"x_min":24,"x_max":735,"o":"m 600 581 q 697 631 672 589 q 721 744 721 674 q 696 856 721 808 q 628 937 671 904 q 529 986 586 969 q 408 1003 472 1003 q 224 958 299 1003 q 106 839 150 913 q 42 672 61 765 q 24 479 24 578 q 42 290 24 381 q 101 128 60 199 q 210 17 143 58 q 376 -25 278 -25 q 506 -6 442 -25 q 621 49 569 14 q 703 135 672 85 q 735 247 735 185 q 728 302 735 276 q 706 347 721 328 q 669 378 692 367 q 618 390 647 390 q 583 387 604 390 q 540 372 561 383 q 505 341 519 361 q 490 289 490 321 q 476 230 490 257 q 415 203 461 203 q 355 227 378 203 q 319 292 332 251 q 303 383 307 332 q 299 486 299 433 q 302 599 299 549 q 317 686 306 650 q 350 742 328 722 q 411 763 372 763 q 469 736 449 763 q 490 674 490 710 q 523 597 490 618 q 600 581 556 575 "},"D":{"ha":785,"x_min":38,"x_max":751,"o":"m 275 0 q 469 29 382 0 q 619 122 557 58 q 717 284 682 185 q 751 522 751 383 q 722 740 751 650 q 635 888 692 831 q 494 971 578 944 q 304 997 411 997 q 81 932 124 997 q 53 842 63 903 q 41 710 44 781 q 38 574 38 640 q 39 469 39 507 q 40 411 39 443 q 41 347 40 379 q 42 288 42 315 q 43 240 43 260 q 97 57 43 114 q 275 0 151 0 m 286 358 l 286 643 q 307 722 286 694 q 369 750 328 750 q 435 725 411 750 q 471 667 460 700 q 485 599 482 633 q 488 544 488 564 q 481 444 488 496 q 457 351 474 393 q 414 283 440 310 q 349 256 388 256 q 298 284 310 256 q 286 358 286 313 "},"E":{"ha":676,"x_min":26,"x_max":661,"o":"m 304 694 q 306 712 304 701 q 313 732 308 722 q 324 749 317 742 q 340 756 331 756 q 377 753 361 756 q 409 748 393 751 q 441 742 425 744 q 478 740 457 740 q 531 745 504 740 q 578 763 557 750 q 612 797 599 775 q 625 854 625 819 q 608 922 625 897 q 565 960 592 947 q 506 976 538 972 q 442 979 474 979 l 261 979 q 147 940 192 979 q 74 838 101 901 q 37 690 47 774 q 26 519 26 607 q 29 397 26 460 q 43 276 32 335 q 76 167 54 218 q 134 78 97 117 q 226 18 171 40 q 360 -4 282 -4 q 449 4 397 -4 q 549 32 501 13 q 628 85 596 51 q 661 169 661 119 q 635 269 661 236 q 567 303 610 303 q 534 297 547 303 q 503 278 521 292 q 451 248 479 258 q 385 238 422 238 q 336 251 354 238 q 309 286 318 265 q 298 333 300 307 q 296 382 296 358 q 301 415 296 399 q 328 431 306 431 l 507 431 q 581 458 551 431 q 611 526 611 486 q 584 603 611 571 q 508 635 557 635 q 463 634 482 635 q 425 633 443 633 q 388 631 407 632 q 342 629 368 629 q 319 635 326 629 q 308 650 311 640 q 304 672 304 660 q 304 694 304 683 "},"F":{"ha":639,"x_min":35,"x_max":621,"o":"m 368 757 q 435 753 394 757 q 529 750 476 750 q 599 786 576 750 q 621 875 621 822 q 601 931 621 910 q 550 965 582 953 q 487 983 521 978 q 419 989 453 988 q 356 990 386 990 q 304 989 326 989 q 198 971 247 989 q 113 913 149 953 q 56 811 76 874 q 35 658 35 749 q 41 433 35 556 q 47 150 47 310 q 76 39 47 79 q 171 -1 104 -1 q 274 42 238 -1 q 311 149 311 86 q 308 211 311 189 q 304 246 304 233 q 325 305 304 289 q 382 321 346 321 q 427 322 406 321 q 485 324 449 324 q 562 348 533 324 q 590 440 590 372 q 580 495 590 474 q 550 528 569 517 q 504 543 531 539 q 446 547 478 547 q 415 547 426 547 q 394 547 403 547 q 377 547 385 547 q 358 546 369 547 q 335 547 344 544 q 319 558 325 549 q 312 587 314 568 q 310 636 310 606 q 310 682 310 660 q 315 721 310 704 q 332 747 319 738 q 368 757 344 757 "},"G":{"ha":803,"x_min":22,"x_max":778,"o":"m 426 258 q 364 277 390 258 q 320 327 338 296 q 294 398 303 358 q 286 478 286 438 q 292 573 286 524 q 314 663 299 622 q 354 731 329 704 q 418 757 379 757 q 474 742 450 757 q 508 700 499 726 q 557 636 526 654 q 631 618 588 618 q 675 623 651 618 q 717 643 699 628 q 749 688 736 658 q 761 768 761 718 q 676 941 761 886 q 433 996 592 996 q 127 869 232 996 q 22 476 22 742 q 53 252 22 344 q 136 102 83 160 q 260 19 189 44 q 411 -7 331 -7 q 557 20 490 -7 q 673 96 624 47 q 750 213 722 144 q 778 361 778 281 q 757 478 778 435 q 701 545 736 522 q 624 576 667 568 q 538 583 582 583 q 463 581 499 583 q 399 566 426 578 q 356 532 372 554 q 340 472 340 510 q 355 403 340 428 q 418 381 369 378 q 463 383 446 382 q 493 383 479 383 q 533 349 533 383 q 528 320 533 336 q 510 290 522 304 q 476 267 497 276 q 426 258 456 258 "},"H":{"ha":807,"x_min":40,"x_max":764,"o":"m 40 663 l 40 329 q 41 272 40 306 q 46 201 42 238 q 58 128 50 164 q 82 63 67 92 q 121 17 97 35 q 179 -1 144 -1 q 254 32 228 -1 q 293 112 281 65 q 308 208 306 158 q 310 292 310 258 q 308 339 310 322 q 306 386 306 356 q 319 402 306 397 q 349 409 332 407 q 382 410 365 411 q 407 410 399 410 q 428 410 414 410 q 458 407 443 410 q 483 399 472 404 q 494 383 494 394 q 494 353 494 367 q 492 329 493 340 q 490 305 490 318 q 489 275 489 292 q 491 195 489 242 q 506 105 493 149 q 544 31 518 61 q 617 0 569 0 q 683 23 657 0 q 726 83 710 46 q 749 167 742 121 q 758 258 756 213 q 760 345 761 304 q 760 413 760 386 q 762 594 760 504 q 764 776 764 685 q 758 843 764 807 q 738 910 753 879 q 698 963 724 942 q 631 983 672 983 q 570 966 593 983 q 534 919 547 949 q 516 855 521 890 q 509 782 511 819 q 506 710 507 744 q 500 651 506 676 q 488 619 496 629 q 456 608 481 608 l 375 608 q 319 621 333 608 q 304 676 304 633 q 305 742 304 703 q 306 808 306 782 q 301 869 306 838 q 285 925 297 900 q 250 967 272 950 q 190 983 228 983 q 107 947 138 983 q 62 860 76 911 q 44 755 47 810 q 40 663 40 700 "},"I":{"ha":528,"x_min":17,"x_max":507,"o":"m 28 122 q 51 51 28 76 q 109 15 75 26 q 181 1 143 3 q 244 0 218 0 q 314 1 271 0 q 399 15 357 3 q 470 52 440 26 q 500 125 500 78 q 492 174 500 158 q 471 197 483 190 q 443 205 458 204 q 415 208 428 206 q 394 221 403 211 q 386 254 386 231 q 388 319 386 286 q 389 392 389 351 q 387 585 389 494 q 385 778 385 675 q 390 786 385 785 q 400 789 394 788 q 473 816 439 796 q 507 874 507 836 q 481 937 507 914 q 418 970 454 960 q 344 983 382 981 q 282 985 306 985 q 211 985 256 985 q 124 976 167 986 q 49 940 81 965 q 17 863 17 915 q 25 817 17 832 q 45 797 33 803 q 72 792 57 792 q 98 791 86 792 q 118 785 110 790 q 126 763 126 779 q 130 503 126 629 q 133 274 133 378 q 126 236 133 247 q 106 220 118 225 q 81 213 94 215 q 55 203 67 211 q 35 178 43 196 q 28 122 28 160 "},"J":{"ha":686,"x_min":26,"x_max":651,"o":"m 396 506 q 381 278 396 351 q 318 206 365 206 q 292 231 300 206 q 281 292 283 257 q 278 365 278 328 q 279 425 279 403 q 269 472 279 453 q 244 501 260 490 q 209 517 229 513 q 169 521 189 521 q 108 506 135 521 q 63 465 81 490 q 35 410 44 440 q 26 350 26 379 q 43 219 26 283 q 96 106 60 156 q 188 26 132 56 q 325 -4 244 -4 q 488 33 424 -4 q 588 140 551 69 q 638 316 624 211 q 651 557 651 421 q 649 694 651 628 q 646 810 646 761 q 631 897 646 864 q 591 950 617 931 q 529 976 565 969 q 450 983 493 983 l 289 983 q 224 981 264 983 q 147 967 185 978 q 83 931 110 956 q 57 863 57 907 q 89 788 57 813 q 167 763 121 763 q 210 763 183 763 q 265 765 236 764 q 321 767 294 767 q 364 768 347 768 q 392 719 392 768 q 392 661 392 686 q 394 613 393 636 q 395 564 394 589 q 396 506 396 539 "},"K":{"ha":783,"x_min":38,"x_max":761,"o":"m 619 0 q 724 43 688 0 q 761 157 761 86 q 738 238 761 197 q 681 317 715 278 q 606 390 646 356 q 531 451 565 424 q 516 467 522 458 q 510 488 510 476 q 528 517 510 499 q 572 563 546 536 q 630 620 599 589 q 688 686 661 651 q 732 757 714 721 q 750 829 750 793 q 742 886 750 858 q 717 935 733 914 q 680 969 701 956 q 631 982 658 982 q 566 958 599 982 q 502 899 533 935 q 442 823 471 864 q 391 747 414 782 q 351 688 368 711 q 324 664 333 664 q 310 678 313 664 q 308 700 308 692 q 310 765 308 726 q 313 832 313 804 q 308 890 313 863 q 292 938 304 917 q 256 970 279 958 q 196 982 233 982 q 107 951 139 982 q 60 874 75 919 q 41 778 44 829 q 38 688 38 728 q 38 603 38 650 q 39 508 39 557 q 40 413 39 460 q 40 329 40 367 q 42 237 40 293 q 58 128 44 181 q 99 38 71 75 q 181 0 128 0 q 236 13 214 0 q 272 49 258 26 q 292 99 286 71 q 300 157 299 126 q 301 224 303 192 q 300 282 300 257 q 329 333 300 333 q 356 308 339 333 q 394 247 372 283 q 441 167 415 210 q 495 87 467 124 q 556 25 524 50 q 619 0 588 0 "},"L":{"ha":604,"x_min":33,"x_max":589,"o":"m 289 408 q 290 513 289 465 q 292 607 290 561 q 294 700 293 653 q 294 804 294 747 q 292 866 294 833 q 277 926 289 899 q 243 970 265 953 q 181 988 221 988 q 103 963 132 988 q 58 900 74 938 q 38 819 43 863 q 33 738 33 775 l 33 267 q 55 115 33 169 q 116 35 76 61 q 212 3 156 8 q 338 -1 268 -1 q 522 54 456 -1 q 589 199 589 110 q 582 247 589 222 q 562 293 575 272 q 530 328 549 314 q 488 342 511 342 q 450 332 469 342 q 380 292 404 308 q 336 275 356 275 q 310 290 319 275 q 296 326 300 306 q 290 370 292 347 q 289 408 289 393 "},"M":{"ha":967,"x_min":38,"x_max":931,"o":"m 322 172 q 317 312 322 239 q 313 447 313 385 q 314 485 313 471 q 329 500 315 500 q 353 474 344 500 q 375 416 361 447 q 413 358 389 385 q 481 332 436 332 q 554 363 525 332 q 603 431 583 393 q 635 499 624 468 q 656 529 647 529 q 663 515 663 529 q 664 481 664 500 q 658 348 664 421 q 651 196 651 275 q 655 129 651 164 q 673 65 658 94 q 717 17 688 36 q 800 -1 747 -1 q 863 24 839 -1 q 901 89 888 49 q 922 179 915 129 q 929 280 928 229 q 929 376 931 331 q 928 453 928 422 l 928 775 q 919 841 928 804 q 891 909 911 878 q 839 962 871 940 q 761 983 807 983 q 694 963 725 983 q 638 911 664 942 q 589 844 611 881 q 549 776 567 807 q 519 725 532 746 q 497 704 506 704 q 476 724 490 704 q 441 775 461 744 q 395 842 421 806 q 339 908 369 878 q 273 959 308 939 q 199 979 238 979 q 122 947 153 979 q 73 861 92 914 q 46 742 54 808 q 38 611 38 676 l 38 350 q 44 224 38 288 q 68 111 50 161 q 118 30 86 61 q 201 -1 150 -1 q 259 13 236 -1 q 296 51 282 28 q 316 107 310 75 q 322 172 322 139 "},"N":{"ha":818,"x_min":36,"x_max":783,"o":"m 601 -3 q 695 24 661 -3 q 747 95 729 50 q 769 202 764 140 q 774 335 774 264 q 775 409 774 360 q 778 518 776 458 q 782 640 781 578 q 783 754 783 703 q 781 847 783 804 q 765 919 779 889 q 720 967 750 950 q 633 985 690 985 q 557 943 582 985 q 524 836 532 901 q 523 692 517 771 q 542 538 529 613 q 542 517 543 533 q 532 501 540 501 q 509 537 526 501 q 467 626 492 572 q 412 742 443 681 q 346 858 381 804 q 274 948 311 913 q 199 983 236 983 q 117 959 149 983 q 69 895 86 935 q 44 806 51 856 q 38 706 38 756 q 37 597 38 651 q 36 488 36 542 q 38 315 36 403 q 52 157 39 228 q 94 41 65 86 q 176 -4 122 -4 q 251 15 225 -4 q 288 64 276 35 q 302 125 300 93 q 304 182 304 157 q 292 279 304 226 q 279 376 279 332 q 279 388 279 379 q 281 404 279 396 q 285 419 282 413 q 293 425 288 425 q 317 393 301 425 q 354 314 333 361 q 401 211 375 267 q 459 108 428 156 q 526 29 490 61 q 601 -3 563 -3 "},"O":{"ha":899,"x_min":36,"x_max":861,"o":"m 446 -15 q 755 122 649 -15 q 861 504 861 258 q 761 865 861 743 q 464 988 661 988 q 290 957 368 988 q 155 864 211 926 q 67 704 99 801 q 36 474 36 607 q 67 255 36 347 q 154 102 99 163 q 284 13 210 42 q 446 -15 358 -15 m 303 474 q 315 591 303 538 q 349 683 328 644 q 395 742 369 721 q 447 764 421 764 q 511 736 483 764 q 558 665 539 708 q 585 573 576 622 q 594 479 594 524 q 590 388 594 436 q 572 299 586 339 q 531 232 557 258 q 458 206 504 206 q 386 233 415 206 q 338 302 357 261 q 311 390 319 343 q 303 474 303 436 "},"P":{"ha":760,"x_min":36,"x_max":738,"o":"m 738 632 q 707 816 738 747 q 620 922 676 885 q 483 970 564 958 q 299 982 401 982 q 163 952 215 982 q 83 873 111 922 q 46 760 56 824 q 36 626 36 696 l 36 349 q 38 256 36 314 q 53 140 40 197 q 92 42 65 83 q 169 0 119 0 q 255 10 226 0 q 294 42 283 21 q 306 96 306 64 q 306 171 306 128 q 305 184 306 178 q 307 197 304 190 q 324 208 311 206 q 351 211 336 211 q 381 210 367 211 q 404 208 396 208 q 555 247 492 208 q 658 346 618 285 q 718 482 699 407 q 738 632 738 557 m 293 631 q 293 681 293 657 q 299 723 293 704 q 322 753 306 742 q 372 764 339 764 q 426 751 406 764 q 457 718 446 739 q 472 671 468 697 q 475 617 475 644 q 467 547 475 582 q 442 485 460 513 q 397 440 425 457 q 329 422 369 422 q 302 434 310 422 q 294 464 294 446 q 294 547 294 506 q 293 631 293 589 "},"Q":{"ha":896,"x_min":36,"x_max":861,"o":"m 446 -15 q 506 -9 479 -15 q 544 -6 532 -3 q 565 -26 558 -8 q 578 -54 571 -44 q 595 -74 583 -64 q 624 -92 607 -85 q 660 -103 640 -100 q 701 -103 679 -107 q 783 -56 760 -92 q 806 13 806 -21 q 797 48 806 31 q 776 81 788 65 q 768 90 774 85 q 758 102 763 96 q 754 116 754 108 q 760 133 754 124 q 799 206 781 168 q 831 289 817 244 q 853 387 844 333 q 861 504 861 440 q 761 865 861 743 q 464 988 661 988 q 290 957 368 988 q 155 864 211 926 q 67 704 99 801 q 36 474 36 607 q 67 255 36 347 q 154 102 99 163 q 284 13 210 42 q 446 -15 358 -15 m 303 474 q 315 591 303 538 q 349 683 328 644 q 395 742 369 721 q 447 764 421 764 q 511 736 483 764 q 558 665 539 708 q 585 573 576 622 q 594 479 594 524 q 590 388 594 436 q 572 299 586 339 q 531 232 557 258 q 458 206 504 206 q 386 233 415 206 q 338 302 357 261 q 311 390 319 343 q 303 474 303 436 "},"R":{"ha":785,"x_min":33,"x_max":761,"o":"m 304 240 q 306 252 304 244 q 314 260 307 260 q 335 240 319 260 q 372 189 350 219 q 424 122 394 158 q 489 56 453 86 q 566 5 525 25 q 651 -15 607 -15 q 731 16 700 -15 q 761 97 761 47 q 737 161 761 131 q 676 219 713 192 q 597 269 640 246 q 518 311 554 293 q 458 342 482 329 q 433 360 433 354 q 456 369 433 365 q 514 381 479 372 q 588 406 549 389 q 663 454 628 422 q 720 538 697 486 q 743 667 743 589 q 701 830 743 768 q 599 926 660 892 q 470 971 539 960 q 347 982 401 982 q 220 966 275 982 q 128 924 165 950 q 69 863 90 897 q 43 790 47 828 q 38 715 40 771 q 35 595 36 660 q 34 469 35 531 q 33 376 33 408 q 33 299 33 338 q 36 221 33 260 q 41 144 38 183 q 58 72 44 104 q 99 19 71 40 q 176 -1 126 -1 q 251 22 225 -1 q 288 81 276 46 q 302 159 300 117 q 304 240 304 201 m 306 565 l 306 725 q 326 769 306 754 q 374 783 347 783 q 454 749 424 783 q 485 667 485 715 q 474 615 485 640 q 446 572 464 590 q 404 541 428 553 q 353 529 381 529 q 321 538 336 529 q 306 565 306 546 "},"S":{"ha":743,"x_min":15,"x_max":719,"o":"m 128 418 q 78 407 100 418 q 43 377 57 396 q 22 335 29 358 q 15 286 15 311 q 40 163 15 218 q 112 69 64 108 q 229 8 160 29 q 390 -14 299 -14 q 510 6 451 -14 q 616 64 569 26 q 691 156 663 101 q 719 278 719 210 q 690 399 719 347 q 615 490 660 451 q 519 559 571 529 q 422 613 467 589 q 348 661 378 638 q 318 711 318 685 q 340 755 318 740 q 394 769 361 769 q 460 749 435 769 q 494 693 485 728 q 522 638 503 661 q 594 614 542 614 q 674 648 643 614 q 704 740 704 682 q 685 840 704 794 q 628 919 667 886 q 533 972 590 953 q 401 992 476 992 q 261 969 326 992 q 148 906 196 946 q 72 808 100 865 q 44 685 44 751 q 75 573 44 622 q 151 483 106 524 q 251 411 197 443 q 351 352 306 379 q 428 301 397 325 q 458 256 458 278 q 435 224 458 236 q 371 213 411 213 q 269 247 304 213 q 224 351 235 282 q 190 401 218 383 q 128 418 163 418 "},"T":{"ha":724,"x_min":7,"x_max":717,"o":"m 367 -3 q 451 29 424 -3 q 488 108 478 61 q 496 206 497 154 q 494 299 494 258 q 496 403 494 356 q 498 498 497 451 q 498 592 499 544 q 493 696 497 640 q 517 719 490 719 q 578 726 543 719 q 643 748 613 732 q 695 790 674 764 q 717 853 717 815 q 690 922 717 896 q 624 960 663 947 q 544 978 586 974 q 474 982 503 982 l 203 982 q 140 977 174 982 q 76 958 106 972 q 26 917 46 943 q 7 846 7 890 q 27 781 7 806 q 76 742 47 756 q 140 724 106 729 q 203 719 174 719 q 224 711 215 719 q 232 690 232 703 q 232 553 232 618 q 233 425 232 489 q 233 297 233 361 q 233 160 233 232 q 237 110 233 135 q 251 61 240 85 q 300 12 269 26 q 367 -3 331 -3 "},"U":{"ha":810,"x_min":35,"x_max":775,"o":"m 408 -7 q 558 18 496 -7 q 660 87 619 43 q 724 190 700 131 q 758 318 747 250 q 772 460 769 386 q 775 608 775 535 l 775 743 q 769 842 775 797 q 748 918 764 886 q 703 968 732 950 q 628 986 674 986 q 543 956 576 986 q 510 871 510 926 q 514 728 510 799 q 518 585 518 657 q 516 437 518 501 q 503 328 514 372 q 469 260 492 283 q 404 238 446 238 q 351 260 371 238 q 322 315 332 282 q 308 387 311 349 q 306 458 306 425 q 308 603 306 531 q 311 747 311 675 q 308 822 311 782 q 293 898 306 863 q 256 957 281 933 q 185 981 231 981 q 101 947 131 981 q 56 853 71 913 q 38 715 42 793 q 35 546 35 636 q 42 347 35 446 q 84 170 49 249 q 195 42 119 92 q 408 -7 271 -7 "},"V":{"ha":814,"x_min":21,"x_max":793,"o":"m 142 983 q 53 949 86 983 q 21 861 21 914 q 33 738 21 818 q 67 560 44 657 q 123 363 90 464 q 197 180 156 263 q 288 44 238 97 q 393 -8 338 -8 q 462 3 431 -8 q 528 50 493 14 q 581 138 551 74 q 639 286 610 203 q 696 463 668 369 q 745 641 724 557 q 780 789 767 725 q 793 878 793 853 q 756 958 793 929 q 665 988 718 988 q 585 955 617 988 q 540 869 553 922 q 511 738 525 806 q 485 609 497 669 q 463 501 472 549 q 446 428 453 453 q 441 411 444 422 q 433 390 438 400 q 421 372 428 379 q 406 364 414 364 q 388 383 397 364 q 367 433 378 401 q 344 513 356 467 q 324 609 333 558 q 304 711 314 660 q 286 806 294 763 q 271 879 278 849 q 258 919 264 910 q 142 983 219 983 "},"W":{"ha":1071,"x_min":33,"x_max":1039,"o":"m 732 -18 q 853 11 803 -18 q 938 88 903 40 q 992 199 972 136 q 1022 329 1011 263 q 1036 462 1033 396 q 1039 583 1039 528 q 1035 701 1039 632 q 1017 834 1032 771 q 972 942 1003 897 q 888 986 942 986 q 799 947 831 986 q 767 832 767 907 q 772 747 767 793 q 778 639 778 701 l 778 535 q 778 448 778 497 q 775 353 779 399 q 760 277 771 308 q 724 246 749 246 q 693 268 706 246 q 672 325 681 290 q 657 401 663 360 q 649 482 651 443 q 644 552 646 521 q 643 596 643 583 q 641 722 643 671 q 628 805 639 774 q 595 850 618 836 q 532 864 572 864 q 470 844 492 864 q 440 786 449 824 q 430 696 431 749 q 429 578 429 643 q 432 497 429 538 q 435 415 435 456 q 432 358 435 389 q 420 302 429 328 q 395 260 411 276 q 354 243 379 243 q 322 272 333 243 q 306 337 311 300 q 299 410 300 374 q 299 461 299 446 q 302 611 299 536 q 306 761 306 686 q 303 828 306 790 q 290 901 301 867 q 256 958 279 935 q 192 982 233 982 q 119 956 147 982 q 73 888 90 929 q 47 795 56 847 q 36 692 39 743 q 34 594 33 640 q 35 518 35 549 q 37 403 35 464 q 48 284 39 343 q 75 172 57 225 q 124 77 93 118 q 203 12 156 36 q 318 -12 250 -12 q 391 5 358 -12 q 449 43 424 22 q 493 81 475 64 q 521 99 511 99 q 549 81 532 99 q 590 40 565 63 q 650 0 615 18 q 732 -18 685 -18 "},"X":{"ha":894,"x_min":19,"x_max":875,"o":"m 747 -4 q 792 3 769 -4 q 833 23 814 10 q 863 56 851 36 q 875 100 875 75 q 856 174 875 135 q 807 253 836 214 q 744 331 778 293 q 681 402 710 369 q 632 459 651 435 q 613 496 613 483 q 631 533 613 508 q 678 592 650 558 q 740 663 707 625 q 802 738 774 700 q 849 810 831 775 q 868 869 868 844 q 835 964 868 931 q 735 997 801 997 q 681 977 710 997 q 623 926 653 957 q 565 860 593 896 q 510 793 536 824 q 464 742 485 763 q 431 722 443 722 q 399 742 418 722 q 357 790 381 761 q 306 852 333 818 q 251 915 279 886 q 197 963 224 943 q 144 982 169 982 q 60 949 99 982 q 22 850 22 915 q 40 777 22 815 q 85 701 58 739 q 142 628 111 664 q 200 563 174 593 q 244 512 226 533 q 263 481 263 490 q 244 446 263 469 q 199 391 226 422 q 141 322 172 360 q 83 247 110 285 q 38 172 56 208 q 19 106 19 135 q 56 24 19 53 q 142 -4 93 -4 q 207 17 175 -4 q 268 69 239 38 q 324 136 297 100 q 372 203 350 172 q 413 256 394 235 q 443 276 431 276 q 474 256 456 276 q 515 203 492 235 q 565 136 538 172 q 622 69 592 100 q 683 17 651 38 q 747 -4 715 -4 "},"Y":{"ha":729,"x_min":7,"x_max":722,"o":"m 243 238 q 245 163 243 204 q 258 85 247 122 q 294 24 269 49 q 365 0 319 0 q 442 27 415 0 q 480 94 468 54 q 493 178 492 133 q 494 260 494 224 q 492 338 494 299 q 489 415 489 376 q 506 451 489 424 q 549 517 524 478 q 606 605 575 557 q 662 701 636 653 q 705 797 688 750 q 722 881 722 843 q 688 958 722 928 q 599 988 653 988 q 540 963 567 988 q 491 902 513 939 q 452 822 469 865 q 420 742 435 779 q 394 681 406 706 q 372 657 383 657 q 348 681 361 657 q 318 742 335 706 q 282 819 301 778 q 240 897 263 861 q 192 958 217 933 q 139 982 167 982 q 47 948 86 982 q 7 839 7 914 q 24 776 7 814 q 69 694 42 738 q 126 604 96 650 q 184 517 157 558 q 228 446 211 476 q 246 400 246 415 q 244 319 246 360 q 243 238 243 278 "},"Z":{"ha":751,"x_min":24,"x_max":731,"o":"m 717 807 q 685 913 717 875 q 599 967 654 950 q 471 988 544 985 q 314 992 397 992 q 237 989 285 992 q 143 973 189 986 q 65 931 97 960 q 32 853 32 903 q 51 794 32 815 q 101 764 71 774 q 169 753 132 754 q 244 756 207 753 q 314 763 282 758 q 365 767 346 767 q 385 764 374 767 q 397 749 397 761 q 369 705 397 740 q 300 617 342 669 q 210 503 258 565 q 121 377 163 440 q 51 256 79 314 q 24 157 24 199 q 44 78 24 110 q 98 28 65 47 q 169 3 131 10 q 244 -4 208 -4 q 328 -6 286 -4 q 411 -7 369 -7 q 497 -6 443 -7 q 602 8 550 -4 q 692 49 654 21 q 731 131 731 76 q 717 206 731 181 q 678 240 704 231 q 615 249 653 250 q 529 249 578 249 q 477 247 503 249 q 425 244 451 244 q 391 249 410 244 q 372 274 372 253 q 398 322 372 286 q 462 406 424 357 q 544 511 500 454 q 627 624 589 568 q 691 727 665 679 q 717 807 717 775 "},"[":{"ha":588,"x_min":61,"x_max":558,"o":"m 325 -104 q 417 -101 374 -104 q 491 -85 460 -97 q 540 -48 522 -72 q 558 18 558 -24 q 549 56 558 40 q 524 83 539 72 q 489 99 508 93 q 450 104 469 104 q 406 99 426 104 q 363 93 385 93 q 341 94 347 93 q 326 107 335 96 q 319 162 322 113 q 313 285 315 211 q 310 444 311 358 q 308 609 308 531 q 306 749 307 688 q 306 831 306 810 q 308 858 306 842 q 322 879 310 874 q 367 889 339 886 q 428 892 396 892 q 513 911 481 892 q 546 988 546 931 q 532 1040 546 1019 q 492 1073 518 1061 q 431 1090 467 1085 q 351 1094 396 1094 q 197 1080 254 1094 q 108 1017 139 1065 q 69 874 78 968 q 61 619 61 779 q 62 518 61 568 q 63 417 63 468 q 64 305 63 360 q 71 193 65 250 q 90 34 81 93 q 125 -56 100 -25 q 197 -95 150 -86 q 325 -104 243 -104 "},"\\":{"ha":681,"x_min":26,"x_max":640,"o":"m 117 1069 q 50 1042 74 1069 q 26 974 26 1015 q 40 902 26 947 q 73 803 53 857 q 118 690 93 749 q 168 578 143 632 q 215 478 193 524 q 250 404 238 432 q 321 245 288 325 q 393 86 354 165 q 419 37 404 65 q 453 -17 433 8 q 496 -60 472 -43 q 547 -78 519 -78 q 619 -47 597 -78 q 640 29 640 -17 q 624 125 640 78 q 593 218 608 172 q 510 412 557 318 q 422 603 464 506 q 378 703 403 647 q 327 815 354 758 q 273 926 300 872 q 221 1018 246 979 q 176 1057 206 1044 q 117 1069 147 1069 "},"]":{"ha":579,"x_min":35,"x_max":532,"o":"m 268 1094 q 176 1091 219 1094 q 102 1075 133 1088 q 53 1038 71 1063 q 35 972 35 1014 q 44 934 35 950 q 69 908 54 918 q 104 892 85 897 q 143 886 124 886 q 188 892 167 886 q 231 897 208 897 q 252 896 246 897 q 267 883 258 894 q 274 828 271 878 q 280 706 278 779 q 283 546 282 632 q 285 381 285 460 q 287 242 286 303 q 288 160 288 182 q 285 133 288 149 q 271 111 283 117 q 226 101 254 104 q 165 99 197 99 q 80 79 113 99 q 47 3 47 60 q 61 -50 47 -29 q 101 -83 75 -71 q 163 -99 126 -94 q 242 -104 199 -104 q 397 -90 340 -104 q 485 -26 454 -75 q 524 117 515 22 q 532 371 532 211 q 531 472 532 422 q 531 574 531 522 q 529 685 531 631 q 522 797 528 740 q 503 956 513 897 q 468 1046 493 1015 q 397 1085 443 1076 q 268 1094 350 1094 "},"^":{"ha":676,"x_min":38,"x_max":640,"o":"m 339 1025 q 278 1006 311 1025 q 224 953 244 986 l 63 690 q 45 659 53 675 q 38 625 38 643 q 68 567 38 593 q 150 542 99 542 q 199 558 176 542 q 242 599 222 575 q 276 652 261 624 q 303 705 292 681 q 324 746 315 729 q 339 763 333 763 q 367 728 351 763 q 404 651 382 693 q 459 575 426 610 q 540 540 492 540 q 610 563 579 540 q 640 622 640 586 q 633 655 640 639 q 615 686 625 671 l 460 944 q 408 1003 438 981 q 339 1025 379 1025 "},"_":{"ha":642,"x_min":57,"x_max":594,"o":"m 57 -85 q 71 -150 57 -126 q 108 -186 85 -174 q 161 -202 131 -199 q 224 -206 192 -206 q 270 -206 239 -206 q 339 -206 301 -206 q 415 -203 376 -206 q 483 -197 453 -201 q 571 -162 547 -189 q 594 -99 594 -135 q 581 -19 594 -50 q 522 10 567 11 l 151 1 q 83 -28 108 0 q 57 -85 57 -56 "},"`":{"ha":492,"x_min":69,"x_max":375,"o":"m 69 1144 q 100 1095 69 1124 q 172 1041 131 1067 q 253 998 213 1015 q 315 981 294 981 q 358 999 342 981 q 375 1043 375 1017 q 352 1099 375 1067 q 297 1161 329 1132 q 230 1210 265 1190 q 171 1231 194 1231 q 136 1224 154 1231 q 103 1207 118 1218 q 79 1180 89 1196 q 69 1144 69 1164 "},"a":{"ha":835,"x_min":28,"x_max":794,"o":"m 667 -29 q 757 6 728 -29 q 789 100 786 42 q 794 307 794 204 q 794 514 794 410 q 777 707 794 619 q 715 857 760 794 q 594 954 671 919 q 399 989 518 989 q 303 982 357 989 q 200 955 249 975 q 118 900 151 935 q 85 811 85 865 q 95 773 85 790 q 121 743 106 756 q 155 724 136 731 q 192 717 174 717 q 291 728 244 717 q 390 739 338 739 q 442 738 419 739 q 482 727 465 736 q 508 699 499 718 q 517 647 517 681 q 512 642 517 644 q 494 650 507 640 q 456 669 479 661 q 390 678 432 678 q 242 656 308 678 q 127 588 175 633 q 53 474 79 543 q 28 314 28 406 q 49 185 28 246 q 111 81 71 125 q 209 10 151 36 q 338 -15 267 -15 q 417 0 383 -15 q 473 33 450 15 q 510 65 496 50 q 529 81 524 81 q 542 74 538 81 q 549 60 546 68 q 553 43 551 51 q 556 31 554 35 q 571 -2 560 10 q 598 -20 582 -14 q 632 -28 614 -26 q 667 -29 650 -29 m 508 457 q 530 422 524 442 q 536 361 536 401 q 528 311 536 336 q 503 266 519 286 q 460 233 486 246 q 401 221 435 221 q 317 254 349 221 q 286 335 286 288 q 322 443 286 399 q 431 488 357 488 q 476 478 454 488 q 508 457 497 468 "},"b":{"ha":769,"x_min":35,"x_max":749,"o":"m 749 401 q 731 541 749 474 q 679 660 714 608 q 593 744 644 713 q 475 775 542 775 q 435 767 454 775 q 400 750 417 760 q 368 733 383 740 q 339 725 353 725 q 315 737 322 725 q 305 767 307 749 q 304 806 303 785 q 306 846 306 828 q 301 913 306 885 q 283 960 296 942 q 244 989 269 979 q 176 999 218 999 q 110 978 136 999 q 68 926 83 958 q 46 854 53 894 q 37 773 39 814 q 35 695 35 732 q 36 633 36 658 l 36 160 q 49 63 36 100 q 78 4 61 25 q 115 -24 96 -17 q 146 -32 133 -32 q 175 -29 158 -32 q 208 -20 192 -26 q 238 -3 224 -14 q 260 24 251 8 q 271 42 265 35 q 288 50 276 50 q 303 39 296 50 q 325 14 311 28 q 362 -11 339 0 q 424 -22 385 -22 q 572 15 511 -22 q 673 113 633 53 q 731 249 713 174 q 749 401 749 325 m 390 526 q 465 490 443 526 q 486 392 486 453 q 479 342 486 368 q 459 294 472 315 q 427 258 446 272 q 383 244 408 244 q 315 269 333 244 q 297 338 297 293 q 298 408 297 379 q 299 478 299 436 q 308 503 299 493 q 332 518 318 513 q 362 525 346 524 q 390 526 378 526 "},"c":{"ha":788,"x_min":28,"x_max":765,"o":"m 458 229 q 363 254 394 229 q 318 320 331 279 q 306 411 306 361 q 306 511 306 461 q 313 590 306 544 q 335 678 319 636 q 376 748 350 719 q 440 776 401 776 q 477 767 463 776 q 501 741 492 757 q 515 705 510 725 q 522 663 519 685 q 528 591 526 625 q 538 532 529 557 q 565 492 546 507 q 626 476 585 476 q 686 492 663 476 q 724 531 710 507 q 743 585 738 556 q 749 646 749 615 q 726 793 749 728 q 659 906 703 858 q 552 978 615 953 q 408 1003 489 1003 q 225 958 299 1003 q 108 839 151 913 q 46 669 64 765 q 28 474 28 574 q 47 276 28 365 q 113 122 67 186 q 237 22 160 57 q 429 -14 314 -14 q 527 -4 469 -14 q 638 28 585 6 q 728 86 690 50 q 765 176 765 122 q 740 260 765 224 q 668 296 714 296 q 610 285 631 296 q 570 263 589 275 q 527 240 551 250 q 458 229 503 229 "},"d":{"ha":835,"x_min":28,"x_max":800,"o":"m 667 -29 q 757 6 728 -29 q 789 100 786 42 q 794 307 794 204 q 794 514 794 410 q 797 646 794 585 q 800 760 800 707 q 794 855 800 813 q 771 927 789 897 q 721 973 753 957 q 636 989 689 989 q 513 836 513 989 q 515 768 513 800 q 517 717 517 736 q 514 711 517 714 l 511 711 q 494 719 507 711 q 476 733 488 725 q 449 748 465 740 q 410 760 433 756 q 356 765 388 765 q 225 736 285 765 q 122 653 165 707 q 53 523 78 599 q 28 356 28 447 q 49 221 28 288 q 111 101 71 154 q 209 17 151 49 q 338 -15 267 -15 q 417 0 383 -15 q 473 33 450 15 q 510 65 496 50 q 529 81 524 81 q 542 74 538 81 q 549 60 546 68 q 553 43 551 51 q 556 31 554 35 q 571 -2 560 10 q 598 -20 582 -14 q 632 -28 614 -26 q 667 -29 650 -29 m 504 522 q 526 473 519 507 q 532 399 532 439 q 524 342 532 374 q 499 283 515 311 q 456 236 482 256 q 397 217 431 217 q 349 232 371 217 q 313 271 328 247 q 290 322 299 294 q 282 372 282 349 q 291 436 282 404 q 318 494 300 468 q 363 537 336 521 q 426 553 390 553 q 472 543 450 553 q 504 522 493 533 "},"e":{"ha":796,"x_min":36,"x_max":764,"o":"m 335 369 q 382 357 357 363 q 443 351 407 351 q 562 371 506 351 q 660 430 618 390 q 726 529 701 469 q 751 669 751 589 q 722 807 751 747 q 644 907 693 867 q 531 968 596 947 q 396 989 467 989 q 215 941 285 989 q 105 817 144 893 q 51 647 65 742 q 36 460 36 553 q 59 278 36 364 q 130 128 82 193 q 253 26 178 64 q 433 -12 328 -12 q 567 2 507 -12 q 672 45 628 17 q 740 116 715 74 q 764 214 764 158 q 743 278 764 250 q 682 306 722 306 q 628 294 647 306 q 590 267 610 282 q 540 240 569 253 q 457 228 511 228 q 389 236 415 228 q 347 258 363 244 q 323 291 331 272 q 313 331 315 310 q 313 363 310 354 q 322 372 315 372 q 335 369 326 372 m 303 651 q 326 738 303 704 q 397 771 350 771 q 483 740 456 771 q 511 671 511 710 q 503 626 511 649 q 481 584 496 603 q 447 554 467 565 q 401 543 426 543 q 372 550 389 543 q 339 571 354 557 q 313 605 324 585 q 303 651 303 625 "},"f":{"ha":672,"x_min":0,"x_max":653,"o":"m 121 368 l 121 128 q 151 30 121 61 q 250 -1 182 -1 q 334 24 297 -1 q 371 104 371 50 q 370 172 371 142 q 368 228 369 201 q 366 285 367 256 q 365 353 365 315 q 396 383 365 383 q 434 382 408 383 q 488 380 460 381 q 542 381 515 379 q 582 389 568 382 q 640 499 640 417 q 613 570 640 543 q 542 597 586 597 l 382 597 q 356 610 365 597 q 343 642 347 624 q 338 683 339 661 q 339 721 338 704 q 356 751 340 738 q 392 764 372 764 q 429 751 415 764 q 456 724 443 739 q 488 697 469 710 q 539 685 506 685 q 620 714 588 685 q 653 796 653 743 q 626 877 653 842 q 557 938 599 913 q 466 975 515 963 q 372 988 417 988 q 262 974 314 988 q 171 933 210 961 q 110 865 132 906 q 88 767 88 824 q 92 729 88 746 q 101 698 96 713 q 113 669 107 683 q 121 638 118 654 q 117 600 125 617 q 81 583 108 583 q 21 557 42 583 q 0 488 0 531 q 15 410 0 442 q 57 379 29 379 q 101 379 81 379 q 121 368 121 379 "},"g":{"ha":824,"x_min":21,"x_max":813,"o":"m 307 236 q 388 251 342 239 q 478 263 435 263 q 513 260 494 263 q 545 252 531 258 q 569 233 560 246 q 579 200 579 221 q 540 154 579 174 q 426 135 501 135 q 301 151 343 135 q 247 188 258 168 q 213 224 236 207 q 140 240 189 240 q 98 235 119 240 q 60 218 76 229 q 32 189 43 207 q 21 146 21 171 q 47 53 21 92 q 120 -11 74 14 q 230 -48 167 -36 q 365 -60 293 -60 q 538 -45 458 -60 q 677 3 618 -31 q 770 90 736 36 q 804 222 804 144 q 790 322 804 282 q 744 387 775 363 q 664 422 713 411 q 546 432 615 432 q 429 425 479 432 q 347 411 379 418 q 299 411 315 404 q 282 429 282 418 q 289 447 282 440 q 306 457 296 454 q 324 460 315 460 q 339 461 333 461 l 442 461 q 542 476 489 461 q 642 522 596 490 q 718 605 688 554 q 749 728 749 656 q 739 803 749 768 q 706 858 729 839 q 703 864 703 861 q 712 871 703 868 q 732 875 721 874 q 753 877 743 876 q 768 879 764 878 q 802 904 792 886 q 813 946 813 922 q 792 1009 813 979 q 735 1039 771 1039 q 706 1033 721 1039 q 642 1008 669 1021 q 579 992 615 994 q 503 994 543 990 q 418 999 463 999 q 265 982 335 999 q 143 928 194 965 q 63 831 92 890 q 35 689 35 772 q 44 610 35 640 q 67 560 53 579 q 97 530 81 542 q 125 507 113 518 q 127 487 136 497 q 103 463 118 476 q 73 430 88 449 q 58 383 58 411 q 78 313 58 343 q 131 265 97 283 q 210 238 165 246 q 307 236 256 231 m 513 717 q 476 651 513 675 q 386 628 440 628 q 342 632 364 628 q 302 646 319 636 q 274 669 285 656 q 263 703 263 683 q 272 739 263 721 q 299 772 282 757 q 341 797 317 788 q 393 807 365 807 q 433 802 413 807 q 472 786 454 797 q 501 758 489 775 q 513 717 513 740 "},"h":{"ha":800,"x_min":38,"x_max":764,"o":"m 311 776 q 308 843 311 807 q 293 910 304 879 q 259 963 282 942 q 196 983 236 983 q 104 952 136 983 q 58 870 72 921 q 40 755 43 819 q 38 624 38 690 l 38 313 q 40 219 38 274 q 58 114 43 164 q 106 29 74 64 q 196 -6 138 -6 q 258 19 238 -6 q 288 81 279 44 q 297 157 296 117 q 297 226 297 197 q 294 285 297 256 q 292 344 292 315 q 303 404 292 374 q 332 459 314 435 q 373 499 350 483 q 418 514 396 514 q 487 488 467 514 q 507 410 507 463 l 507 263 q 508 183 507 229 q 521 96 510 138 q 558 25 532 54 q 632 -4 583 -4 q 709 24 682 -4 q 748 94 736 53 q 762 183 760 136 q 764 264 764 229 q 764 374 764 325 q 762 463 764 422 q 755 536 760 503 q 740 600 750 569 q 712 660 729 633 q 667 706 694 688 q 600 735 639 725 q 507 746 561 746 q 428 738 460 746 q 376 722 396 731 q 344 705 356 713 q 326 697 333 697 q 313 708 317 697 q 309 731 310 718 q 310 758 308 744 q 311 776 311 771 "},"i":{"ha":336,"x_min":35,"x_max":301,"o":"m 168 778 q 262 804 222 778 q 301 883 301 831 q 290 933 301 911 q 261 969 279 954 q 219 990 243 983 q 169 997 194 997 q 120 989 144 997 q 77 965 96 981 q 47 928 58 950 q 35 878 35 906 q 45 840 35 858 q 74 808 56 822 q 117 786 93 794 q 168 778 142 778 m 38 621 q 37 503 38 571 q 36 365 36 436 q 35 226 36 293 q 35 108 35 158 q 39 47 35 75 q 58 0 43 19 q 99 -31 72 -19 q 172 -42 126 -42 q 230 -28 206 -42 q 270 7 254 -15 q 294 58 286 29 q 301 115 301 86 l 301 646 q 290 705 301 682 q 259 740 278 728 q 217 756 240 753 q 168 758 193 760 q 119 749 143 757 q 78 726 96 742 q 49 685 60 711 q 38 621 38 660 "},"j":{"ha":357,"x_min":-58,"x_max":321,"o":"m 183 786 q 274 814 236 786 q 311 883 311 842 q 272 968 311 939 q 181 997 232 997 q 130 990 154 997 q 87 969 106 983 q 56 933 68 954 q 44 883 44 913 q 56 839 44 857 q 88 809 68 821 q 132 792 107 797 q 183 786 157 786 m -58 -110 q -31 -195 -58 -172 q 60 -218 -4 -218 q 210 -176 157 -218 q 288 -56 263 -133 q 317 132 313 22 q 321 378 321 242 q 319 482 321 425 q 318 586 318 539 q 287 726 318 686 q 181 765 256 765 q 80 740 108 765 q 51 672 51 715 q 56 531 51 601 q 60 389 60 460 q 60 296 60 335 q 62 224 61 257 q 63 158 63 190 q 64 83 64 125 q 57 -1 64 25 q 32 -35 50 -28 q 2 -47 18 -40 q -27 -62 -14 -54 q -49 -83 -40 -71 q -58 -110 -58 -94 "},"k":{"ha":725,"x_min":35,"x_max":706,"o":"m 572 0 q 617 11 593 0 q 662 42 642 22 q 694 91 682 63 q 700 154 706 119 q 670 213 696 182 q 610 275 644 244 q 537 334 575 306 q 469 386 499 363 q 451 399 460 393 q 443 411 443 404 q 452 425 443 418 q 469 439 461 432 q 533 483 496 460 q 605 534 571 507 q 663 594 639 561 q 688 665 688 626 q 656 769 688 728 q 563 810 625 810 q 512 792 539 810 q 458 749 485 775 q 405 694 431 724 q 358 638 379 664 q 322 595 336 613 q 300 578 307 578 q 294 587 294 578 q 294 599 294 596 q 297 645 294 617 q 301 705 299 674 q 306 765 304 736 q 308 811 308 793 q 303 873 308 842 q 283 930 299 904 q 240 972 268 956 q 163 988 211 988 q 89 958 115 988 q 51 878 63 928 q 37 763 39 828 q 35 626 35 697 q 36 478 35 551 q 38 329 38 404 q 39 235 38 292 q 52 127 40 179 q 92 38 64 75 q 175 0 121 0 q 251 26 225 0 q 286 90 276 51 q 296 170 296 128 q 296 246 296 213 q 297 258 296 250 q 306 265 299 265 q 326 246 311 265 q 361 197 340 226 q 407 133 382 167 q 460 69 432 99 q 516 19 488 39 q 572 0 544 0 "},"l":{"ha":449,"x_min":35,"x_max":432,"o":"m 290 368 q 296 521 290 450 q 301 674 301 592 l 301 783 q 297 849 301 813 q 281 915 293 885 q 245 967 268 946 q 185 988 222 988 q 100 953 131 988 q 55 869 69 918 q 38 765 40 819 q 35 672 35 711 l 35 218 q 90 39 35 99 q 274 -21 144 -21 q 397 6 361 -21 q 432 104 432 33 q 423 158 432 138 q 401 191 414 179 q 372 208 388 203 q 343 213 356 213 q 321 210 332 213 q 293 221 300 201 q 285 269 286 240 q 288 328 285 299 q 290 368 290 357 "},"m":{"ha":1033,"x_min":35,"x_max":993,"o":"m 369 747 q 392 737 385 747 q 403 713 400 726 q 408 686 407 700 q 408 665 408 672 q 405 503 408 578 q 401 340 401 428 q 401 284 401 319 q 401 209 400 249 q 408 129 403 169 q 425 56 413 89 q 458 3 438 24 q 510 -17 478 -17 q 565 1 543 -17 q 601 48 588 19 q 622 112 615 76 q 631 184 629 147 q 633 254 633 221 q 633 311 633 288 q 635 423 633 369 q 636 535 636 476 q 657 699 636 651 q 708 747 678 747 q 737 722 728 747 q 746 676 746 697 l 746 271 q 748 190 746 239 q 761 96 750 142 q 798 17 772 50 q 869 -17 824 -17 q 947 13 921 -17 q 983 86 972 43 q 993 177 993 129 q 993 261 993 225 l 993 622 q 992 694 993 658 q 988 765 992 729 q 928 933 975 875 q 794 990 882 990 q 714 975 746 990 q 661 942 682 960 q 626 910 640 925 q 597 894 613 894 q 568 910 583 894 q 535 942 553 925 q 494 975 517 960 q 442 990 471 990 q 373 975 400 990 q 328 942 346 960 q 301 910 311 925 q 285 894 292 894 q 273 908 276 894 q 263 939 269 922 q 240 969 256 956 q 193 983 225 983 q 127 962 154 983 q 83 906 100 940 q 56 829 65 872 q 43 743 47 786 q 38 661 39 700 q 38 594 38 622 q 36 451 38 524 q 36 310 35 378 q 43 182 38 242 q 64 78 49 122 q 105 8 79 33 q 172 -18 131 -18 q 242 4 218 -18 q 276 59 265 26 q 287 128 286 92 q 288 194 288 165 q 285 277 288 236 q 282 360 282 318 q 286 539 282 465 q 301 659 290 613 q 328 726 311 706 q 369 747 344 747 "},"n":{"ha":788,"x_min":38,"x_max":757,"o":"m 411 757 q 463 742 444 757 q 491 703 482 728 q 503 648 500 679 q 506 582 506 617 q 503 467 506 524 q 500 353 500 411 q 501 296 500 331 q 505 222 501 261 q 516 144 508 183 q 538 72 524 104 q 575 20 553 40 q 629 0 597 0 q 706 40 681 0 q 742 135 732 81 q 753 248 753 190 q 754 340 754 306 q 756 409 754 375 q 757 478 757 443 q 755 553 757 510 q 749 640 753 596 q 738 727 744 685 q 725 799 732 769 q 641 944 701 899 q 476 990 581 990 q 397 973 426 990 q 350 935 367 956 q 325 897 333 914 q 307 879 317 879 q 288 895 294 879 q 272 931 282 911 q 243 967 263 951 q 185 983 224 983 q 118 962 144 983 q 76 906 92 940 q 53 828 60 871 q 43 741 46 785 q 40 658 40 697 q 40 593 40 619 l 39 404 q 38 333 39 375 q 41 247 38 292 q 53 157 44 201 q 81 77 63 113 q 128 20 99 42 q 203 -1 158 -1 q 256 15 236 -1 q 284 58 275 32 q 295 113 293 83 q 297 167 297 142 q 294 255 297 211 q 292 343 292 299 q 324 649 292 542 q 411 757 357 757 "},"o":{"ha":854,"x_min":32,"x_max":822,"o":"m 822 503 q 808 690 822 601 q 751 847 793 779 q 633 953 708 914 q 435 993 557 993 q 279 972 344 993 q 169 913 214 950 q 98 825 125 875 q 56 719 71 775 q 37 603 42 663 q 32 485 32 543 q 44 286 32 378 q 98 128 57 194 q 217 23 139 61 q 425 -15 294 -15 q 627 26 550 -15 q 748 139 704 68 q 807 304 792 210 q 822 503 822 399 m 425 200 q 356 223 382 200 q 317 285 331 246 q 299 377 303 325 q 294 489 294 429 q 300 609 294 556 q 321 700 306 663 q 365 757 336 738 q 440 776 394 776 q 503 760 479 776 q 541 710 528 743 q 558 628 554 676 q 563 515 563 579 q 557 392 563 450 q 536 292 551 335 q 494 225 521 250 q 425 200 468 200 "},"p":{"ha":724,"x_min":33,"x_max":700,"o":"m 700 676 q 678 791 700 735 q 617 892 656 847 q 527 964 579 936 q 414 992 475 992 q 357 983 382 992 q 315 965 332 975 q 288 947 297 956 q 275 939 278 939 q 259 949 265 939 q 240 972 253 960 q 206 995 228 985 q 146 1006 185 1006 q 83 980 106 1006 q 49 917 60 954 q 35 840 38 881 q 33 771 33 800 q 33 676 33 735 q 35 547 33 617 q 39 404 36 478 q 48 265 42 331 q 64 150 54 200 q 89 76 74 100 q 135 22 111 43 q 203 0 160 0 q 272 28 250 0 q 301 96 294 56 q 307 180 308 136 q 306 254 306 224 q 318 291 306 278 q 350 304 331 304 q 412 308 378 304 q 478 324 446 313 q 572 381 531 344 q 641 466 613 418 q 685 568 669 514 q 700 676 700 622 m 338 492 q 313 507 321 492 q 302 542 306 522 q 299 583 299 563 q 299 614 299 603 q 303 657 299 628 q 318 715 308 686 q 342 766 328 744 q 375 788 357 788 q 413 778 397 788 q 438 754 428 769 q 452 721 447 739 q 457 683 457 703 q 453 620 457 654 q 435 558 449 586 q 399 510 422 529 q 338 492 375 492 "},"q":{"ha":747,"x_min":18,"x_max":722,"o":"m 18 632 q 42 486 18 546 q 105 389 65 426 q 195 334 144 351 q 300 317 246 317 q 358 313 336 317 q 392 305 379 310 q 408 293 404 300 q 413 278 413 286 q 408 253 413 264 q 388 242 403 242 l 301 242 q 262 215 275 242 q 249 149 249 189 q 265 83 249 108 q 315 58 282 58 l 415 58 q 433 49 433 58 q 433 28 433 40 q 460 -26 433 -8 q 528 -43 488 -43 q 565 -39 544 -43 q 603 -25 585 -35 q 633 -1 621 -15 q 646 32 644 13 q 651 51 647 43 q 667 58 654 58 q 710 80 699 58 q 722 143 722 101 q 715 213 722 183 q 678 242 707 242 q 667 265 665 242 q 668 325 668 288 q 669 442 668 381 q 672 559 671 503 q 673 661 672 615 q 674 731 674 707 q 673 813 674 768 q 661 898 672 858 q 625 964 650 938 q 551 990 600 990 q 503 980 521 990 q 476 957 486 969 q 463 934 467 944 q 451 924 458 924 q 435 932 446 924 q 405 950 424 940 q 360 968 386 960 q 301 976 335 976 q 190 953 242 976 q 101 887 139 931 q 40 778 63 843 q 18 632 18 714 m 347 504 q 306 518 322 504 q 279 553 289 532 q 265 600 269 575 q 261 647 261 625 q 281 733 261 700 q 335 767 300 767 q 376 752 358 767 q 407 717 394 738 q 426 673 419 696 q 432 633 432 650 q 429 603 432 625 q 418 560 426 582 q 393 522 410 539 q 347 504 376 504 "},"r":{"ha":549,"x_min":35,"x_max":538,"o":"m 175 983 q 110 963 136 983 q 69 908 85 942 q 46 831 53 874 q 37 747 39 789 q 35 665 35 704 q 36 599 36 626 q 35 457 36 529 q 37 316 35 385 q 47 187 39 247 q 71 81 54 126 q 116 10 88 36 q 188 -17 144 -17 q 252 10 229 -17 q 285 74 275 36 q 296 152 294 111 q 297 222 297 193 q 294 285 297 254 q 292 346 292 315 q 293 460 292 408 q 299 553 294 513 q 336 679 307 642 q 410 706 365 717 q 451 700 431 700 q 518 737 499 700 q 538 844 538 774 q 502 948 538 915 q 411 981 467 981 q 371 971 390 981 q 335 949 351 961 q 308 926 319 936 q 290 917 296 917 q 280 927 285 917 q 265 950 275 938 q 234 973 254 963 q 175 983 214 983 "},"s":{"ha":733,"x_min":31,"x_max":703,"o":"m 561 565 q 653 603 624 565 q 682 708 682 642 q 661 818 682 767 q 601 908 640 869 q 504 969 561 947 q 374 992 447 992 q 230 963 290 992 q 129 888 169 935 q 69 783 89 842 q 50 663 50 724 q 78 548 50 596 q 150 465 107 500 q 242 406 193 431 q 335 359 292 381 q 406 315 378 338 q 435 264 435 293 q 427 235 435 246 q 408 219 419 225 q 384 210 397 213 q 360 208 371 208 q 306 222 326 208 q 274 254 286 235 q 253 296 261 274 q 235 338 244 318 q 196 381 219 369 q 140 392 172 392 q 95 379 115 392 q 60 347 75 367 q 38 299 46 326 q 31 243 31 272 q 60 124 31 174 q 135 44 89 75 q 242 0 182 14 q 364 -14 301 -14 q 492 7 431 -14 q 600 67 553 28 q 675 165 647 107 q 703 296 703 222 q 673 406 703 360 q 599 485 643 451 q 502 543 554 519 q 406 588 450 567 q 331 631 361 610 q 301 678 301 651 q 322 749 301 724 q 382 775 342 775 q 410 768 394 775 q 438 746 425 761 q 458 708 450 731 q 467 651 467 685 q 489 590 467 615 q 561 565 511 565 "},"t":{"ha":661,"x_min":0,"x_max":642,"o":"m 351 324 q 348 440 351 382 q 356 557 344 499 q 375 578 358 576 q 403 579 383 579 q 445 579 422 579 q 490 579 468 579 q 525 579 511 579 q 559 590 544 579 q 584 618 574 601 q 600 653 594 635 q 606 688 606 672 q 583 758 606 732 q 524 783 560 783 q 495 783 514 783 q 457 783 476 783 q 419 782 438 782 q 392 782 401 782 q 371 793 376 782 q 365 820 365 804 q 366 853 364 836 q 368 879 368 869 q 334 960 368 933 q 251 988 300 988 q 209 983 232 988 q 167 967 186 978 q 136 938 149 956 q 124 897 124 921 q 124 840 124 869 q 121 782 124 810 q 113 771 119 771 q 97 771 106 771 q 28 742 56 771 q 0 664 0 713 q 16 594 0 614 q 57 575 32 575 l 78 575 q 101 570 92 575 q 110 544 110 565 q 108 475 110 506 q 106 417 107 444 q 103 359 104 389 q 101 289 101 329 q 168 58 101 143 q 365 -28 235 -28 q 474 -10 424 -28 q 561 44 524 7 q 620 138 599 81 q 642 274 642 194 q 607 356 642 325 q 522 388 572 388 q 468 369 490 388 q 443 322 446 350 q 439 280 442 301 q 431 241 436 258 q 419 213 426 224 q 397 203 411 203 q 370 217 379 203 q 357 252 361 232 q 352 292 353 272 q 351 324 351 313 "},"u":{"ha":819,"x_min":36,"x_max":781,"o":"m 668 -19 q 723 1 701 -19 q 757 53 744 22 q 774 119 769 83 q 778 185 778 154 l 781 749 q 777 823 781 782 q 759 901 774 864 q 715 962 744 938 q 633 986 686 986 q 548 951 581 986 q 515 850 515 917 q 519 710 515 779 q 524 569 524 640 q 522 517 524 550 q 517 445 521 483 q 503 368 513 407 q 481 298 494 329 q 445 247 467 267 q 394 228 424 228 q 341 244 361 228 q 310 290 321 260 q 297 363 300 321 q 293 458 293 406 q 296 603 293 531 q 299 747 299 675 q 294 822 299 782 q 276 898 290 863 q 235 957 263 933 q 163 981 208 981 q 96 949 121 981 q 58 870 71 917 q 42 772 46 824 q 39 681 39 721 q 38 652 39 668 q 38 606 38 636 q 37 527 38 576 q 36 399 36 478 q 50 238 36 315 q 99 99 64 160 q 196 2 135 39 q 353 -35 257 -35 q 453 -23 418 -35 q 504 2 488 -11 q 528 27 521 15 q 544 39 535 39 q 562 30 551 39 q 588 10 572 21 q 622 -10 603 -1 q 668 -19 642 -19 "},"v":{"ha":783,"x_min":17,"x_max":767,"o":"m 122 982 q 70 971 90 982 q 38 940 50 960 q 22 897 26 921 q 17 844 17 872 q 29 719 17 781 q 57 596 42 658 q 79 507 65 564 q 114 383 93 450 q 162 246 135 315 q 224 120 189 176 q 303 28 260 64 q 396 -8 346 -8 q 460 7 429 -8 q 540 83 501 26 q 613 214 579 139 q 676 376 647 289 q 724 547 704 464 q 756 700 744 629 q 767 813 767 771 q 763 895 767 858 q 747 957 760 932 q 708 995 733 982 q 636 1008 682 1008 q 574 994 596 1008 q 543 953 553 979 q 532 892 533 928 q 531 815 531 857 q 524 766 531 804 q 508 678 518 728 q 485 573 499 628 q 458 472 472 518 q 428 395 443 425 q 399 365 413 365 q 378 379 386 365 q 368 403 371 393 q 335 529 350 451 q 303 688 319 607 q 267 838 286 768 q 222 938 247 907 q 177 972 203 961 q 122 982 151 982 "},"w":{"ha":1117,"x_min":21,"x_max":1096,"o":"m 129 983 q 51 955 81 983 q 21 874 21 926 q 24 785 21 840 q 36 661 28 729 q 58 517 44 593 q 89 366 71 440 q 131 224 107 292 q 184 105 154 157 q 251 22 214 53 q 331 -8 288 -8 q 401 22 371 -8 q 455 96 432 51 q 494 193 478 140 q 520 290 510 246 q 537 365 531 335 q 547 394 543 394 q 559 365 551 394 q 580 290 567 335 q 611 193 593 246 q 654 96 629 140 q 712 22 679 51 q 785 -8 744 -8 q 840 1 811 -8 q 888 28 868 11 q 936 110 911 49 q 984 253 961 171 q 1028 430 1007 335 q 1063 613 1049 525 q 1087 771 1078 700 q 1096 878 1096 842 q 1064 959 1096 931 q 983 988 1032 988 q 929 966 950 988 q 894 906 908 944 q 867 813 879 868 q 843 692 856 758 q 832 644 840 679 q 813 571 824 608 q 791 504 803 533 q 768 475 779 475 q 747 501 757 475 q 726 572 736 528 q 705 672 715 615 q 685 789 694 728 q 644 924 669 875 q 561 974 618 974 q 519 960 536 974 q 490 922 501 946 q 470 866 478 897 q 457 799 463 835 q 432 665 446 726 q 404 558 418 603 q 377 488 390 513 q 356 463 364 463 q 340 469 346 463 q 330 483 333 475 q 324 500 326 492 q 322 511 322 508 q 310 583 315 547 q 297 656 304 619 q 286 720 293 676 q 270 810 279 764 q 249 894 261 856 q 222 946 236 933 q 179 973 203 963 q 129 983 156 983 "},"x":{"ha":792,"x_min":21,"x_max":771,"o":"m 675 -7 q 714 6 696 -7 q 744 38 732 18 q 764 81 757 57 q 771 128 771 104 q 740 253 771 196 q 672 356 710 311 q 604 431 635 400 q 574 476 574 463 q 601 523 574 488 q 662 612 629 558 q 722 732 694 665 q 750 869 750 799 q 717 956 750 924 q 631 989 685 989 q 567 969 590 989 q 532 919 544 949 q 513 856 519 890 q 497 793 506 822 q 482 750 493 778 q 455 695 471 722 q 421 648 439 668 q 385 628 403 628 q 344 649 363 628 q 313 698 326 669 q 290 756 299 726 q 278 801 281 785 q 265 869 272 835 q 244 929 258 903 q 203 972 229 956 q 135 989 178 989 q 52 953 83 989 q 21 858 21 917 q 51 695 21 767 q 116 573 81 624 q 181 490 151 522 q 211 446 211 458 q 183 395 211 432 q 120 310 154 358 q 58 208 86 263 q 29 104 29 154 q 54 22 29 58 q 129 -14 79 -14 q 196 10 167 -14 q 249 69 225 33 q 294 147 274 106 q 332 225 314 189 q 368 285 350 261 q 406 308 386 308 q 442 285 425 308 q 476 226 458 261 q 512 151 493 192 q 554 75 531 110 q 608 17 578 40 q 675 -7 638 -7 "},"y":{"ha":786,"x_min":31,"x_max":753,"o":"m 326 217 q 270 233 292 217 q 230 267 249 249 q 188 301 211 286 q 126 317 165 317 q 90 306 107 317 q 60 277 72 294 q 40 239 47 260 q 32 199 32 218 q 59 106 32 144 q 128 42 86 67 q 222 4 171 17 q 321 -8 274 -8 q 469 14 404 -8 q 584 74 535 36 q 667 164 633 113 q 721 274 701 215 q 749 410 744 340 q 753 551 753 481 q 751 647 753 600 q 749 742 749 693 q 744 823 749 779 q 726 903 740 867 q 681 963 711 939 q 601 988 651 988 q 542 972 565 988 q 506 930 519 956 q 488 874 493 904 q 483 814 483 843 q 486 712 483 763 q 489 610 489 661 q 478 570 489 588 q 451 540 468 553 q 414 521 435 528 q 374 514 393 514 q 317 532 339 514 q 285 576 296 550 q 272 635 275 603 q 268 693 268 667 q 270 758 268 725 q 272 822 272 790 q 273 881 272 853 q 265 932 274 910 q 233 967 256 954 q 165 981 211 981 q 90 956 117 981 q 49 894 63 932 q 33 811 36 857 q 31 722 31 765 q 31 695 31 713 q 31 659 31 678 q 32 623 32 640 q 32 594 32 606 q 56 481 32 528 q 122 403 81 433 q 219 360 164 374 q 335 346 274 346 q 389 352 363 346 q 443 358 415 358 q 463 353 453 358 q 474 324 474 347 q 465 291 474 310 q 437 256 456 272 q 391 228 418 239 q 326 217 364 217 "},"z":{"ha":831,"x_min":21,"x_max":810,"o":"m 744 511 q 731 552 744 536 q 692 568 717 568 q 680 569 688 568 q 664 571 672 569 q 650 575 656 572 q 644 582 644 578 q 656 608 644 592 q 686 647 668 625 q 726 692 704 668 q 765 740 747 717 q 795 786 783 764 q 807 825 807 808 q 765 926 807 892 q 643 967 722 960 q 545 974 596 971 q 448 977 494 976 q 361 978 401 978 q 296 978 321 978 q 224 978 265 978 q 146 969 183 978 q 83 938 108 960 q 57 872 57 917 q 72 806 57 832 q 112 765 88 781 q 165 744 136 750 q 221 739 194 739 q 244 740 224 739 q 291 740 264 740 q 349 740 318 740 q 407 738 381 740 q 451 732 433 736 q 468 721 468 728 q 450 696 468 715 q 409 654 432 676 q 364 614 386 632 q 335 592 342 596 q 292 581 318 581 q 207 582 265 582 q 173 574 189 582 q 145 552 157 565 q 126 523 133 539 q 119 490 119 507 q 133 451 119 471 q 161 431 146 431 q 190 427 179 431 q 199 414 201 424 q 183 394 197 410 q 150 354 169 378 q 108 302 131 331 q 65 244 85 274 q 33 187 46 215 q 21 136 21 158 q 47 60 21 89 q 110 18 72 32 q 192 0 149 4 q 272 -4 236 -4 q 334 -5 294 -4 q 417 -6 374 -6 q 499 -6 460 -6 q 561 -7 539 -7 q 635 -6 592 -7 q 717 6 678 -4 q 783 41 756 17 q 810 111 810 65 q 795 171 810 149 q 758 204 781 193 q 707 219 735 215 q 653 222 679 222 q 572 221 607 222 q 509 217 536 219 q 460 214 482 215 q 417 213 438 213 q 390 217 404 213 q 376 238 376 222 q 390 266 376 246 q 421 308 403 286 q 456 348 439 329 q 481 375 472 367 q 501 386 488 382 q 551 390 515 390 q 602 390 581 390 q 643 389 624 389 q 722 422 699 389 q 744 511 744 456 "},"{":{"ha":525,"x_min":65,"x_max":521,"o":"m 358 635 q 346 732 358 683 q 333 829 333 781 q 347 874 333 861 q 382 890 361 886 q 427 895 403 894 q 472 903 451 896 q 507 931 493 911 q 521 993 521 951 q 510 1048 521 1028 q 478 1079 499 1068 q 433 1094 458 1090 q 378 1097 407 1097 q 191 1035 254 1097 q 128 850 128 974 q 131 811 128 831 q 140 772 135 792 l 150 735 q 159 696 156 715 q 163 657 163 676 q 147 612 163 632 q 114 573 132 592 q 81 535 96 554 q 65 489 65 515 q 79 441 65 463 q 110 399 93 419 q 142 356 128 378 q 156 307 156 335 q 149 254 156 281 q 133 203 142 228 q 118 152 125 178 q 111 99 111 126 q 129 19 111 56 q 176 -44 147 -18 q 244 -85 206 -71 q 325 -100 283 -100 q 385 -94 357 -100 q 437 -73 414 -87 q 473 -35 460 -58 q 486 25 486 -11 q 474 76 486 60 q 442 97 461 92 q 401 104 424 103 q 360 112 379 106 q 329 133 342 118 q 317 182 317 149 q 322 229 317 206 q 334 276 328 253 q 346 322 340 299 q 351 369 351 344 q 341 419 351 399 q 318 454 331 440 q 295 478 306 468 q 285 493 285 488 q 297 510 285 500 q 322 538 308 521 q 347 578 335 554 q 358 635 358 601 "},"|":{"ha":447,"x_min":100,"x_max":350,"o":"m 100 960 q 101 767 100 863 q 103 574 103 671 l 103 488 q 104 294 103 390 q 106 101 106 199 q 110 -8 106 39 q 129 -85 115 -54 q 168 -133 143 -117 q 235 -149 193 -149 q 296 -131 275 -149 q 326 -81 317 -112 q 338 -8 336 -50 q 339 82 339 35 q 344 474 339 279 q 350 867 350 669 q 347 984 350 933 q 330 1069 343 1035 q 292 1121 317 1103 q 226 1139 268 1139 q 160 1121 185 1139 q 122 1076 135 1103 q 104 1017 108 1049 q 100 960 100 986 "},"}":{"ha":524,"x_min":31,"x_max":486,"o":"m 193 363 q 206 265 193 314 q 218 168 218 217 q 204 124 218 138 q 169 107 190 111 q 124 102 149 103 q 79 94 100 101 q 44 66 58 86 q 31 4 31 46 q 42 -51 31 -31 q 73 -82 53 -71 q 119 -97 93 -93 q 174 -100 144 -100 q 360 -38 297 -100 q 424 147 424 24 q 420 186 424 167 q 411 225 417 206 l 401 263 q 392 301 396 282 q 389 340 389 321 q 404 385 389 365 q 438 424 419 406 q 471 463 456 443 q 486 508 486 482 q 472 556 486 535 q 441 599 458 578 q 410 642 424 619 q 396 690 396 664 q 400 733 396 713 q 411 774 404 754 l 425 815 q 436 856 432 835 q 440 899 440 876 q 422 978 440 942 q 375 1042 404 1015 q 307 1083 346 1068 q 226 1097 268 1097 q 167 1091 196 1097 q 115 1070 138 1085 q 78 1032 92 1056 q 65 972 65 1008 q 78 922 65 938 q 109 900 90 906 q 150 893 128 894 q 191 885 172 892 q 222 865 210 879 q 235 815 235 850 q 229 768 235 792 q 217 722 224 744 q 206 676 211 699 q 200 628 200 653 q 210 578 200 599 q 233 543 221 557 q 256 520 246 529 q 267 504 267 511 q 255 488 267 499 q 230 460 243 476 q 205 419 217 443 q 193 363 193 396 "},"~":{"ha":751,"x_min":107,"x_max":649,"o":"m 290 403 q 335 392 314 403 q 378 367 356 381 q 424 343 400 354 q 479 332 449 332 q 538 344 508 332 q 593 378 568 357 q 633 428 618 399 q 649 490 649 457 q 619 557 649 531 q 549 583 589 583 q 510 573 522 583 q 490 551 497 563 q 474 528 482 539 q 447 518 465 518 q 396 529 418 518 q 353 554 374 540 q 309 579 332 568 q 254 590 286 590 q 199 578 225 590 q 152 544 172 565 q 119 496 132 524 q 107 436 107 468 q 137 368 107 396 q 206 340 167 340 q 243 350 231 340 q 263 372 256 360 q 275 393 269 383 q 290 403 281 403 "},"":{"ha":451,"x_min":67,"x_max":351,"o":"m 333 732 q 295 816 333 788 q 211 844 257 844 q 167 837 189 844 q 128 815 146 829 q 101 781 111 801 q 90 732 90 760 q 101 688 90 708 q 128 653 111 668 q 165 629 144 638 q 206 621 185 621 q 253 626 231 621 q 294 645 276 632 q 322 680 311 658 q 333 732 333 701 m 92 401 q 88 315 92 363 q 79 215 83 267 q 71 107 75 163 q 67 -3 67 51 q 93 -120 67 -78 q 197 -162 119 -162 q 316 -117 281 -162 q 351 0 351 -71 q 341 205 351 101 q 331 410 331 308 q 328 481 331 446 q 315 542 326 515 q 282 587 304 569 q 218 604 260 604 q 128 558 165 604 q 92 401 92 511 "},"":{"ha":849,"x_min":28,"x_max":821,"o":"m 454 -149 q 503 -135 486 -149 q 529 -102 521 -122 q 540 -58 538 -82 q 547 -13 543 -35 q 558 25 550 8 q 585 46 567 42 q 658 74 618 54 q 731 122 697 93 q 787 188 764 151 q 810 268 810 225 q 774 333 810 314 q 693 353 739 353 q 647 335 667 353 q 610 298 626 318 q 581 261 594 278 q 556 244 568 244 q 554 250 554 246 q 548 473 554 363 q 547 688 542 583 q 556 708 549 700 q 567 717 563 717 q 588 705 574 717 q 603 657 601 693 q 611 601 604 631 q 632 549 618 572 q 667 509 646 525 q 718 493 689 493 q 767 506 747 493 q 799 540 788 518 q 816 589 811 561 q 821 646 821 617 q 806 756 821 710 q 763 838 792 803 q 690 896 733 872 q 592 938 647 919 q 565 960 574 943 q 549 1000 556 978 q 537 1047 543 1022 q 519 1092 531 1071 q 485 1126 507 1113 q 428 1139 464 1139 q 371 1119 392 1139 q 340 1069 350 1099 q 327 1007 329 1040 q 325 947 325 974 q 312 938 325 944 q 281 925 299 932 q 248 912 264 918 q 225 901 232 906 q 130 823 168 868 q 69 724 92 778 q 37 609 46 669 q 28 486 28 549 q 37 365 28 425 q 68 252 46 306 q 128 155 90 199 q 226 82 167 111 q 262 68 243 74 q 299 56 281 63 q 335 13 326 46 q 353 -56 343 -19 q 383 -120 363 -92 q 454 -149 403 -149 m 331 636 l 331 343 q 328 280 331 299 q 314 261 326 261 q 285 280 300 261 q 256 329 269 299 q 235 398 243 360 q 226 475 226 436 q 233 556 226 514 q 251 633 240 599 q 277 690 263 668 q 306 713 292 713 q 324 695 317 713 q 331 636 331 678 "},"":{"ha":710,"x_min":4,"x_max":678,"o":"m 403 338 q 513 357 479 338 q 547 432 547 376 q 539 476 547 460 q 515 499 531 492 q 475 509 499 507 q 421 511 451 511 q 356 540 385 511 q 343 571 347 549 q 337 619 339 593 q 335 672 335 646 q 335 714 335 699 q 336 745 335 731 q 343 771 338 760 q 360 789 349 782 q 393 796 372 796 q 438 769 426 796 q 449 706 449 743 q 457 670 449 688 q 478 639 465 653 q 506 617 490 625 q 536 610 521 610 q 619 642 583 610 q 656 728 656 675 q 634 854 656 804 q 573 934 613 904 q 476 976 533 964 q 349 988 419 988 q 146 922 218 988 q 74 726 74 856 q 80 642 74 679 q 97 560 86 606 q 100 547 100 554 q 53 508 100 508 q 19 481 35 508 q 4 418 4 454 q 20 362 4 382 q 54 342 36 342 q 80 330 75 342 q 85 299 85 318 q 81 273 85 296 q 73 222 78 250 q 63 169 68 194 q 54 135 57 143 q 44 108 49 119 q 39 82 39 97 q 56 25 39 50 q 107 0 72 0 l 599 0 q 660 26 642 0 q 678 99 678 51 q 672 141 678 119 q 651 181 665 163 q 615 210 638 199 q 560 221 592 221 q 501 219 531 221 q 444 213 471 217 q 394 208 417 210 q 358 206 372 206 q 333 214 344 206 q 322 238 322 222 q 326 280 322 261 q 332 322 329 299 q 342 334 333 331 q 363 338 351 338 q 385 338 374 339 q 403 338 397 338 "},"":{"ha":856,"x_min":42,"x_max":803,"o":"m 707 -6 q 756 15 738 -6 q 774 71 774 36 q 765 117 774 96 q 744 156 756 139 q 723 186 732 172 q 714 211 714 200 q 728 242 714 219 q 758 302 742 265 q 789 389 775 339 q 803 499 803 439 q 788 606 803 560 q 757 686 774 653 q 726 740 740 719 q 711 771 711 761 q 721 797 711 782 q 742 829 731 811 q 764 869 754 847 q 774 915 774 890 q 755 969 774 949 q 707 990 736 990 q 665 978 686 990 q 624 947 644 965 q 587 908 604 928 q 556 871 569 888 q 549 868 553 868 q 432 886 490 886 q 354 877 390 886 q 276 860 318 868 q 274 861 276 860 q 242 901 260 879 q 203 944 224 924 q 160 977 182 964 q 117 990 139 990 q 70 969 89 990 q 51 915 51 949 q 63 865 51 888 q 86 822 74 842 q 110 787 99 803 q 121 756 121 771 q 108 720 121 742 q 81 667 96 699 q 54 589 67 635 q 42 479 42 543 q 53 380 42 424 q 79 304 65 336 q 105 252 93 272 q 117 221 117 232 q 106 192 117 207 q 84 158 96 176 q 62 119 72 140 q 51 71 51 97 q 70 15 51 36 q 117 -6 89 -6 q 172 10 144 -6 q 213 54 199 26 q 247 101 231 88 q 272 111 263 114 q 342 94 308 104 q 411 85 375 85 q 483 96 447 85 q 550 107 518 107 q 578 90 563 107 q 613 51 593 72 q 656 12 632 29 q 707 -6 679 -6 m 257 469 q 267 553 257 514 q 299 621 278 592 q 351 667 319 650 q 422 683 382 683 q 535 633 492 683 q 579 499 579 583 q 536 351 579 407 q 417 296 493 296 q 301 339 346 296 q 257 469 257 382 "},"":{"ha":732,"x_min":7,"x_max":722,"o":"m 74 449 q 90 392 74 411 q 130 363 106 372 q 183 349 154 353 q 240 342 213 346 q 246 334 246 340 q 242 325 246 328 q 228 321 235 321 q 213 321 221 321 q 171 319 193 321 q 130 311 149 318 q 99 290 111 304 q 88 249 88 275 q 97 199 88 225 q 125 158 107 174 q 149 154 129 154 q 190 153 168 154 q 228 150 211 153 q 247 139 246 147 q 257 100 250 124 q 278 54 264 76 q 313 16 292 32 q 365 0 335 0 q 419 12 397 0 q 454 43 440 24 q 476 88 468 63 q 489 142 485 114 q 519 154 490 149 q 581 169 547 160 q 642 194 614 179 q 669 231 669 208 q 654 287 669 268 q 615 314 639 306 q 563 322 592 322 q 506 322 533 322 q 497 324 503 322 q 492 328 492 325 l 492 335 q 517 355 492 350 q 574 366 543 360 q 631 385 606 372 q 657 432 657 399 q 656 461 657 444 q 650 493 654 478 q 638 519 646 508 q 618 529 631 529 q 577 532 586 529 q 568 547 568 535 q 579 578 568 556 q 608 630 590 600 q 645 694 625 660 q 683 762 665 728 q 711 827 700 796 q 722 881 722 858 q 688 958 722 928 q 599 988 653 988 q 540 963 567 988 q 491 902 513 939 q 452 822 469 865 q 420 742 435 779 q 394 681 406 706 q 372 657 383 657 q 348 681 361 657 q 318 742 335 706 q 282 819 301 778 q 240 897 263 861 q 192 958 217 933 q 139 982 167 982 q 47 948 86 982 q 7 839 7 914 q 22 782 7 815 q 61 710 38 749 q 113 630 85 672 q 165 547 140 588 q 162 542 168 543 q 151 540 156 540 q 121 532 135 540 q 97 510 107 524 q 80 481 86 497 q 74 449 74 465 "},"":{"ha":451,"x_min":107,"x_max":342,"o":"m 107 960 l 107 806 q 108 728 107 767 q 110 651 110 690 q 138 573 110 604 q 215 542 167 542 q 292 562 267 542 q 329 614 318 582 q 341 684 340 646 q 342 760 342 722 l 342 872 q 339 992 342 942 q 324 1074 336 1042 q 289 1123 313 1107 q 222 1139 265 1139 q 159 1121 182 1139 q 124 1076 136 1103 q 110 1017 113 1049 q 107 960 107 986 m 235 -149 q 293 -127 274 -149 q 321 -75 313 -106 q 330 -9 329 -44 q 332 53 331 26 q 335 162 335 107 q 336 271 336 217 q 334 334 336 307 q 321 381 332 361 q 287 410 310 400 q 222 419 264 419 q 151 399 175 419 q 119 347 128 378 q 111 278 111 315 q 111 207 111 240 l 110 72 q 110 -4 110 35 q 122 -75 111 -43 q 159 -128 133 -107 q 235 -149 185 -149 "},"":{"ha":797,"x_min":38,"x_max":742,"o":"m 503 647 q 365 700 417 674 q 314 753 314 726 q 338 794 314 782 q 388 807 363 807 q 419 801 406 807 q 442 786 432 796 q 462 764 453 776 q 481 739 471 751 q 502 713 492 724 q 525 694 513 701 q 553 684 538 688 q 592 682 569 681 q 669 706 642 685 q 696 785 696 726 q 663 883 696 842 q 581 951 631 924 q 476 992 532 979 q 374 1006 419 1006 q 259 990 318 1006 q 151 942 200 974 q 72 863 103 911 q 40 751 40 815 q 56 688 40 717 q 78 635 72 658 q 75 608 81 621 q 62 580 69 594 q 47 549 54 565 q 40 514 40 533 q 73 398 40 444 q 154 321 106 351 q 260 272 203 290 q 367 238 318 253 q 448 206 415 222 q 481 167 481 190 q 471 147 481 154 q 448 137 461 140 q 420 133 435 133 q 397 132 406 132 q 324 143 354 132 q 273 171 293 154 q 240 208 253 188 q 218 249 226 229 q 192 288 208 269 q 144 306 175 306 q 95 294 115 306 q 63 263 75 282 q 44 220 50 244 q 38 171 38 196 q 71 58 38 104 q 155 -15 104 13 q 266 -55 206 -43 q 382 -67 326 -67 q 497 -56 435 -67 q 612 -19 558 -44 q 701 44 665 6 q 738 138 738 83 q 730 202 738 181 q 713 235 722 224 q 695 254 703 247 q 688 274 688 261 q 696 294 688 285 q 715 317 704 304 q 733 346 725 329 q 742 388 742 363 q 719 503 742 458 q 663 575 697 547 q 587 619 629 603 q 503 647 544 635 m 524 414 q 515 387 524 394 q 492 379 507 379 q 447 390 481 379 q 376 417 413 400 q 310 455 339 433 q 282 499 282 476 q 284 511 282 503 q 297 517 286 519 q 344 504 307 515 q 420 477 381 493 q 492 444 460 461 q 524 414 524 428 "},"":{"ha":588,"x_min":46,"x_max":543,"o":"m 46 1108 q 82 1033 46 1060 q 164 1007 118 1007 q 244 1034 208 1007 q 281 1108 281 1061 q 271 1151 281 1132 q 244 1183 261 1169 q 207 1203 228 1196 q 164 1210 186 1210 q 120 1203 142 1210 q 82 1183 99 1196 q 56 1152 65 1171 q 46 1108 46 1133 m 308 1108 q 344 1033 308 1060 q 426 1007 381 1007 q 507 1034 471 1007 q 543 1108 543 1061 q 533 1151 543 1132 q 507 1183 524 1169 q 469 1203 490 1196 q 426 1210 449 1210 q 383 1203 404 1210 q 344 1183 361 1196 q 318 1152 328 1171 q 308 1108 308 1133 "},"":{"ha":999,"x_min":28,"x_max":971,"o":"m 28 475 q 57 272 28 363 q 144 118 86 182 q 290 19 203 54 q 492 -15 376 -15 q 703 22 613 -15 q 852 128 793 60 q 941 292 911 196 q 971 503 971 388 q 944 703 971 614 q 863 856 918 792 q 722 953 807 919 q 522 988 638 988 q 310 951 403 988 q 156 849 218 915 q 60 687 93 782 q 28 475 28 592 m 838 501 q 818 349 838 421 q 758 222 799 276 q 653 136 717 168 q 500 104 589 104 q 354 133 417 104 q 249 211 292 161 q 186 328 207 261 q 165 475 165 396 q 187 633 165 561 q 253 756 208 704 q 364 835 297 807 q 522 864 431 864 q 665 836 606 864 q 763 759 725 808 q 819 644 801 710 q 838 501 838 578 m 503 335 q 474 347 485 335 q 458 375 463 358 q 451 410 453 392 q 450 442 450 428 q 451 492 450 460 q 459 554 453 524 q 480 607 465 585 q 521 629 494 629 q 531 627 525 629 q 544 614 536 625 q 559 590 551 606 q 576 558 567 574 q 599 531 585 542 q 632 519 613 519 q 699 553 676 519 q 722 626 722 586 q 705 701 722 668 q 659 755 688 733 q 594 788 631 776 q 518 799 557 799 q 398 771 449 799 q 315 698 347 743 q 266 594 282 653 q 250 474 250 536 q 265 360 250 415 q 312 264 281 306 q 391 197 343 222 q 503 171 439 171 q 578 183 540 171 q 646 217 615 194 q 695 273 676 240 q 714 347 714 306 q 694 409 714 383 q 636 435 674 435 q 586 419 601 435 q 561 385 571 404 q 541 351 551 367 q 503 335 531 335 "},"":{"ha":589,"x_min":42,"x_max":546,"o":"m 453 488 q 515 510 490 488 q 543 568 540 532 q 546 696 546 632 q 546 825 546 760 q 533 944 546 890 q 490 1038 521 999 q 410 1098 460 1076 q 286 1119 360 1119 q 227 1115 261 1119 q 163 1099 193 1111 q 113 1065 133 1086 q 92 1010 92 1043 q 115 963 92 983 q 161 942 139 942 q 221 945 194 942 q 281 949 247 949 q 338 941 317 949 q 360 907 360 933 q 356 903 360 904 q 346 910 353 903 q 322 922 336 917 q 281 926 307 926 q 187 913 231 926 q 110 871 143 899 q 60 800 78 843 q 42 700 42 757 q 58 620 42 657 q 101 556 74 583 q 167 512 129 528 q 249 496 204 496 q 298 505 278 496 q 333 526 318 514 q 356 547 347 538 q 368 556 364 556 q 380 543 378 556 q 383 525 382 531 q 410 493 389 499 q 453 488 432 488 m 372 729 q 351 678 372 699 q 288 657 329 657 q 235 671 254 657 q 217 714 217 685 q 237 776 217 754 q 301 797 257 797 q 358 786 343 797 q 372 729 372 775 m 60 385 q 72 347 60 361 q 103 326 85 333 q 143 315 122 318 q 182 313 164 313 q 243 314 213 313 q 304 315 274 315 q 415 314 369 315 q 488 318 460 313 q 530 340 517 324 q 543 390 543 356 q 519 447 543 428 q 465 465 494 465 l 158 468 q 86 451 113 468 q 60 385 60 433 "},"":{"ha":758,"x_min":42,"x_max":701,"o":"m 294 185 q 325 192 310 185 q 353 214 340 200 q 373 247 365 228 q 381 288 381 265 q 363 349 381 321 q 322 401 344 378 q 282 444 300 425 q 264 479 264 464 q 284 513 264 493 q 329 559 304 533 q 374 614 354 585 q 394 675 394 643 q 387 710 394 694 q 367 738 379 726 q 342 756 356 749 q 315 763 328 763 q 281 752 296 763 q 251 726 267 742 l 88 571 q 53 526 64 549 q 42 464 42 504 q 57 419 42 438 l 232 224 q 260 197 246 208 q 294 185 275 185 m 601 185 q 632 192 617 185 q 660 214 647 200 q 680 247 672 228 q 688 288 688 265 q 669 349 688 321 q 629 401 651 378 q 589 444 607 425 q 571 479 571 464 q 591 513 571 493 q 636 559 611 533 q 681 614 661 585 q 701 675 701 643 q 694 710 701 694 q 674 738 686 726 q 649 756 663 749 q 622 763 635 763 q 588 752 603 763 q 558 726 574 742 l 394 571 q 360 526 371 549 q 349 464 349 504 q 364 419 349 438 l 539 224 q 567 197 553 208 q 601 185 582 185 "},"":{"ha":738,"x_min":42,"x_max":704,"o":"m 618 344 q 664 355 647 344 q 690 383 681 365 q 701 424 699 401 q 704 472 704 447 q 590 667 704 667 l 108 664 q 78 651 90 664 q 57 619 65 638 q 45 580 49 600 q 42 544 42 560 q 53 503 42 518 q 84 480 64 488 q 132 471 104 472 q 192 469 160 469 q 252 469 215 469 q 326 469 289 469 q 394 468 363 468 q 435 468 425 468 q 488 465 468 468 q 517 458 507 463 q 531 445 528 453 q 535 426 535 438 q 538 401 535 415 q 551 374 542 386 q 576 353 560 361 q 618 344 592 344 "},"":{"ha":999,"x_min":28,"x_max":971,"o":"m 28 475 q 57 272 28 363 q 144 117 86 181 q 290 19 203 54 q 492 -15 376 -15 q 703 22 613 -15 q 852 128 793 60 q 941 292 911 196 q 971 503 971 388 q 944 703 971 614 q 863 856 918 793 q 722 953 807 919 q 522 988 638 988 q 310 951 403 988 q 156 849 218 915 q 60 687 93 782 q 28 475 28 592 m 838 501 q 818 349 838 421 q 758 222 799 276 q 653 136 717 168 q 500 104 589 104 q 354 133 417 104 q 249 211 292 161 q 186 328 207 261 q 165 475 165 396 q 187 633 165 561 q 253 756 208 704 q 364 835 297 807 q 522 864 431 864 q 665 836 606 864 q 763 760 725 808 q 819 645 801 711 q 838 501 838 579 m 479 339 q 517 300 496 322 q 560 258 538 278 q 608 224 583 238 q 657 210 632 210 q 719 233 692 210 q 747 292 747 256 q 733 328 747 310 q 699 364 719 347 q 658 394 679 381 q 624 415 638 407 q 704 492 672 443 q 736 600 736 542 q 708 687 736 653 q 639 740 681 721 q 549 765 597 758 q 458 772 500 772 q 365 765 399 772 q 313 739 331 758 q 291 685 296 719 q 286 594 286 650 q 285 494 286 544 q 283 394 283 444 q 285 336 283 369 q 297 274 288 303 q 326 224 307 244 q 381 203 346 203 q 429 215 410 203 q 460 246 449 226 q 475 290 471 265 q 479 339 479 314 m 476 518 l 482 625 q 492 636 482 635 q 513 633 501 638 q 533 618 524 628 q 542 597 542 608 q 531 568 542 586 q 508 535 521 550 q 486 514 496 521 q 476 518 476 507 "},"":{"ha":542,"x_min":31,"x_max":511,"o":"m 135 1038 l 360 1038 q 407 1040 381 1038 q 456 1051 433 1042 q 495 1078 479 1060 q 511 1126 511 1096 q 499 1169 511 1154 q 469 1190 488 1183 q 431 1199 451 1197 q 390 1200 410 1200 l 135 1200 q 97 1197 115 1200 q 63 1186 78 1194 q 40 1161 49 1178 q 31 1117 31 1144 q 40 1078 31 1093 q 65 1053 50 1063 q 99 1041 81 1044 q 135 1038 117 1038 "},"":{"ha":497,"x_min":49,"x_max":449,"o":"m 49 821 q 64 745 49 779 q 106 688 79 711 q 167 651 132 664 q 243 639 203 639 q 324 653 286 639 q 389 692 361 667 q 433 752 417 717 q 449 831 449 788 q 433 906 449 872 q 391 962 418 939 q 328 997 364 985 q 253 1010 293 1010 q 174 997 211 1010 q 108 959 136 983 q 65 900 81 935 q 49 821 49 865 m 208 831 q 220 861 208 853 q 251 869 232 869 q 283 860 275 869 q 290 828 290 850 q 281 797 290 808 q 250 786 271 786 q 217 797 226 786 q 208 831 208 807 "},"":{"ha":668,"x_min":39,"x_max":628,"o":"m 446 786 q 437 815 446 803 q 414 835 428 828 q 384 847 400 843 q 353 850 368 850 q 269 822 290 850 q 247 760 247 793 q 242 694 247 717 q 208 672 238 672 q 163 673 185 672 q 117 674 140 674 q 61 644 81 674 q 42 582 42 615 q 60 525 42 543 q 106 501 79 507 q 165 494 133 494 q 221 489 196 493 q 238 483 229 488 q 247 453 247 478 q 250 410 247 433 q 262 365 253 386 q 289 331 271 344 q 338 317 307 317 q 406 333 383 317 q 436 372 428 349 q 444 422 444 396 q 443 468 443 449 q 465 483 443 483 q 531 486 501 483 q 582 499 561 489 q 614 528 603 510 q 625 578 625 547 q 605 652 625 631 q 544 674 585 674 q 508 674 526 674 q 476 678 490 675 q 453 688 461 681 q 444 708 444 694 q 445 747 444 729 q 446 786 446 764 m 39 207 q 47 164 39 183 q 76 132 56 144 q 126 122 88 125 q 209 116 164 118 q 295 113 254 114 q 353 113 336 113 l 425 113 q 508 115 471 113 q 572 126 546 118 q 613 151 599 135 q 628 197 628 168 q 603 270 628 246 q 533 294 578 294 l 114 299 q 58 269 78 299 q 39 207 39 240 "},"":{"ha":586,"x_min":63,"x_max":518,"o":"m 513 968 q 455 1124 513 1076 q 289 1171 397 1171 q 199 1160 240 1171 q 128 1127 158 1150 q 82 1069 99 1104 q 65 985 65 1033 q 81 918 65 949 q 139 888 96 888 q 194 903 172 888 q 219 944 215 919 q 242 988 225 972 q 283 1004 260 1004 q 308 995 300 1004 q 317 972 317 986 q 298 921 317 947 q 251 868 279 894 q 190 815 222 842 q 128 763 157 789 q 81 710 100 736 q 63 657 63 683 q 81 594 63 617 q 129 560 100 571 q 192 548 158 550 q 257 546 226 546 l 372 546 q 418 548 393 546 q 465 558 443 550 q 503 583 488 567 q 518 626 518 599 q 500 672 518 656 q 456 697 482 689 q 401 707 429 706 q 351 708 372 708 q 343 708 350 708 q 328 708 336 708 q 315 709 321 708 q 308 711 308 710 q 319 728 308 718 q 347 749 331 738 q 381 773 364 761 q 411 794 399 785 q 483 870 454 829 q 513 968 513 911 "},"":{"ha":575,"x_min":65,"x_max":506,"o":"m 139 781 q 82 756 99 781 q 65 697 65 731 q 85 626 65 657 q 134 574 104 594 q 200 542 164 553 q 271 532 236 532 q 352 546 311 532 q 428 585 393 560 q 484 646 463 610 q 506 726 506 682 q 492 785 506 763 q 463 822 479 808 q 434 842 447 835 q 421 856 421 850 q 433 868 421 861 q 462 888 446 875 q 490 922 478 900 q 503 978 503 943 q 491 1069 503 1033 q 453 1126 479 1106 q 385 1155 426 1147 q 282 1163 343 1163 q 208 1151 244 1163 q 142 1116 171 1139 q 96 1060 114 1093 q 78 985 78 1028 q 92 930 78 953 q 144 907 106 907 q 197 924 179 907 q 222 967 215 942 q 274 1013 235 1013 q 304 999 296 1013 q 313 968 313 986 q 254 911 313 911 q 240 910 250 911 q 219 902 231 908 q 200 883 208 896 q 192 847 192 871 q 211 800 192 813 q 258 788 231 788 q 301 776 283 788 q 318 733 318 765 q 307 699 318 710 q 268 688 296 688 q 224 699 239 688 q 206 732 210 711 q 185 767 200 753 q 139 781 169 781 "},"":{"ha":463,"x_min":68,"x_max":379,"o":"m 285 1060 q 344 1099 315 1079 q 376 1151 374 1119 q 371 1192 379 1174 q 348 1222 363 1210 q 314 1238 333 1233 q 274 1240 294 1243 q 216 1216 251 1236 q 148 1167 181 1196 q 92 1108 115 1139 q 68 1053 68 1078 q 84 1009 68 1028 q 126 990 100 990 q 165 998 143 990 q 208 1016 186 1006 q 251 1039 231 1026 q 285 1060 271 1051 "},"":{"ha":922,"x_min":46,"x_max":865,"o":"m 381 -11 q 413 -86 381 -68 q 494 -104 444 -104 q 539 -85 521 -104 q 569 -34 557 -65 q 587 35 581 -3 q 596 108 593 72 q 599 175 599 144 q 600 221 600 206 q 600 427 600 325 q 606 633 600 529 q 607 660 606 639 q 610 705 608 682 q 617 747 613 728 q 628 765 622 765 q 644 742 639 765 q 651 688 649 718 q 653 631 653 658 q 653 597 653 604 q 650 409 653 503 q 647 221 647 315 q 647 177 647 207 q 649 110 647 147 q 655 35 650 74 q 670 -35 660 -3 q 697 -87 681 -67 q 738 -107 713 -107 q 794 -93 771 -107 q 834 -57 818 -79 q 857 -6 850 -35 q 864 51 864 22 q 865 287 864 169 q 865 522 865 404 l 865 674 q 863 805 865 747 q 850 902 861 863 q 815 962 839 942 q 747 982 792 982 q 678 983 713 982 q 610 985 644 985 q 554 983 582 985 q 499 982 526 982 q 325 958 407 982 q 181 885 243 935 q 83 757 119 835 q 46 571 46 679 q 61 428 46 486 q 111 326 76 369 q 203 253 146 283 q 344 194 261 222 q 374 179 364 188 q 383 149 383 171 q 382 69 383 108 q 381 -11 381 29 "},"":{"ha":471,"x_min":76,"x_max":394,"o":"m 76 501 q 90 434 76 463 q 126 386 104 406 q 177 357 149 367 q 236 347 206 347 q 294 357 265 347 q 344 386 322 367 q 381 435 367 406 q 394 501 394 464 q 381 567 394 539 q 344 615 367 596 q 294 644 322 635 q 236 654 265 654 q 178 644 207 654 q 126 615 149 635 q 90 567 104 596 q 76 501 76 539 "},"":{"ha":453,"x_min":104,"x_max":385,"o":"m 104 -208 q 114 -245 104 -229 q 139 -272 124 -261 q 173 -289 154 -283 q 210 -294 192 -294 q 274 -282 243 -294 q 331 -247 306 -269 q 370 -195 356 -225 q 385 -131 385 -165 q 371 -73 385 -93 q 340 -42 357 -53 q 306 -23 322 -31 q 286 0 290 -15 q 287 17 283 8 q 290 33 290 25 q 275 72 290 57 q 236 86 260 86 q 188 74 210 86 q 152 43 167 63 q 129 0 138 24 q 121 -49 121 -24 q 131 -73 121 -65 q 156 -86 142 -81 q 188 -98 171 -92 q 219 -118 206 -104 q 222 -124 221 -119 q 224 -131 224 -129 q 221 -137 224 -132 q 217 -142 218 -142 q 177 -147 197 -146 q 141 -153 157 -147 q 115 -170 125 -158 q 104 -208 104 -182 "},"":{"ha":479,"x_min":74,"x_max":414,"o":"m 85 615 q 97 578 85 593 q 128 556 110 564 q 168 544 147 547 q 207 542 189 542 l 242 542 q 291 543 261 542 q 348 552 321 544 q 394 575 375 560 q 414 619 414 590 q 405 659 414 642 q 375 676 396 676 q 360 691 364 676 q 357 721 356 706 q 359 764 358 743 q 360 807 360 785 l 360 874 q 358 1010 360 956 q 347 1099 357 1065 q 311 1147 336 1132 q 239 1161 286 1161 q 183 1146 213 1161 q 130 1107 154 1131 q 90 1054 106 1083 q 74 997 74 1025 q 88 947 74 968 q 122 925 103 925 q 138 931 128 925 q 151 944 147 938 q 164 957 160 957 q 168 949 168 957 q 168 936 168 942 l 161 729 q 156 700 160 714 q 138 686 151 686 q 95 665 106 686 q 85 615 85 644 "},"":{"ha":583,"x_min":49,"x_max":535,"o":"m 535 815 q 526 931 535 876 q 490 1026 517 985 q 417 1092 464 1068 q 296 1117 371 1117 q 164 1088 213 1117 q 90 1013 115 1058 q 56 913 64 968 q 49 804 49 857 q 56 683 49 739 q 89 585 64 626 q 162 519 114 543 q 290 496 210 496 q 415 522 367 496 q 489 591 463 547 q 525 693 515 635 q 535 815 535 751 m 290 656 q 255 667 268 656 q 235 700 242 679 q 226 748 228 721 q 224 806 224 775 q 238 915 224 875 q 299 956 251 956 q 351 921 339 956 q 363 819 363 886 q 360 756 363 786 q 349 704 357 726 q 326 669 340 682 q 290 656 313 656 m 51 385 q 64 347 51 361 q 95 326 76 333 q 135 315 114 318 q 174 313 156 313 q 235 314 204 313 q 296 315 265 315 q 406 314 361 315 q 480 318 451 313 q 522 340 508 324 q 535 390 535 356 q 510 447 535 428 q 457 465 486 465 l 150 468 q 78 451 104 468 q 51 385 51 433 "},"":{"ha":764,"x_min":42,"x_max":701,"o":"m 449 763 q 419 755 435 763 q 392 733 404 747 q 371 701 379 719 q 363 660 363 682 q 381 598 363 626 q 421 546 399 569 q 461 503 443 522 q 479 468 479 483 q 459 434 479 454 q 414 388 439 414 q 369 333 389 363 q 349 272 349 304 q 356 238 349 254 q 376 210 364 221 q 401 192 388 199 q 428 185 415 185 q 462 195 447 185 q 492 221 476 206 l 656 376 q 690 421 679 399 q 701 483 701 443 q 686 528 701 510 l 511 724 q 483 751 497 739 q 449 763 468 763 m 142 763 q 113 755 128 763 q 85 733 97 747 q 64 701 72 719 q 56 660 56 682 q 74 598 56 626 q 114 546 92 569 q 154 503 136 522 q 172 468 172 483 q 152 434 172 454 q 107 388 132 414 q 62 333 82 363 q 42 272 42 304 q 49 238 42 254 q 69 210 57 221 q 94 192 81 199 q 121 185 108 185 q 155 195 140 185 q 185 221 169 206 l 349 376 q 383 421 372 399 q 394 483 394 443 q 379 528 394 510 l 204 724 q 176 751 190 739 q 142 763 161 763 "},"":{"ha":1222,"x_min":78,"x_max":1179,"o":"m 424 -28 q 458 -18 442 -28 q 488 6 474 -8 q 512 36 501 19 q 531 67 522 53 q 624 265 583 163 q 708 468 665 368 q 787 635 744 553 q 857 806 829 718 q 870 853 864 829 q 876 903 876 878 q 854 965 876 943 q 792 988 832 988 q 756 980 772 988 q 724 961 739 972 q 684 914 707 950 q 636 828 661 878 q 585 721 611 778 q 535 610 558 664 q 494 511 513 556 q 467 443 476 467 q 403 300 438 371 q 346 154 369 229 q 335 114 339 135 q 332 72 332 93 q 356 1 332 29 q 424 -28 379 -28 m 86 442 q 99 405 86 419 q 129 382 111 390 q 169 371 147 374 q 207 368 190 368 l 243 368 q 293 369 264 368 q 349 378 322 371 q 396 401 376 386 q 415 446 415 417 q 415 469 415 456 q 410 494 414 482 q 400 516 407 507 q 381 525 393 525 q 361 529 365 525 q 358 553 357 533 q 360 597 360 575 q 361 642 361 618 q 362 812 361 744 q 353 918 363 879 q 317 972 343 957 q 240 988 292 988 q 185 975 214 988 q 133 942 157 963 q 94 894 110 921 q 78 840 78 868 q 100 785 78 804 q 161 771 122 765 l 163 769 q 160 663 160 717 q 161 556 161 608 q 149 533 161 536 q 121 529 138 529 q 101 520 108 529 q 90 497 93 511 q 87 469 88 483 q 86 442 86 454 m 1019 -26 q 1088 4 1068 -26 q 1121 75 1108 35 q 1130 89 1125 86 q 1146 92 1135 92 q 1160 100 1154 92 q 1171 121 1167 108 q 1177 147 1175 133 q 1179 169 1179 160 q 1178 189 1179 178 q 1173 211 1176 200 q 1164 230 1169 222 q 1150 238 1158 238 q 1133 244 1136 238 q 1129 267 1129 250 q 1130 314 1128 290 q 1132 361 1132 338 q 1128 438 1132 397 q 1109 515 1124 479 q 1066 573 1094 550 q 990 596 1038 596 q 928 573 961 596 q 861 513 894 550 q 797 431 828 476 q 742 340 765 386 q 703 254 718 294 q 689 188 689 214 q 711 118 689 140 q 767 88 733 96 q 838 81 800 79 q 908 82 876 82 q 932 65 925 82 q 947 28 939 49 q 971 -10 956 7 q 1019 -26 986 -26 m 938 238 l 886 238 q 876 247 876 238 q 885 271 876 256 q 906 300 894 286 q 928 324 917 314 q 943 335 939 335 q 949 323 947 335 q 951 296 951 311 q 948 257 951 276 q 938 238 944 238 "},"":{"ha":1215,"x_min":56,"x_max":1158,"o":"m 401 -28 q 435 -18 419 -28 q 465 6 451 -8 q 490 36 479 19 q 508 67 500 53 q 602 265 561 163 q 686 468 643 368 q 765 635 722 553 q 835 806 807 718 q 848 853 842 829 q 854 903 854 878 q 832 965 854 943 q 769 988 810 988 q 733 980 750 988 q 701 961 717 972 q 662 914 685 950 q 614 828 639 878 q 563 721 589 778 q 513 610 536 664 q 472 511 490 556 q 444 443 454 467 q 381 300 415 371 q 324 154 347 229 q 313 114 317 135 q 310 72 310 93 q 333 1 310 29 q 401 -28 357 -28 m 64 442 q 76 405 64 419 q 107 382 89 390 q 147 371 125 374 q 185 368 168 368 l 221 368 q 271 369 242 368 q 327 378 300 371 q 374 401 354 386 q 393 446 393 417 q 392 469 393 456 q 388 494 392 482 q 378 516 385 507 q 358 525 371 525 q 339 529 343 525 q 336 553 335 533 q 338 597 338 575 q 339 642 339 618 q 340 812 339 744 q 331 918 340 879 q 295 972 321 957 q 218 988 269 988 q 163 975 192 988 q 111 942 135 963 q 72 894 88 921 q 56 840 56 868 q 78 785 56 804 q 139 771 100 765 l 140 769 q 138 663 138 717 q 139 556 139 608 q 127 533 139 536 q 99 529 115 529 q 78 520 86 529 q 68 497 71 511 q 65 469 65 483 q 64 442 64 454 m 778 335 q 828 356 810 335 q 859 402 846 376 q 886 449 872 428 q 922 469 900 469 q 949 452 942 469 q 956 419 956 435 q 923 350 956 386 q 846 278 890 314 l 808 246 q 731 174 764 210 q 699 104 699 138 q 718 42 699 65 q 767 9 738 19 q 831 -4 796 -1 q 894 -7 865 -7 l 1011 -7 q 1056 -4 1031 -7 q 1105 8 1082 -1 q 1143 33 1128 17 q 1158 75 1158 49 q 1135 125 1158 108 q 1080 149 1113 142 q 1013 156 1047 156 q 957 156 979 156 q 953 158 954 156 q 975 178 953 160 q 1008 201 986 188 q 1051 235 1029 215 q 1122 314 1092 269 q 1151 415 1151 358 q 1132 497 1151 460 q 1081 560 1113 533 q 1008 603 1049 588 q 926 618 968 618 q 810 581 868 618 q 717 468 753 543 q 709 436 713 458 q 710 392 706 414 q 729 352 714 369 q 778 335 744 335 "},"":{"ha":1244,"x_min":53,"x_max":1208,"o":"m 453 -28 q 487 -18 471 -28 q 517 6 503 -8 q 541 36 531 19 q 560 67 551 53 q 653 265 613 163 q 738 468 694 368 q 816 635 774 553 q 886 806 858 718 q 899 853 893 829 q 906 903 906 878 q 883 965 906 943 q 821 988 861 988 q 785 980 801 988 q 753 961 768 972 q 713 914 736 950 q 665 828 690 878 q 614 721 640 778 q 565 610 588 664 q 524 511 542 556 q 496 443 506 467 q 433 300 467 371 q 375 154 399 229 q 365 114 368 135 q 361 72 361 93 q 385 1 361 29 q 453 -28 408 -28 m 126 588 q 69 561 85 588 q 53 499 53 535 q 72 430 53 460 q 122 379 92 400 q 188 348 151 358 q 258 338 224 338 q 340 351 299 338 q 415 390 381 365 q 472 451 450 415 q 493 531 493 486 q 474 591 493 568 q 434 627 456 614 q 394 647 413 640 q 375 654 375 653 q 393 663 375 657 q 433 682 411 668 q 472 720 454 696 q 490 783 490 744 q 471 860 490 826 q 420 919 451 894 q 349 956 389 943 q 271 968 310 968 q 197 956 233 968 q 131 922 160 944 q 83 867 101 900 q 65 793 65 835 q 80 736 65 760 q 132 713 94 713 q 171 726 153 713 q 201 757 189 739 q 210 773 206 763 q 220 793 214 783 q 238 810 226 803 q 268 818 250 818 q 288 806 285 818 q 292 779 292 793 q 274 726 292 738 q 235 712 257 715 q 197 699 214 708 q 179 653 179 690 q 188 617 179 629 q 210 600 197 606 q 238 592 222 594 q 267 585 254 590 q 288 571 279 581 q 297 539 297 561 q 290 504 297 515 q 257 493 283 493 q 215 508 228 493 q 191 540 201 522 q 168 573 181 558 q 126 588 156 588 m 1049 -26 q 1117 4 1097 -26 q 1150 75 1138 35 q 1159 89 1154 86 q 1175 92 1164 92 q 1190 100 1183 92 q 1200 121 1196 108 q 1206 147 1204 133 q 1208 169 1208 160 q 1207 189 1208 178 q 1202 211 1206 200 q 1193 230 1199 222 q 1179 238 1188 238 q 1162 244 1165 238 q 1158 267 1158 250 q 1159 314 1157 290 q 1161 361 1161 338 q 1157 438 1161 397 q 1138 515 1153 479 q 1095 573 1124 550 q 1019 596 1067 596 q 957 573 990 596 q 890 513 924 550 q 826 431 857 476 q 771 340 794 386 q 733 254 747 294 q 718 188 718 214 q 740 118 718 140 q 796 88 763 96 q 867 81 829 79 q 938 82 906 82 q 961 65 954 82 q 976 28 968 49 q 1000 -10 985 7 q 1049 -26 1015 -26 m 967 238 l 915 238 q 906 247 906 238 q 915 271 906 256 q 935 300 924 286 q 957 324 946 314 q 972 335 968 335 q 978 323 976 335 q 981 296 981 311 q 977 257 981 276 q 967 238 974 238 "},"":{"ha":706,"x_min":24,"x_max":676,"o":"m 528 732 q 516 781 528 760 q 485 817 504 803 q 442 838 467 831 q 393 844 418 844 q 302 816 342 844 q 263 732 263 788 q 274 681 263 703 q 302 646 285 660 q 340 626 319 632 q 381 619 361 619 q 487 651 446 619 q 528 732 528 682 m 246 483 q 214 425 235 449 q 169 381 193 401 q 118 339 144 360 q 71 290 92 318 q 37 223 50 261 q 24 128 24 185 q 49 -1 24 56 q 116 -96 74 -57 q 215 -155 158 -135 q 333 -175 271 -175 q 464 -152 401 -175 q 574 -88 526 -129 q 649 8 621 -47 q 676 129 676 64 q 643 214 676 176 q 554 251 610 251 q 496 243 524 251 q 447 219 468 235 q 415 182 426 204 q 403 132 403 160 q 392 67 403 90 q 358 44 382 44 q 317 67 332 44 q 301 138 301 89 q 333 224 301 183 q 402 307 364 265 q 472 392 440 349 q 503 483 503 435 q 490 535 503 514 q 457 571 476 557 q 415 591 438 585 q 372 597 392 597 q 293 566 324 597 q 246 483 263 535 "},"":{"ha":803,"x_min":28,"x_max":775,"o":"m 249 1144 q 279 1095 249 1124 q 351 1041 310 1067 q 433 998 392 1015 q 494 981 474 981 q 538 999 521 981 q 554 1043 554 1017 q 531 1099 554 1067 q 476 1161 508 1132 q 409 1210 444 1190 q 350 1231 374 1231 q 315 1224 333 1231 q 283 1207 297 1218 q 258 1180 268 1196 q 249 1144 249 1164 m 638 1 q 699 17 674 1 q 742 60 725 33 q 767 118 758 86 q 775 181 775 150 q 758 476 775 332 q 678 760 740 621 q 634 843 658 801 q 578 918 610 885 q 505 972 546 951 q 413 992 464 992 q 279 949 338 992 q 178 835 221 906 q 107 678 136 765 q 60 501 78 590 q 35 332 43 413 q 28 194 28 251 q 31 132 28 167 q 44 67 33 97 q 78 17 56 38 q 138 -4 100 -4 q 213 22 186 -4 q 253 86 239 49 q 276 166 268 124 q 294 242 285 208 q 320 294 306 278 q 375 310 335 310 l 454 310 q 488 287 478 310 q 502 230 497 264 q 511 156 507 196 q 528 81 515 115 q 565 24 540 47 q 638 1 590 1 m 339 518 q 346 589 339 550 q 363 662 353 628 q 388 719 374 696 q 415 742 401 742 q 441 717 429 742 q 461 656 453 692 q 474 583 469 621 q 478 521 478 546 q 456 495 478 504 q 408 485 435 486 q 360 493 382 485 q 339 518 339 501 "},"":{"ha":803,"x_min":28,"x_max":775,"o":"m 464 1060 q 524 1099 494 1079 q 556 1151 553 1119 q 550 1192 558 1174 q 527 1222 542 1210 q 493 1238 513 1233 q 453 1240 474 1243 q 395 1216 431 1236 q 327 1167 360 1196 q 271 1108 294 1139 q 247 1053 247 1078 q 263 1009 247 1028 q 306 990 279 990 q 344 998 322 990 q 388 1016 365 1006 q 430 1039 410 1026 q 464 1060 450 1051 m 638 1 q 699 17 674 1 q 742 60 725 33 q 767 118 758 86 q 775 181 775 150 q 758 476 775 332 q 678 760 740 621 q 634 843 658 801 q 578 918 610 885 q 505 972 546 951 q 413 992 464 992 q 279 949 338 992 q 178 835 221 906 q 107 678 136 765 q 60 501 78 590 q 35 332 43 413 q 28 194 28 251 q 31 132 28 167 q 44 67 33 97 q 78 17 56 38 q 138 -4 100 -4 q 213 22 186 -4 q 253 86 239 49 q 276 166 268 124 q 294 242 285 208 q 320 294 306 278 q 375 310 335 310 l 454 310 q 488 287 478 310 q 502 230 497 264 q 511 156 507 196 q 528 81 515 115 q 565 24 540 47 q 638 1 590 1 m 339 518 q 346 589 339 550 q 363 662 353 628 q 388 719 374 696 q 415 742 401 742 q 441 717 429 742 q 461 656 453 692 q 474 583 469 621 q 478 521 478 546 q 456 495 478 504 q 408 485 435 486 q 360 493 382 485 q 339 518 339 501 "},"":{"ha":803,"x_min":28,"x_max":775,"o":"m 546 1003 q 601 1024 578 1003 q 624 1078 624 1044 q 597 1124 624 1097 q 535 1177 571 1151 q 463 1221 499 1203 q 407 1239 426 1239 q 349 1218 388 1239 q 274 1170 311 1197 q 208 1115 236 1143 q 181 1074 181 1088 q 206 1020 181 1040 q 260 1000 231 1000 q 307 1015 283 1000 q 351 1049 331 1031 q 386 1082 371 1067 q 408 1097 401 1097 q 431 1083 415 1097 q 465 1050 446 1068 q 505 1017 483 1032 q 546 1003 526 1003 m 638 1 q 699 17 674 1 q 742 60 725 33 q 767 118 758 86 q 775 181 775 150 q 758 476 775 332 q 678 760 740 621 q 634 843 658 801 q 578 918 610 885 q 505 972 546 951 q 413 992 464 992 q 279 949 338 992 q 178 835 221 906 q 107 678 136 765 q 60 501 78 590 q 35 332 43 413 q 28 194 28 251 q 31 132 28 167 q 44 67 33 97 q 78 17 56 38 q 138 -4 100 -4 q 213 22 186 -4 q 253 86 239 49 q 276 166 268 124 q 294 242 285 208 q 320 294 306 278 q 375 310 335 310 l 454 310 q 488 287 478 310 q 502 230 497 264 q 511 156 507 196 q 528 81 515 115 q 565 24 540 47 q 638 1 590 1 m 339 518 q 346 589 339 550 q 363 662 353 628 q 388 719 374 696 q 415 742 401 742 q 441 717 429 742 q 461 656 453 692 q 474 583 469 621 q 478 521 478 546 q 456 495 478 504 q 408 485 435 486 q 360 493 382 485 q 339 518 339 501 "},"":{"ha":803,"x_min":28,"x_max":775,"o":"m 339 1044 q 363 1036 351 1044 q 391 1017 375 1028 q 429 998 407 1007 q 485 989 451 989 q 549 999 518 989 q 603 1028 579 1010 q 642 1072 628 1047 q 656 1125 656 1097 q 633 1204 656 1182 q 575 1226 611 1226 q 538 1218 554 1226 q 508 1199 522 1210 q 484 1180 494 1189 q 463 1171 474 1171 q 434 1180 449 1171 q 401 1199 419 1189 q 358 1219 382 1210 q 299 1228 333 1228 q 247 1216 274 1228 q 198 1183 219 1204 q 162 1135 176 1163 q 147 1079 147 1108 q 177 1019 147 1040 q 244 997 207 997 q 271 1005 260 997 q 292 1021 282 1013 q 312 1037 301 1029 q 339 1044 322 1044 m 638 1 q 699 17 674 1 q 742 60 725 33 q 767 118 758 86 q 775 181 775 150 q 758 476 775 332 q 678 760 740 621 q 634 843 658 801 q 578 918 610 885 q 505 972 546 951 q 413 992 464 992 q 279 949 338 992 q 178 835 221 906 q 107 678 136 765 q 60 501 78 590 q 35 332 43 413 q 28 194 28 251 q 31 132 28 167 q 44 67 33 97 q 78 17 56 38 q 138 -4 100 -4 q 213 22 186 -4 q 253 86 239 49 q 276 166 268 124 q 294 242 285 208 q 320 294 306 278 q 375 310 335 310 l 454 310 q 488 287 478 310 q 502 230 497 264 q 511 156 507 196 q 528 81 515 115 q 565 24 540 47 q 638 1 590 1 m 339 518 q 346 589 339 550 q 363 662 353 628 q 388 719 374 696 q 415 742 401 742 q 441 717 429 742 q 461 656 453 692 q 474 583 469 621 q 478 521 478 546 q 456 495 478 504 q 408 485 435 486 q 360 493 382 485 q 339 518 339 501 "},"":{"ha":803,"x_min":28,"x_max":775,"o":"m 153 1108 q 189 1033 153 1060 q 271 1007 225 1007 q 351 1034 315 1007 q 388 1108 388 1061 q 378 1151 388 1132 q 351 1183 368 1169 q 314 1203 335 1196 q 271 1210 293 1210 q 227 1203 249 1210 q 189 1183 206 1196 q 163 1152 172 1171 q 153 1108 153 1133 m 415 1108 q 451 1033 415 1060 q 533 1007 488 1007 q 614 1034 578 1007 q 650 1108 650 1061 q 640 1151 650 1132 q 614 1183 631 1169 q 576 1203 597 1196 q 533 1210 556 1210 q 490 1203 511 1210 q 451 1183 468 1196 q 425 1152 435 1171 q 415 1108 415 1133 m 638 1 q 699 17 674 1 q 742 60 725 33 q 767 118 758 86 q 775 181 775 150 q 758 476 775 332 q 678 760 740 621 q 634 843 658 801 q 578 918 610 885 q 505 972 546 951 q 413 992 464 992 q 279 949 338 992 q 178 835 221 906 q 107 678 136 765 q 60 501 78 590 q 35 332 43 413 q 28 194 28 251 q 31 132 28 167 q 44 67 33 97 q 78 17 56 38 q 138 -4 100 -4 q 213 22 186 -4 q 253 86 239 49 q 276 166 268 124 q 294 242 285 208 q 320 294 306 278 q 375 310 335 310 l 454 310 q 488 287 478 310 q 502 230 497 264 q 511 156 507 196 q 528 81 515 115 q 565 24 540 47 q 638 1 590 1 m 339 518 q 346 589 339 550 q 363 662 353 628 q 388 719 374 696 q 415 742 401 742 q 441 717 429 742 q 461 656 453 692 q 474 583 469 621 q 478 521 478 546 q 456 495 478 504 q 408 485 435 486 q 360 493 382 485 q 339 518 339 501 "},"":{"ha":803,"x_min":28,"x_max":775,"o":"m 638 1 q 699 17 674 1 q 742 60 725 33 q 767 118 758 86 q 775 181 775 150 q 758 476 775 332 q 678 760 740 621 q 640 834 661 797 q 592 902 618 871 q 533 956 565 933 q 458 988 500 979 q 563 1033 524 999 q 603 1132 603 1067 q 588 1196 603 1169 q 547 1238 574 1222 q 485 1261 521 1254 q 406 1268 449 1268 q 324 1260 361 1268 q 258 1235 286 1253 q 215 1190 231 1218 q 200 1122 200 1163 q 241 1022 200 1053 q 353 983 282 990 q 240 916 289 967 q 156 795 192 865 q 95 642 119 725 q 56 478 71 560 q 34 322 40 396 q 28 194 28 247 q 31 132 28 167 q 44 67 33 97 q 78 17 56 38 q 138 -4 100 -4 q 213 22 186 -4 q 253 86 239 49 q 276 166 268 124 q 294 242 285 208 q 320 294 306 278 q 375 310 335 310 l 454 310 q 488 287 478 310 q 502 230 497 264 q 511 156 507 196 q 528 81 515 115 q 565 24 540 47 q 638 1 590 1 m 344 1125 q 364 1155 344 1144 q 403 1165 383 1165 q 440 1156 422 1165 q 458 1126 458 1146 q 438 1096 458 1107 q 399 1085 418 1085 q 362 1095 379 1085 q 344 1125 344 1106 m 339 518 q 346 589 339 550 q 363 662 353 628 q 388 719 374 696 q 415 742 401 742 q 441 717 429 742 q 461 656 453 692 q 474 583 469 621 q 478 521 478 546 q 456 495 478 504 q 408 485 435 486 q 360 493 382 485 q 339 518 339 501 "},"":{"ha":1160,"x_min":28,"x_max":1144,"o":"m 638 1 q 704 21 676 1 q 843 -4 761 -4 q 933 4 881 -4 q 1032 32 985 13 q 1112 85 1079 51 q 1144 169 1144 119 q 1119 269 1144 236 q 1050 303 1093 303 q 1017 297 1031 303 q 986 278 1004 292 q 934 248 963 258 q 868 238 906 238 q 819 251 838 238 q 792 286 801 265 q 781 333 783 307 q 779 382 779 358 q 784 415 779 399 q 811 431 789 431 l 990 431 q 1065 458 1035 431 q 1094 526 1094 486 q 1067 603 1094 571 q 992 635 1040 635 q 946 634 965 635 q 908 633 926 633 q 871 631 890 632 q 825 629 851 629 q 802 635 810 629 q 791 650 794 640 q 788 672 788 660 q 788 694 788 683 q 790 712 788 701 q 796 732 792 722 q 807 749 800 742 q 824 756 814 756 q 860 753 844 756 q 892 748 876 751 q 924 742 908 744 q 961 740 940 740 q 1014 745 988 740 q 1061 763 1040 750 q 1095 797 1082 775 q 1108 854 1108 819 q 1092 922 1108 897 q 1048 960 1075 947 q 989 976 1021 972 q 925 979 957 979 l 744 979 q 657 958 694 979 q 593 901 619 938 q 515 967 558 942 q 413 992 471 992 q 279 949 338 992 q 178 835 221 906 q 107 678 136 765 q 60 501 78 590 q 35 332 43 413 q 28 194 28 251 q 31 132 28 167 q 44 67 33 97 q 78 17 56 38 q 138 -4 100 -4 q 213 22 186 -4 q 253 86 239 49 q 276 166 268 124 q 294 242 285 208 q 320 294 306 278 q 375 310 335 310 l 454 310 q 488 287 478 310 q 502 230 497 264 q 511 156 507 196 q 528 81 515 115 q 565 24 540 47 q 638 1 590 1 m 339 518 q 346 589 339 550 q 363 662 353 628 q 388 719 374 696 q 415 742 401 742 q 441 717 429 742 q 461 656 453 692 q 474 583 469 621 q 478 521 478 546 q 456 495 478 504 q 408 485 435 486 q 360 493 382 485 q 339 518 339 501 "},"":{"ha":768,"x_min":24,"x_max":735,"o":"m 600 581 q 697 631 672 589 q 721 744 721 674 q 696 856 721 808 q 628 937 671 904 q 529 986 586 969 q 408 1003 472 1003 q 224 958 299 1003 q 106 839 150 913 q 42 672 61 765 q 24 479 24 578 q 36 317 24 396 q 78 174 49 239 q 153 61 107 108 q 267 -8 200 14 q 261 -49 261 -26 q 272 -73 261 -65 q 297 -86 282 -81 q 328 -98 311 -92 q 360 -118 346 -104 q 363 -124 361 -119 q 364 -131 364 -129 q 361 -137 364 -132 q 357 -142 358 -142 q 317 -147 338 -146 q 281 -153 297 -147 q 255 -170 265 -158 q 244 -208 244 -182 q 254 -245 244 -229 q 279 -272 264 -261 q 313 -289 294 -283 q 350 -294 332 -294 q 415 -282 383 -294 q 471 -247 446 -269 q 510 -195 496 -225 q 525 -131 525 -165 q 516 -83 525 -101 q 494 -53 507 -65 q 468 -35 482 -42 q 443 -19 454 -28 q 553 11 500 -11 q 646 67 606 33 q 710 147 686 101 q 735 247 735 193 q 728 302 735 276 q 706 347 721 328 q 669 378 692 367 q 618 390 647 390 q 583 387 604 390 q 540 372 561 383 q 505 341 519 361 q 490 289 490 321 q 476 230 490 257 q 415 203 461 203 q 355 227 378 203 q 319 292 332 251 q 303 383 307 332 q 299 486 299 433 q 302 599 299 549 q 317 686 306 650 q 350 742 328 722 q 411 763 372 763 q 469 736 449 763 q 490 674 490 710 q 523 597 490 618 q 600 581 556 575 "},"":{"ha":676,"x_min":26,"x_max":661,"o":"m 186 1144 q 217 1095 186 1124 q 288 1041 247 1067 q 370 998 329 1015 q 432 981 411 981 q 475 999 458 981 q 492 1043 492 1017 q 469 1099 492 1067 q 414 1161 446 1132 q 347 1210 382 1190 q 288 1231 311 1231 q 253 1224 271 1231 q 220 1207 235 1218 q 196 1180 206 1196 q 186 1144 186 1164 m 304 694 q 306 712 304 701 q 313 732 308 722 q 324 749 317 742 q 340 756 331 756 q 377 753 361 756 q 409 748 393 751 q 441 742 425 744 q 478 740 457 740 q 531 745 504 740 q 578 763 557 750 q 612 797 599 775 q 625 854 625 819 q 608 922 625 897 q 565 960 592 947 q 506 976 538 972 q 442 979 474 979 l 261 979 q 147 940 192 979 q 74 838 101 901 q 37 690 47 774 q 26 519 26 607 q 29 397 26 460 q 43 276 32 335 q 76 167 54 218 q 134 78 97 117 q 226 18 171 40 q 360 -4 282 -4 q 449 4 397 -4 q 549 32 501 13 q 628 85 596 51 q 661 169 661 119 q 635 269 661 236 q 567 303 610 303 q 534 297 547 303 q 503 278 521 292 q 451 248 479 258 q 385 238 422 238 q 336 251 354 238 q 309 286 318 265 q 298 333 300 307 q 296 382 296 358 q 301 415 296 399 q 328 431 306 431 l 507 431 q 581 458 551 431 q 611 526 611 486 q 584 603 611 571 q 508 635 557 635 q 463 634 482 635 q 425 633 443 633 q 388 631 407 632 q 342 629 368 629 q 319 635 326 629 q 308 650 311 640 q 304 672 304 660 q 304 694 304 683 "},"":{"ha":676,"x_min":26,"x_max":661,"o":"m 400 1060 q 460 1099 431 1079 q 492 1151 489 1119 q 486 1192 494 1174 q 463 1222 478 1210 q 429 1238 449 1233 q 389 1240 410 1243 q 331 1216 367 1236 q 263 1167 296 1196 q 207 1108 231 1139 q 183 1053 183 1078 q 199 1009 183 1028 q 242 990 215 990 q 280 998 258 990 q 324 1016 301 1006 q 366 1039 346 1026 q 400 1060 386 1051 m 304 694 q 306 712 304 701 q 313 732 308 722 q 324 749 317 742 q 340 756 331 756 q 377 753 361 756 q 409 748 393 751 q 441 742 425 744 q 478 740 457 740 q 531 745 504 740 q 578 763 557 750 q 612 797 599 775 q 625 854 625 819 q 608 922 625 897 q 565 960 592 947 q 506 976 538 972 q 442 979 474 979 l 261 979 q 147 940 192 979 q 74 838 101 901 q 37 690 47 774 q 26 519 26 607 q 29 397 26 460 q 43 276 32 335 q 76 167 54 218 q 134 78 97 117 q 226 18 171 40 q 360 -4 282 -4 q 449 4 397 -4 q 549 32 501 13 q 628 85 596 51 q 661 169 661 119 q 635 269 661 236 q 567 303 610 303 q 534 297 547 303 q 503 278 521 292 q 451 248 479 258 q 385 238 422 238 q 336 251 354 238 q 309 286 318 265 q 298 333 300 307 q 296 382 296 358 q 301 415 296 399 q 328 431 306 431 l 507 431 q 581 458 551 431 q 611 526 611 486 q 584 603 611 571 q 508 635 557 635 q 463 634 482 635 q 425 633 443 633 q 388 631 407 632 q 342 629 368 629 q 319 635 326 629 q 308 650 311 640 q 304 672 304 660 q 304 694 304 683 "},"":{"ha":676,"x_min":26,"x_max":661,"o":"m 482 1003 q 537 1024 514 1003 q 560 1078 560 1044 q 533 1124 560 1097 q 471 1177 507 1151 q 399 1221 435 1203 q 343 1239 363 1239 q 285 1218 324 1239 q 210 1170 247 1197 q 144 1115 172 1143 q 117 1074 117 1088 q 142 1020 117 1040 q 196 1000 167 1000 q 243 1015 219 1000 q 287 1049 267 1031 q 322 1082 307 1067 q 344 1097 338 1097 q 367 1083 351 1097 q 401 1050 382 1068 q 441 1017 419 1032 q 482 1003 463 1003 m 304 694 q 306 712 304 701 q 313 732 308 722 q 324 749 317 742 q 340 756 331 756 q 377 753 361 756 q 409 748 393 751 q 441 742 425 744 q 478 740 457 740 q 531 745 504 740 q 578 763 557 750 q 612 797 599 775 q 625 854 625 819 q 608 922 625 897 q 565 960 592 947 q 506 976 538 972 q 442 979 474 979 l 261 979 q 147 940 192 979 q 74 838 101 901 q 37 690 47 774 q 26 519 26 607 q 29 397 26 460 q 43 276 32 335 q 76 167 54 218 q 134 78 97 117 q 226 18 171 40 q 360 -4 282 -4 q 449 4 397 -4 q 549 32 501 13 q 628 85 596 51 q 661 169 661 119 q 635 269 661 236 q 567 303 610 303 q 534 297 547 303 q 503 278 521 292 q 451 248 479 258 q 385 238 422 238 q 336 251 354 238 q 309 286 318 265 q 298 333 300 307 q 296 382 296 358 q 301 415 296 399 q 328 431 306 431 l 507 431 q 581 458 551 431 q 611 526 611 486 q 584 603 611 571 q 508 635 557 635 q 463 634 482 635 q 425 633 443 633 q 388 631 407 632 q 342 629 368 629 q 319 635 326 629 q 308 650 311 640 q 304 672 304 660 q 304 694 304 683 "},"":{"ha":676,"x_min":26,"x_max":661,"o":"m 90 1108 q 126 1033 90 1060 q 208 1007 163 1007 q 289 1034 253 1007 q 325 1108 325 1061 q 315 1151 325 1132 q 289 1183 306 1169 q 251 1203 272 1196 q 208 1210 231 1210 q 165 1203 186 1210 q 126 1183 143 1196 q 100 1152 110 1171 q 90 1108 90 1133 m 353 1108 q 389 1033 353 1060 q 471 1007 425 1007 q 551 1034 515 1007 q 588 1108 588 1061 q 578 1151 588 1132 q 551 1183 568 1169 q 514 1203 535 1196 q 471 1210 493 1210 q 427 1203 449 1210 q 389 1183 406 1196 q 363 1152 372 1171 q 353 1108 353 1133 m 304 694 q 306 712 304 701 q 313 732 308 722 q 324 749 317 742 q 340 756 331 756 q 377 753 361 756 q 409 748 393 751 q 441 742 425 744 q 478 740 457 740 q 531 745 504 740 q 578 763 557 750 q 612 797 599 775 q 625 854 625 819 q 608 922 625 897 q 565 960 592 947 q 506 976 538 972 q 442 979 474 979 l 261 979 q 147 940 192 979 q 74 838 101 901 q 37 690 47 774 q 26 519 26 607 q 29 397 26 460 q 43 276 32 335 q 76 167 54 218 q 134 78 97 117 q 226 18 171 40 q 360 -4 282 -4 q 449 4 397 -4 q 549 32 501 13 q 628 85 596 51 q 661 169 661 119 q 635 269 661 236 q 567 303 610 303 q 534 297 547 303 q 503 278 521 292 q 451 248 479 258 q 385 238 422 238 q 336 251 354 238 q 309 286 318 265 q 298 333 300 307 q 296 382 296 358 q 301 415 296 399 q 328 431 306 431 l 507 431 q 581 458 551 431 q 611 526 611 486 q 584 603 611 571 q 508 635 557 635 q 463 634 482 635 q 425 633 443 633 q 388 631 407 632 q 342 629 368 629 q 319 635 326 629 q 308 650 311 640 q 304 672 304 660 q 304 694 304 683 "},"":{"ha":528,"x_min":17,"x_max":507,"o":"m 28 122 q 51 51 28 76 q 109 15 75 26 q 181 1 143 3 q 244 0 218 0 q 314 1 271 0 q 399 15 357 3 q 470 52 440 26 q 500 125 500 78 q 492 174 500 158 q 471 197 483 190 q 443 205 458 204 q 415 208 428 206 q 394 221 403 211 q 386 254 386 231 q 388 319 386 286 q 389 392 389 351 q 387 585 389 494 q 385 778 385 675 q 390 786 385 785 q 400 789 394 788 q 473 816 439 796 q 507 874 507 836 q 494 921 507 901 q 460 952 481 940 q 413 971 439 964 q 363 981 388 978 q 401 1001 386 983 q 417 1043 417 1018 q 394 1099 417 1067 q 339 1161 371 1132 q 272 1210 307 1190 q 213 1231 236 1231 q 178 1224 196 1231 q 145 1207 160 1218 q 121 1180 131 1196 q 111 1144 111 1164 q 138 1100 111 1125 q 200 1051 164 1075 q 275 1008 236 1026 q 340 983 314 989 q 308 985 324 985 q 282 985 293 985 q 211 985 256 985 q 124 976 167 986 q 49 940 81 965 q 17 863 17 915 q 25 817 17 832 q 45 797 33 803 q 72 792 57 792 q 98 791 86 792 q 118 785 110 790 q 126 763 126 779 q 130 503 126 629 q 133 274 133 378 q 126 236 133 247 q 106 220 118 225 q 81 213 94 215 q 55 203 67 211 q 35 178 43 196 q 28 122 28 160 "},"":{"ha":528,"x_min":17,"x_max":507,"o":"m 326 1060 q 386 1099 357 1079 q 418 1151 415 1119 q 413 1192 421 1174 q 390 1222 404 1210 q 356 1238 375 1233 q 315 1240 336 1243 q 258 1216 293 1236 q 190 1167 222 1196 q 133 1108 157 1139 q 110 1053 110 1078 q 126 1009 110 1028 q 168 990 142 990 q 206 998 185 990 q 250 1016 228 1006 q 292 1039 272 1026 q 326 1060 313 1051 m 28 122 q 51 51 28 76 q 109 15 75 26 q 181 1 143 3 q 244 0 218 0 q 314 1 271 0 q 399 15 357 3 q 470 52 440 26 q 500 125 500 78 q 492 174 500 158 q 471 197 483 190 q 443 205 458 204 q 415 208 428 206 q 394 221 403 211 q 386 254 386 231 q 388 319 386 286 q 389 392 389 351 q 387 585 389 494 q 385 778 385 675 q 390 786 385 785 q 400 789 394 788 q 473 816 439 796 q 507 874 507 836 q 481 937 507 914 q 418 970 454 960 q 344 983 382 981 q 282 985 306 985 q 211 985 256 985 q 124 976 167 986 q 49 940 81 965 q 17 863 17 915 q 25 817 17 832 q 45 797 33 803 q 72 792 57 792 q 98 791 86 792 q 118 785 110 790 q 126 763 126 779 q 130 503 126 629 q 133 274 133 378 q 126 236 133 247 q 106 220 118 225 q 81 213 94 215 q 55 203 67 211 q 35 178 43 196 q 28 122 28 160 "},"":{"ha":528,"x_min":17,"x_max":507,"o":"m 408 1003 q 463 1024 440 1003 q 486 1078 486 1044 q 460 1124 486 1097 q 397 1177 433 1151 q 325 1221 361 1203 q 269 1239 289 1239 q 212 1218 250 1239 q 136 1170 174 1197 q 71 1115 99 1143 q 43 1074 43 1088 q 68 1020 43 1040 q 122 1000 93 1000 q 169 1015 146 1000 q 213 1049 193 1031 q 249 1082 233 1067 q 271 1097 264 1097 q 293 1083 278 1097 q 327 1050 308 1068 q 367 1017 346 1032 q 408 1003 389 1003 m 28 122 q 51 51 28 76 q 109 15 75 26 q 181 1 143 3 q 244 0 218 0 q 314 1 271 0 q 399 15 357 3 q 470 52 440 26 q 500 125 500 78 q 492 174 500 158 q 471 197 483 190 q 443 205 458 204 q 415 208 428 206 q 394 221 403 211 q 386 254 386 231 q 388 319 386 286 q 389 392 389 351 q 387 585 389 494 q 385 778 385 675 q 390 786 385 785 q 400 789 394 788 q 473 816 439 796 q 507 874 507 836 q 481 937 507 914 q 418 970 454 960 q 344 983 382 981 q 282 985 306 985 q 211 985 256 985 q 124 976 167 986 q 49 940 81 965 q 17 863 17 915 q 25 817 17 832 q 45 797 33 803 q 72 792 57 792 q 98 791 86 792 q 118 785 110 790 q 126 763 126 779 q 130 503 126 629 q 133 274 133 378 q 126 236 133 247 q 106 220 118 225 q 81 213 94 215 q 55 203 67 211 q 35 178 43 196 q 28 122 28 160 "},"":{"ha":528,"x_min":15,"x_max":513,"o":"m 15 1108 q 51 1033 15 1060 q 133 1007 88 1007 q 214 1034 178 1007 q 250 1108 250 1061 q 240 1151 250 1132 q 214 1183 231 1169 q 176 1203 197 1196 q 133 1210 156 1210 q 90 1203 111 1210 q 51 1183 68 1196 q 25 1152 35 1171 q 15 1108 15 1133 m 278 1108 q 314 1033 278 1060 q 396 1007 350 1007 q 476 1034 440 1007 q 513 1108 513 1061 q 503 1151 513 1132 q 476 1183 493 1169 q 439 1203 460 1196 q 396 1210 418 1210 q 352 1203 374 1210 q 314 1183 331 1196 q 288 1152 297 1171 q 278 1108 278 1133 m 28 122 q 51 51 28 76 q 109 15 75 26 q 181 1 143 3 q 244 0 218 0 q 314 1 271 0 q 399 15 357 3 q 470 52 440 26 q 500 125 500 78 q 492 174 500 158 q 471 197 483 190 q 443 205 458 204 q 415 208 428 206 q 394 221 403 211 q 386 254 386 231 q 388 319 386 286 q 389 392 389 351 q 387 585 389 494 q 385 778 385 675 q 390 786 385 785 q 400 789 394 788 q 473 816 439 796 q 507 874 507 836 q 481 937 507 914 q 418 970 454 960 q 344 983 382 981 q 282 985 306 985 q 211 985 256 985 q 124 976 167 986 q 49 940 81 965 q 17 863 17 915 q 25 817 17 832 q 45 797 33 803 q 72 792 57 792 q 98 791 86 792 q 118 785 110 790 q 126 763 126 779 q 130 503 126 629 q 133 274 133 378 q 126 236 133 247 q 106 220 118 225 q 81 213 94 215 q 55 203 67 211 q 35 178 43 196 q 28 122 28 160 "},"":{"ha":785,"x_min":-31,"x_max":751,"o":"m 275 0 q 469 29 382 0 q 619 122 557 58 q 717 284 682 185 q 751 522 751 383 q 722 740 751 650 q 635 888 692 831 q 494 971 578 944 q 304 997 411 997 q 81 932 124 997 q 58 872 67 911 q 46 783 50 832 q 40 682 42 735 q 39 582 39 629 q -12 549 7 574 q -31 500 -31 525 q -11 426 -31 451 q 40 390 8 401 q 42 306 42 347 q 43 240 43 265 q 97 57 43 114 q 275 0 151 0 m 286 592 l 286 643 q 307 722 286 694 q 369 750 328 750 q 435 725 411 750 q 471 667 460 700 q 485 599 482 633 q 488 544 488 564 q 481 444 488 496 q 457 351 474 393 q 414 283 440 310 q 349 256 388 256 q 298 284 310 256 q 286 358 286 313 l 286 381 q 324 383 306 382 q 360 388 342 385 q 447 423 424 396 q 471 486 471 450 q 457 565 471 535 q 399 594 443 596 l 286 592 "},"":{"ha":818,"x_min":36,"x_max":783,"o":"m 347 1044 q 372 1036 360 1044 q 399 1017 383 1028 q 438 998 415 1007 q 493 989 460 989 q 557 999 526 989 q 612 1028 588 1010 q 650 1072 636 1047 q 664 1125 664 1097 q 642 1204 664 1182 q 583 1226 619 1226 q 547 1218 563 1226 q 517 1199 531 1210 q 492 1180 503 1189 q 471 1171 482 1171 q 442 1180 457 1171 q 409 1199 428 1189 q 366 1219 390 1210 q 307 1228 342 1228 q 255 1216 282 1228 q 206 1183 228 1204 q 170 1135 185 1163 q 156 1079 156 1108 q 185 1019 156 1040 q 253 997 215 997 q 279 1005 268 997 q 300 1021 290 1013 q 320 1037 310 1029 q 347 1044 331 1044 m 601 -3 q 695 24 661 -3 q 747 95 729 50 q 769 202 764 140 q 774 335 774 264 q 775 409 774 360 q 778 518 776 458 q 782 640 781 578 q 783 754 783 703 q 781 847 783 804 q 765 919 779 889 q 720 967 750 950 q 633 985 690 985 q 557 943 582 985 q 524 836 532 901 q 523 692 517 771 q 542 538 529 613 q 542 517 543 533 q 532 501 540 501 q 509 537 526 501 q 467 626 492 572 q 412 742 443 681 q 346 858 381 804 q 274 948 311 913 q 199 983 236 983 q 117 959 149 983 q 69 895 86 935 q 44 806 51 856 q 38 706 38 756 q 37 597 38 651 q 36 488 36 542 q 38 315 36 403 q 52 157 39 228 q 94 41 65 86 q 176 -4 122 -4 q 251 15 225 -4 q 288 64 276 35 q 302 125 300 93 q 304 182 304 157 q 292 279 304 226 q 279 376 279 332 q 279 388 279 379 q 281 404 279 396 q 285 419 282 413 q 293 425 288 425 q 317 393 301 425 q 354 314 333 361 q 401 211 375 267 q 459 108 428 156 q 526 29 490 61 q 601 -3 563 -3 "},"":{"ha":899,"x_min":36,"x_max":861,"o":"m 446 -15 q 755 122 649 -15 q 861 504 861 258 q 783 835 861 715 q 549 981 704 956 q 588 1001 572 983 q 603 1043 603 1018 q 580 1099 603 1067 q 525 1161 557 1132 q 458 1210 493 1190 q 399 1231 422 1231 q 364 1224 382 1231 q 331 1207 346 1218 q 307 1180 317 1196 q 297 1144 297 1164 q 322 1101 297 1126 q 381 1053 346 1076 q 453 1012 415 1031 q 518 985 492 993 q 492 987 506 986 q 464 988 479 988 q 290 957 368 988 q 155 864 211 926 q 67 704 99 801 q 36 474 36 607 q 67 255 36 347 q 154 102 99 163 q 284 13 210 42 q 446 -15 358 -15 m 303 474 q 315 591 303 538 q 349 683 328 644 q 395 742 369 721 q 447 764 421 764 q 511 736 483 764 q 558 665 539 708 q 585 573 576 622 q 594 479 594 524 q 590 388 594 436 q 572 299 586 339 q 531 232 557 258 q 458 206 504 206 q 386 233 415 206 q 338 302 357 261 q 311 390 319 343 q 303 474 303 436 "},"":{"ha":899,"x_min":36,"x_max":861,"o":"m 511 1060 q 571 1099 542 1079 q 603 1151 600 1119 q 597 1192 606 1174 q 574 1222 589 1210 q 540 1238 560 1233 q 500 1240 521 1243 q 442 1216 478 1236 q 374 1167 407 1196 q 318 1108 342 1139 q 294 1053 294 1078 q 310 1009 294 1028 q 353 990 326 990 q 391 998 369 990 q 435 1016 413 1006 q 477 1039 457 1026 q 511 1060 497 1051 m 446 -15 q 755 122 649 -15 q 861 504 861 258 q 761 865 861 743 q 464 988 661 988 q 290 957 368 988 q 155 864 211 926 q 67 704 99 801 q 36 474 36 607 q 67 255 36 347 q 154 102 99 163 q 284 13 210 42 q 446 -15 358 -15 m 303 474 q 315 591 303 538 q 349 683 328 644 q 395 742 369 721 q 447 764 421 764 q 511 736 483 764 q 558 665 539 708 q 585 573 576 622 q 594 479 594 524 q 590 388 594 436 q 572 299 586 339 q 531 232 557 258 q 458 206 504 206 q 386 233 415 206 q 338 302 357 261 q 311 390 319 343 q 303 474 303 436 "},"":{"ha":899,"x_min":36,"x_max":861,"o":"m 593 1003 q 648 1024 625 1003 q 671 1078 671 1044 q 644 1124 671 1097 q 582 1177 618 1151 q 510 1221 546 1203 q 454 1239 474 1239 q 397 1218 435 1239 q 321 1170 358 1197 q 256 1115 283 1143 q 228 1074 228 1088 q 253 1020 228 1040 q 307 1000 278 1000 q 354 1015 331 1000 q 398 1049 378 1031 q 433 1082 418 1067 q 456 1097 449 1097 q 478 1083 463 1097 q 512 1050 493 1068 q 552 1017 531 1032 q 593 1003 574 1003 m 446 -15 q 755 122 649 -15 q 861 504 861 258 q 761 865 861 743 q 464 988 661 988 q 290 957 368 988 q 155 864 211 926 q 67 704 99 801 q 36 474 36 607 q 67 255 36 347 q 154 102 99 163 q 284 13 210 42 q 446 -15 358 -15 m 303 474 q 315 591 303 538 q 349 683 328 644 q 395 742 369 721 q 447 764 421 764 q 511 736 483 764 q 558 665 539 708 q 585 573 576 622 q 594 479 594 524 q 590 388 594 436 q 572 299 586 339 q 531 232 557 258 q 458 206 504 206 q 386 233 415 206 q 338 302 357 261 q 311 390 319 343 q 303 474 303 436 "},"":{"ha":899,"x_min":36,"x_max":861,"o":"m 388 1044 q 412 1036 400 1044 q 440 1017 424 1028 q 478 998 456 1007 q 533 989 500 989 q 597 999 567 989 q 652 1028 628 1010 q 690 1072 676 1047 q 704 1125 704 1097 q 682 1204 704 1182 q 624 1226 660 1226 q 587 1218 603 1226 q 557 1199 571 1210 q 533 1180 543 1189 q 511 1171 522 1171 q 483 1180 497 1171 q 449 1199 468 1189 q 406 1219 431 1210 q 347 1228 382 1228 q 295 1216 322 1228 q 247 1183 268 1204 q 210 1135 225 1163 q 196 1079 196 1108 q 226 1019 196 1040 q 293 997 256 997 q 319 1005 308 997 q 340 1021 331 1013 q 360 1037 350 1029 q 388 1044 371 1044 m 446 -15 q 755 122 649 -15 q 861 504 861 258 q 761 865 861 743 q 464 988 661 988 q 290 957 368 988 q 155 864 211 926 q 67 704 99 801 q 36 474 36 607 q 67 255 36 347 q 154 102 99 163 q 284 13 210 42 q 446 -15 358 -15 m 303 474 q 315 591 303 538 q 349 683 328 644 q 395 742 369 721 q 447 764 421 764 q 511 736 483 764 q 558 665 539 708 q 585 573 576 622 q 594 479 594 524 q 590 388 594 436 q 572 299 586 339 q 531 232 557 258 q 458 206 504 206 q 386 233 415 206 q 338 302 357 261 q 311 390 319 343 q 303 474 303 436 "},"":{"ha":899,"x_min":36,"x_max":861,"o":"m 201 1108 q 238 1033 201 1060 q 319 1007 274 1007 q 400 1034 364 1007 q 436 1108 436 1061 q 426 1151 436 1132 q 400 1183 417 1169 q 363 1203 383 1196 q 319 1210 342 1210 q 276 1203 297 1210 q 238 1183 254 1196 q 211 1152 221 1171 q 201 1108 201 1133 m 464 1108 q 500 1033 464 1060 q 582 1007 536 1007 q 663 1034 626 1007 q 699 1108 699 1061 q 689 1151 699 1132 q 663 1183 679 1169 q 625 1203 646 1196 q 582 1210 604 1210 q 538 1203 560 1210 q 500 1183 517 1196 q 474 1152 483 1171 q 464 1108 464 1133 m 446 -15 q 755 122 649 -15 q 861 504 861 258 q 761 865 861 743 q 464 988 661 988 q 290 957 368 988 q 155 864 211 926 q 67 704 99 801 q 36 474 36 607 q 67 255 36 347 q 154 102 99 163 q 284 13 210 42 q 446 -15 358 -15 m 303 474 q 315 591 303 538 q 349 683 328 644 q 395 742 369 721 q 447 764 421 764 q 511 736 483 764 q 558 665 539 708 q 585 573 576 622 q 594 479 594 524 q 590 388 594 436 q 572 299 586 339 q 531 232 557 258 q 458 206 504 206 q 386 233 415 206 q 338 302 357 261 q 311 390 319 343 q 303 474 303 436 "},"":{"ha":556,"x_min":42,"x_max":514,"o":"m 424 278 q 485 303 457 278 q 514 361 514 328 q 497 398 514 382 q 458 426 479 414 q 419 449 436 439 q 401 471 401 460 q 419 497 401 481 q 458 533 436 514 q 497 571 479 551 q 514 607 514 590 q 502 645 514 628 q 472 674 490 663 q 433 693 454 686 q 394 700 413 700 q 356 682 374 700 q 323 642 338 664 q 299 601 308 619 q 282 583 289 583 q 263 601 274 583 q 235 640 251 619 q 201 679 219 661 q 160 697 182 697 q 121 690 142 697 q 82 671 100 683 q 53 641 64 658 q 42 603 42 624 q 62 567 42 586 q 106 529 82 547 q 149 496 129 511 q 169 471 169 481 q 153 450 169 461 q 115 425 136 439 q 78 394 94 411 q 61 358 61 378 q 87 299 61 324 q 146 274 113 274 q 189 289 168 274 q 228 322 210 304 q 263 356 247 340 q 290 371 278 371 q 315 356 301 371 q 346 324 329 342 q 382 292 363 307 q 424 278 401 278 "},"":{"ha":899,"x_min":36,"x_max":861,"o":"m 446 -15 q 755 122 649 -15 q 861 504 861 258 q 740 888 861 764 q 752 937 747 915 q 757 974 757 958 q 733 1042 757 1015 q 667 1069 710 1069 q 607 1057 636 1069 q 563 1018 578 1044 q 552 1001 557 1010 q 542 982 547 992 q 503 986 522 985 q 464 988 485 988 q 290 957 368 988 q 155 864 211 926 q 67 704 99 801 q 36 474 36 607 q 67 256 36 347 q 153 103 99 164 q 146 67 149 85 q 143 29 143 49 q 165 -47 143 -17 q 236 -78 186 -78 q 294 -56 268 -78 q 340 -4 319 -33 q 446 -15 393 -15 m 303 475 q 314 583 303 533 q 343 671 325 633 q 385 733 361 708 q 432 763 408 757 q 394 678 413 718 q 361 603 376 638 q 333 539 347 571 q 303 475 318 507 m 446 207 q 489 306 468 256 q 533 404 510 356 q 559 457 544 425 q 592 526 574 489 q 594 503 593 515 q 594 479 594 490 q 590 388 594 436 q 572 299 586 339 q 531 232 557 258 q 458 206 504 206 q 446 207 450 206 "},"":{"ha":810,"x_min":35,"x_max":775,"o":"m 253 1144 q 283 1095 253 1124 q 355 1041 314 1067 q 437 998 396 1015 q 499 981 478 981 q 542 999 525 981 q 558 1043 558 1017 q 535 1099 558 1067 q 481 1161 513 1132 q 413 1210 449 1190 q 354 1231 378 1231 q 319 1224 338 1231 q 287 1207 301 1218 q 263 1180 272 1196 q 253 1144 253 1164 m 408 -7 q 558 18 496 -7 q 660 87 619 43 q 724 190 700 131 q 758 318 747 250 q 772 460 769 386 q 775 608 775 535 l 775 743 q 769 842 775 797 q 748 918 764 886 q 703 968 732 950 q 628 986 674 986 q 543 956 576 986 q 510 871 510 926 q 514 728 510 799 q 518 585 518 657 q 516 437 518 501 q 503 328 514 372 q 469 260 492 283 q 404 238 446 238 q 351 260 371 238 q 322 315 332 282 q 308 387 311 349 q 306 458 306 425 q 308 603 306 531 q 311 747 311 675 q 308 822 311 782 q 293 898 306 863 q 256 957 281 933 q 185 981 231 981 q 101 947 131 981 q 56 853 71 913 q 38 715 42 793 q 35 546 35 636 q 42 347 35 446 q 84 170 49 249 q 195 42 119 92 q 408 -7 271 -7 "},"":{"ha":810,"x_min":35,"x_max":775,"o":"m 467 1060 q 526 1099 497 1079 q 558 1151 556 1119 q 553 1192 561 1174 q 530 1222 544 1210 q 496 1238 515 1233 q 456 1240 476 1243 q 398 1216 433 1236 q 330 1167 363 1196 q 274 1108 297 1139 q 250 1053 250 1078 q 266 1009 250 1028 q 308 990 282 990 q 347 998 325 990 q 390 1016 368 1006 q 433 1039 413 1026 q 467 1060 453 1051 m 408 -7 q 558 18 496 -7 q 660 87 619 43 q 724 190 700 131 q 758 318 747 250 q 772 460 769 386 q 775 608 775 535 l 775 743 q 769 842 775 797 q 748 918 764 886 q 703 968 732 950 q 628 986 674 986 q 543 956 576 986 q 510 871 510 926 q 514 728 510 799 q 518 585 518 657 q 516 437 518 501 q 503 328 514 372 q 469 260 492 283 q 404 238 446 238 q 351 260 371 238 q 322 315 332 282 q 308 387 311 349 q 306 458 306 425 q 308 603 306 531 q 311 747 311 675 q 308 822 311 782 q 293 898 306 863 q 256 957 281 933 q 185 981 231 981 q 101 947 131 981 q 56 853 71 913 q 38 715 42 793 q 35 546 35 636 q 42 347 35 446 q 84 170 49 249 q 195 42 119 92 q 408 -7 271 -7 "},"":{"ha":810,"x_min":35,"x_max":775,"o":"m 549 1003 q 603 1024 581 1003 q 626 1078 626 1044 q 600 1124 626 1097 q 538 1177 574 1151 q 465 1221 501 1203 q 410 1239 429 1239 q 352 1218 390 1239 q 276 1170 314 1197 q 211 1115 239 1143 q 183 1074 183 1088 q 208 1020 183 1040 q 263 1000 233 1000 q 310 1015 286 1000 q 353 1049 333 1031 q 389 1082 374 1067 q 411 1097 404 1097 q 433 1083 418 1097 q 467 1050 449 1068 q 508 1017 486 1032 q 549 1003 529 1003 m 408 -7 q 558 18 496 -7 q 660 87 619 43 q 724 190 700 131 q 758 318 747 250 q 772 460 769 386 q 775 608 775 535 l 775 743 q 769 842 775 797 q 748 918 764 886 q 703 968 732 950 q 628 986 674 986 q 543 956 576 986 q 510 871 510 926 q 514 728 510 799 q 518 585 518 657 q 516 437 518 501 q 503 328 514 372 q 469 260 492 283 q 404 238 446 238 q 351 260 371 238 q 322 315 332 282 q 308 387 311 349 q 306 458 306 425 q 308 603 306 531 q 311 747 311 675 q 308 822 311 782 q 293 898 306 863 q 256 957 281 933 q 185 981 231 981 q 101 947 131 981 q 56 853 71 913 q 38 715 42 793 q 35 546 35 636 q 42 347 35 446 q 84 170 49 249 q 195 42 119 92 q 408 -7 271 -7 "},"":{"ha":810,"x_min":35,"x_max":775,"o":"m 157 1108 q 193 1033 157 1060 q 275 1007 229 1007 q 356 1034 319 1007 q 392 1108 392 1061 q 382 1151 392 1132 q 356 1183 372 1169 q 318 1203 339 1196 q 275 1210 297 1210 q 231 1203 253 1210 q 193 1183 210 1196 q 167 1152 176 1171 q 157 1108 157 1133 m 419 1108 q 456 1033 419 1060 q 538 1007 492 1007 q 618 1034 582 1007 q 654 1108 654 1061 q 644 1151 654 1132 q 618 1183 635 1169 q 581 1203 601 1196 q 538 1210 560 1210 q 494 1203 515 1210 q 456 1183 472 1196 q 429 1152 439 1171 q 419 1108 419 1133 m 408 -7 q 558 18 496 -7 q 660 87 619 43 q 724 190 700 131 q 758 318 747 250 q 772 460 769 386 q 775 608 775 535 l 775 743 q 769 842 775 797 q 748 918 764 886 q 703 968 732 950 q 628 986 674 986 q 543 956 576 986 q 510 871 510 926 q 514 728 510 799 q 518 585 518 657 q 516 437 518 501 q 503 328 514 372 q 469 260 492 283 q 404 238 446 238 q 351 260 371 238 q 322 315 332 282 q 308 387 311 349 q 306 458 306 425 q 308 603 306 531 q 311 747 311 675 q 308 822 311 782 q 293 898 306 863 q 256 957 281 933 q 185 981 231 981 q 101 947 131 981 q 56 853 71 913 q 38 715 42 793 q 35 546 35 636 q 42 347 35 446 q 84 170 49 249 q 195 42 119 92 q 408 -7 271 -7 "},"":{"ha":729,"x_min":7,"x_max":722,"o":"m 426 1060 q 486 1099 457 1079 q 518 1151 515 1119 q 513 1192 521 1174 q 490 1222 504 1210 q 456 1238 475 1233 q 415 1240 436 1243 q 358 1216 393 1236 q 290 1167 322 1196 q 233 1108 257 1139 q 210 1053 210 1078 q 226 1009 210 1028 q 268 990 242 990 q 306 998 285 990 q 350 1016 328 1006 q 392 1039 372 1026 q 426 1060 413 1051 m 243 238 q 245 163 243 204 q 258 85 247 122 q 294 24 269 49 q 365 0 319 0 q 442 27 415 0 q 480 94 468 54 q 493 178 492 133 q 494 260 494 224 q 492 338 494 299 q 489 415 489 376 q 506 451 489 424 q 549 517 524 478 q 606 605 575 557 q 662 701 636 653 q 705 797 688 750 q 722 881 722 843 q 688 958 722 928 q 599 988 653 988 q 540 963 567 988 q 491 902 513 939 q 452 822 469 865 q 420 742 435 779 q 394 681 406 706 q 372 657 383 657 q 348 681 361 657 q 318 742 335 706 q 282 819 301 778 q 240 897 263 861 q 192 958 217 933 q 139 982 167 982 q 47 948 86 982 q 7 839 7 914 q 24 776 7 814 q 69 694 42 738 q 126 604 96 650 q 184 517 157 558 q 228 446 211 476 q 246 400 246 415 q 244 319 246 360 q 243 238 243 278 "},"":{"ha":835,"x_min":44,"x_max":803,"o":"m 803 529 q 773 672 803 611 q 692 774 743 733 q 574 835 642 815 q 431 856 507 856 q 398 853 417 856 q 363 849 379 851 q 333 846 346 847 q 315 844 319 844 q 295 866 300 847 q 290 904 290 885 q 267 965 290 936 q 192 994 244 994 q 125 979 149 994 q 83 925 101 964 q 67 856 74 903 q 56 750 60 810 q 51 624 53 690 q 49 497 50 558 q 49 383 49 435 q 50 301 50 332 q 47 190 50 246 q 56 91 44 135 q 101 20 67 47 q 213 -7 136 -7 q 265 8 247 -7 q 292 47 283 24 q 302 97 300 69 q 306 147 304 124 q 312 185 307 169 q 329 200 317 200 q 504 210 419 200 q 656 254 589 219 q 763 354 722 289 q 803 529 803 419 m 307 444 q 308 544 307 499 q 313 633 310 589 q 322 652 313 646 q 342 662 331 658 q 365 666 354 665 q 382 667 376 667 q 444 660 415 667 q 494 638 472 653 q 527 597 515 622 q 539 535 539 571 q 506 430 539 458 q 397 401 472 401 q 370 404 386 401 q 340 412 354 407 q 317 425 326 417 q 307 444 307 433 "},"":{"ha":814,"x_min":1,"x_max":788,"o":"m 332 732 q 341 772 332 760 q 374 783 350 783 q 414 780 393 783 q 452 767 435 776 q 481 742 469 758 q 493 703 493 726 q 474 658 493 682 q 433 604 456 633 q 391 540 410 575 q 372 463 372 504 q 398 373 372 413 q 454 303 424 333 q 510 249 485 272 q 536 211 536 226 q 526 182 536 190 q 499 172 515 174 q 465 169 483 169 q 430 162 446 168 q 403 140 414 156 q 393 93 393 125 q 517 -14 393 -14 q 615 -1 567 -14 q 701 38 663 11 q 764 105 740 64 q 788 201 788 146 q 762 319 788 271 q 705 402 736 368 q 648 457 674 436 q 622 490 622 478 q 642 522 622 504 q 685 564 661 539 q 729 622 710 589 q 749 701 749 656 q 710 824 749 771 q 612 914 671 878 q 484 969 553 950 q 357 988 415 988 q 258 976 311 988 q 161 940 206 965 q 88 876 117 915 q 58 779 58 836 q 65 717 58 747 q 72 657 72 688 q 61 626 72 638 q 37 603 50 615 q 13 574 24 592 q 1 522 1 556 q 31 458 1 475 q 101 442 60 442 l 110 433 q 108 424 108 429 q 108 415 108 419 l 108 308 q 107 249 108 282 q 107 181 106 215 q 115 114 108 147 q 136 55 121 81 q 176 14 151 29 q 242 -1 201 -1 q 286 3 267 -1 q 320 25 306 8 q 344 74 335 42 q 357 160 353 106 q 356 273 360 210 q 347 409 353 336 q 337 564 342 482 q 332 732 332 646 "},"":{"ha":835,"x_min":28,"x_max":794,"o":"m 265 1144 q 296 1095 265 1124 q 367 1041 326 1067 q 449 998 408 1015 q 511 981 490 981 q 554 999 538 981 q 571 1043 571 1017 q 548 1099 571 1067 q 493 1161 525 1132 q 426 1210 461 1190 q 367 1231 390 1231 q 332 1224 350 1231 q 299 1207 314 1218 q 275 1180 285 1196 q 265 1144 265 1164 m 667 -29 q 757 6 728 -29 q 789 100 786 42 q 794 307 794 204 q 794 514 794 410 q 777 707 794 619 q 715 857 760 794 q 594 954 671 919 q 399 989 518 989 q 303 982 357 989 q 200 955 249 975 q 118 900 151 935 q 85 811 85 865 q 95 773 85 790 q 121 743 106 756 q 155 724 136 731 q 192 717 174 717 q 291 728 244 717 q 390 739 338 739 q 442 738 419 739 q 482 727 465 736 q 508 699 499 718 q 517 647 517 681 q 512 642 517 644 q 494 650 507 640 q 456 669 479 661 q 390 678 432 678 q 242 656 308 678 q 127 588 175 633 q 53 474 79 543 q 28 314 28 406 q 49 185 28 246 q 111 81 71 125 q 209 10 151 36 q 338 -15 267 -15 q 417 0 383 -15 q 473 33 450 15 q 510 65 496 50 q 529 81 524 81 q 542 74 538 81 q 549 60 546 68 q 553 43 551 51 q 556 31 554 35 q 571 -2 560 10 q 598 -20 582 -14 q 632 -28 614 -26 q 667 -29 650 -29 m 508 457 q 530 422 524 442 q 536 361 536 401 q 528 311 536 336 q 503 266 519 286 q 460 233 486 246 q 401 221 435 221 q 317 254 349 221 q 286 335 286 288 q 322 443 286 399 q 431 488 357 488 q 476 478 454 488 q 508 457 497 468 "},"":{"ha":835,"x_min":28,"x_max":794,"o":"m 479 1060 q 539 1099 510 1079 q 571 1151 568 1119 q 565 1192 574 1174 q 542 1222 557 1210 q 508 1238 528 1233 q 468 1240 489 1243 q 410 1216 446 1236 q 342 1167 375 1196 q 286 1108 310 1139 q 263 1053 263 1078 q 278 1009 263 1028 q 321 990 294 990 q 359 998 338 990 q 403 1016 381 1006 q 445 1039 425 1026 q 479 1060 465 1051 m 667 -29 q 757 6 728 -29 q 789 100 786 42 q 794 307 794 204 q 794 514 794 410 q 777 707 794 619 q 715 857 760 794 q 594 954 671 919 q 399 989 518 989 q 303 982 357 989 q 200 955 249 975 q 118 900 151 935 q 85 811 85 865 q 95 773 85 790 q 121 743 106 756 q 155 724 136 731 q 192 717 174 717 q 291 728 244 717 q 390 739 338 739 q 442 738 419 739 q 482 727 465 736 q 508 699 499 718 q 517 647 517 681 q 512 642 517 644 q 494 650 507 640 q 456 669 479 661 q 390 678 432 678 q 242 656 308 678 q 127 588 175 633 q 53 474 79 543 q 28 314 28 406 q 49 185 28 246 q 111 81 71 125 q 209 10 151 36 q 338 -15 267 -15 q 417 0 383 -15 q 473 33 450 15 q 510 65 496 50 q 529 81 524 81 q 542 74 538 81 q 549 60 546 68 q 553 43 551 51 q 556 31 554 35 q 571 -2 560 10 q 598 -20 582 -14 q 632 -28 614 -26 q 667 -29 650 -29 m 508 457 q 530 422 524 442 q 536 361 536 401 q 528 311 536 336 q 503 266 519 286 q 460 233 486 246 q 401 221 435 221 q 317 254 349 221 q 286 335 286 288 q 322 443 286 399 q 431 488 357 488 q 476 478 454 488 q 508 457 497 468 "},"":{"ha":835,"x_min":28,"x_max":794,"o":"m 561 1003 q 616 1024 593 1003 q 639 1078 639 1044 q 613 1124 639 1097 q 550 1177 586 1151 q 478 1221 514 1203 q 422 1239 442 1239 q 365 1218 403 1239 q 289 1170 326 1197 q 224 1115 251 1143 q 196 1074 196 1088 q 221 1020 196 1040 q 275 1000 246 1000 q 322 1015 299 1000 q 366 1049 346 1031 q 401 1082 386 1067 q 424 1097 417 1097 q 446 1083 431 1097 q 480 1050 461 1068 q 520 1017 499 1032 q 561 1003 542 1003 m 667 -29 q 757 6 728 -29 q 789 100 786 42 q 794 307 794 204 q 794 514 794 410 q 777 707 794 619 q 715 857 760 794 q 594 954 671 919 q 399 989 518 989 q 303 982 357 989 q 200 955 249 975 q 118 900 151 935 q 85 811 85 865 q 95 773 85 790 q 121 743 106 756 q 155 724 136 731 q 192 717 174 717 q 291 728 244 717 q 390 739 338 739 q 442 738 419 739 q 482 727 465 736 q 508 699 499 718 q 517 647 517 681 q 512 642 517 644 q 494 650 507 640 q 456 669 479 661 q 390 678 432 678 q 242 656 308 678 q 127 588 175 633 q 53 474 79 543 q 28 314 28 406 q 49 185 28 246 q 111 81 71 125 q 209 10 151 36 q 338 -15 267 -15 q 417 0 383 -15 q 473 33 450 15 q 510 65 496 50 q 529 81 524 81 q 542 74 538 81 q 549 60 546 68 q 553 43 551 51 q 556 31 554 35 q 571 -2 560 10 q 598 -20 582 -14 q 632 -28 614 -26 q 667 -29 650 -29 m 508 457 q 530 422 524 442 q 536 361 536 401 q 528 311 536 336 q 503 266 519 286 q 460 233 486 246 q 401 221 435 221 q 317 254 349 221 q 286 335 286 288 q 322 443 286 399 q 431 488 357 488 q 476 478 454 488 q 508 457 497 468 "},"":{"ha":835,"x_min":28,"x_max":794,"o":"m 356 1044 q 380 1036 368 1044 q 408 1017 392 1028 q 446 998 424 1007 q 501 989 468 989 q 565 999 535 989 q 620 1028 596 1010 q 658 1072 644 1047 q 672 1125 672 1097 q 650 1204 672 1182 q 592 1226 628 1226 q 555 1218 571 1226 q 525 1199 539 1210 q 501 1180 511 1189 q 479 1171 490 1171 q 451 1180 465 1171 q 417 1199 436 1189 q 374 1219 399 1210 q 315 1228 350 1228 q 263 1216 290 1228 q 215 1183 236 1204 q 178 1135 193 1163 q 164 1079 164 1108 q 194 1019 164 1040 q 261 997 224 997 q 288 1005 276 997 q 308 1021 299 1013 q 328 1037 318 1029 q 356 1044 339 1044 m 667 -29 q 757 6 728 -29 q 789 100 786 42 q 794 307 794 204 q 794 514 794 410 q 777 707 794 619 q 715 857 760 794 q 594 954 671 919 q 399 989 518 989 q 303 982 357 989 q 200 955 249 975 q 118 900 151 935 q 85 811 85 865 q 95 773 85 790 q 121 743 106 756 q 155 724 136 731 q 192 717 174 717 q 291 728 244 717 q 390 739 338 739 q 442 738 419 739 q 482 727 465 736 q 508 699 499 718 q 517 647 517 681 q 512 642 517 644 q 494 650 507 640 q 456 669 479 661 q 390 678 432 678 q 242 656 308 678 q 127 588 175 633 q 53 474 79 543 q 28 314 28 406 q 49 185 28 246 q 111 81 71 125 q 209 10 151 36 q 338 -15 267 -15 q 417 0 383 -15 q 473 33 450 15 q 510 65 496 50 q 529 81 524 81 q 542 74 538 81 q 549 60 546 68 q 553 43 551 51 q 556 31 554 35 q 571 -2 560 10 q 598 -20 582 -14 q 632 -28 614 -26 q 667 -29 650 -29 m 508 457 q 530 422 524 442 q 536 361 536 401 q 528 311 536 336 q 503 266 519 286 q 460 233 486 246 q 401 221 435 221 q 317 254 349 221 q 286 335 286 288 q 322 443 286 399 q 431 488 357 488 q 476 478 454 488 q 508 457 497 468 "},"":{"ha":835,"x_min":28,"x_max":794,"o":"m 169 1108 q 206 1033 169 1060 q 288 1007 242 1007 q 368 1034 332 1007 q 404 1108 404 1061 q 394 1151 404 1132 q 368 1183 385 1169 q 331 1203 351 1196 q 288 1210 310 1210 q 244 1203 265 1210 q 206 1183 222 1196 q 179 1152 189 1171 q 169 1108 169 1133 m 432 1108 q 468 1033 432 1060 q 550 1007 504 1007 q 631 1034 594 1007 q 667 1108 667 1061 q 657 1151 667 1132 q 631 1183 647 1169 q 593 1203 614 1196 q 550 1210 572 1210 q 506 1203 528 1210 q 468 1183 485 1196 q 442 1152 451 1171 q 432 1108 432 1133 m 667 -29 q 757 6 728 -29 q 789 100 786 42 q 794 307 794 204 q 794 514 794 410 q 777 707 794 619 q 715 857 760 794 q 594 954 671 919 q 399 989 518 989 q 303 982 357 989 q 200 955 249 975 q 118 900 151 935 q 85 811 85 865 q 95 773 85 790 q 121 743 106 756 q 155 724 136 731 q 192 717 174 717 q 291 728 244 717 q 390 739 338 739 q 442 738 419 739 q 482 727 465 736 q 508 699 499 718 q 517 647 517 681 q 512 642 517 644 q 494 650 507 640 q 456 669 479 661 q 390 678 432 678 q 242 656 308 678 q 127 588 175 633 q 53 474 79 543 q 28 314 28 406 q 49 185 28 246 q 111 81 71 125 q 209 10 151 36 q 338 -15 267 -15 q 417 0 383 -15 q 473 33 450 15 q 510 65 496 50 q 529 81 524 81 q 542 74 538 81 q 549 60 546 68 q 553 43 551 51 q 556 31 554 35 q 571 -2 560 10 q 598 -20 582 -14 q 632 -28 614 -26 q 667 -29 650 -29 m 508 457 q 530 422 524 442 q 536 361 536 401 q 528 311 536 336 q 503 266 519 286 q 460 233 486 246 q 401 221 435 221 q 317 254 349 221 q 286 335 286 288 q 322 443 286 399 q 431 488 357 488 q 476 478 454 488 q 508 457 497 468 "},"":{"ha":835,"x_min":28,"x_max":794,"o":"m 667 -29 q 757 6 728 -29 q 789 100 786 42 q 794 307 794 204 q 794 514 794 410 q 780 694 794 613 q 728 838 765 776 q 627 938 690 900 q 467 986 564 976 q 578 1031 536 996 q 619 1132 619 1065 q 605 1196 619 1169 q 564 1238 590 1222 q 501 1261 538 1254 q 422 1268 465 1268 q 340 1260 378 1268 q 275 1235 303 1253 q 232 1190 247 1218 q 217 1122 217 1163 q 251 1028 217 1060 q 344 986 286 996 q 257 972 303 982 q 173 942 211 963 q 110 890 135 922 q 85 811 85 858 q 95 773 85 790 q 121 743 106 756 q 155 724 136 731 q 192 717 174 717 q 291 728 244 717 q 390 739 338 739 q 442 738 419 739 q 482 727 465 736 q 508 699 499 718 q 517 647 517 681 q 512 642 517 644 q 494 650 507 640 q 456 669 479 661 q 390 678 432 678 q 242 656 308 678 q 127 588 175 633 q 53 474 79 543 q 28 314 28 406 q 49 185 28 246 q 111 81 71 125 q 209 10 151 36 q 338 -15 267 -15 q 417 0 383 -15 q 473 33 450 15 q 510 65 496 50 q 529 81 524 81 q 542 74 538 81 q 549 60 546 68 q 553 43 551 51 q 556 31 554 35 q 571 -2 560 10 q 598 -20 582 -14 q 632 -28 614 -26 q 667 -29 650 -29 m 361 1125 q 381 1155 361 1144 q 419 1165 400 1165 q 457 1156 439 1165 q 475 1126 475 1146 q 455 1096 475 1107 q 415 1085 435 1085 q 378 1095 396 1085 q 361 1125 361 1106 m 508 457 q 530 422 524 442 q 536 361 536 401 q 528 311 536 336 q 503 266 519 286 q 460 233 486 246 q 401 221 435 221 q 317 254 349 221 q 286 335 286 288 q 322 443 286 399 q 431 488 357 488 q 476 478 454 488 q 508 457 497 468 "},"":{"ha":1297,"x_min":28,"x_max":1265,"o":"m 667 -29 q 767 19 736 -29 q 935 -12 839 -12 q 1069 2 1008 -12 q 1173 45 1129 17 q 1241 116 1217 74 q 1265 214 1265 158 q 1244 278 1265 250 q 1183 306 1224 306 q 1130 294 1149 306 q 1091 267 1111 282 q 1042 240 1071 253 q 958 228 1013 228 q 890 236 917 228 q 848 258 864 244 q 824 291 832 272 q 814 331 817 310 q 816 369 810 364 q 836 369 822 375 q 883 357 858 363 q 944 351 908 351 q 1063 371 1007 351 q 1161 430 1119 390 q 1228 529 1203 469 q 1253 669 1253 589 q 1224 807 1253 747 q 1146 907 1194 867 q 1033 968 1097 947 q 897 989 968 989 q 767 967 822 989 q 671 906 711 944 q 558 967 625 946 q 399 989 492 989 q 303 982 357 989 q 200 955 249 975 q 118 900 151 935 q 85 811 85 865 q 95 773 85 790 q 121 743 106 756 q 155 724 136 731 q 192 717 174 717 q 291 728 244 717 q 390 739 338 739 q 442 738 419 739 q 482 727 465 736 q 508 699 499 718 q 517 647 517 681 q 512 642 517 644 q 494 650 507 640 q 456 669 479 661 q 390 678 432 678 q 242 656 308 678 q 127 588 175 633 q 53 474 79 543 q 28 314 28 406 q 49 185 28 246 q 111 81 71 125 q 209 10 151 36 q 338 -15 267 -15 q 417 0 383 -15 q 473 33 450 15 q 510 65 496 50 q 529 81 524 81 q 542 74 538 81 q 549 60 546 68 q 553 43 551 51 q 556 31 554 35 q 571 -2 560 10 q 598 -20 582 -14 q 632 -28 614 -26 q 667 -29 650 -29 m 804 651 q 828 738 804 704 q 899 771 851 771 q 985 740 957 771 q 1013 671 1013 710 q 1005 626 1013 649 q 983 584 997 603 q 948 554 968 565 q 903 543 928 543 q 873 550 890 543 q 840 571 856 557 q 815 605 825 585 q 804 651 804 625 m 508 457 q 530 422 524 442 q 536 361 536 401 q 528 311 536 336 q 503 266 519 286 q 460 233 486 246 q 401 221 435 221 q 317 254 349 221 q 286 335 286 288 q 322 443 286 399 q 431 488 357 488 q 476 478 454 488 q 508 457 497 468 "},"":{"ha":788,"x_min":28,"x_max":765,"o":"m 458 229 q 363 254 394 229 q 318 320 331 279 q 306 411 306 361 q 306 511 306 461 q 313 590 306 544 q 335 678 319 636 q 376 748 350 719 q 440 776 401 776 q 477 767 463 776 q 501 741 492 757 q 515 705 510 725 q 522 663 519 685 q 528 591 526 625 q 538 532 529 557 q 565 492 546 507 q 626 476 585 476 q 686 492 663 476 q 724 531 710 507 q 743 585 738 556 q 749 646 749 615 q 726 793 749 728 q 659 906 703 858 q 552 978 615 953 q 408 1003 489 1003 q 225 958 299 1003 q 108 839 151 913 q 46 669 64 765 q 28 474 28 574 q 40 310 28 386 q 83 173 53 233 q 161 69 113 113 q 281 6 210 26 q 274 -21 276 -7 q 271 -49 271 -35 q 281 -73 271 -65 q 306 -86 292 -81 q 338 -98 321 -92 q 369 -118 356 -104 q 372 -124 371 -119 q 374 -131 374 -129 q 371 -137 374 -132 q 367 -142 368 -142 q 327 -147 347 -146 q 291 -153 307 -147 q 265 -170 275 -158 q 254 -208 254 -182 q 264 -245 254 -229 q 289 -272 274 -261 q 323 -289 304 -283 q 360 -294 342 -294 q 424 -282 393 -294 q 481 -247 456 -269 q 520 -195 506 -225 q 535 -131 535 -165 q 524 -78 535 -97 q 499 -49 514 -60 q 469 -31 485 -37 q 444 -14 454 -24 q 542 -1 486 -12 q 647 32 597 10 q 731 90 697 54 q 765 176 765 125 q 740 260 765 224 q 668 296 714 296 q 610 285 631 296 q 570 263 589 275 q 527 240 551 250 q 458 229 503 229 "},"":{"ha":796,"x_min":36,"x_max":764,"o":"m 246 1144 q 276 1095 246 1124 q 348 1041 307 1067 q 430 998 389 1015 q 492 981 471 981 q 535 999 518 981 q 551 1043 551 1017 q 528 1099 551 1067 q 474 1161 506 1132 q 406 1210 442 1190 q 347 1231 371 1231 q 313 1224 331 1231 q 280 1207 294 1218 q 256 1180 265 1196 q 246 1144 246 1164 m 335 369 q 382 357 357 363 q 443 351 407 351 q 562 371 506 351 q 660 430 618 390 q 726 529 701 469 q 751 669 751 589 q 722 807 751 747 q 644 907 693 867 q 531 968 596 947 q 396 989 467 989 q 215 941 285 989 q 105 817 144 893 q 51 647 65 742 q 36 460 36 553 q 59 278 36 364 q 130 128 82 193 q 253 26 178 64 q 433 -12 328 -12 q 567 2 507 -12 q 672 45 628 17 q 740 116 715 74 q 764 214 764 158 q 743 278 764 250 q 682 306 722 306 q 628 294 647 306 q 590 267 610 282 q 540 240 569 253 q 457 228 511 228 q 389 236 415 228 q 347 258 363 244 q 323 291 331 272 q 313 331 315 310 q 315 369 308 364 q 335 369 321 375 m 303 651 q 326 738 303 704 q 397 771 350 771 q 483 740 456 771 q 511 671 511 710 q 503 626 511 649 q 481 584 496 603 q 447 554 467 565 q 401 543 426 543 q 372 550 389 543 q 339 571 354 557 q 313 605 324 585 q 303 651 303 625 "},"":{"ha":796,"x_min":36,"x_max":764,"o":"m 460 1060 q 519 1099 490 1079 q 551 1151 549 1119 q 546 1192 554 1174 q 523 1222 538 1210 q 489 1238 508 1233 q 449 1240 469 1243 q 391 1216 426 1236 q 323 1167 356 1196 q 267 1108 290 1139 q 243 1053 243 1078 q 259 1009 243 1028 q 301 990 275 990 q 340 998 318 990 q 383 1016 361 1006 q 426 1039 406 1026 q 460 1060 446 1051 m 335 369 q 382 357 357 363 q 443 351 407 351 q 562 371 506 351 q 660 430 618 390 q 726 529 701 469 q 751 669 751 589 q 722 807 751 747 q 644 907 693 867 q 531 968 596 947 q 396 989 467 989 q 215 941 285 989 q 105 817 144 893 q 51 647 65 742 q 36 460 36 553 q 59 278 36 364 q 130 128 82 193 q 253 26 178 64 q 433 -12 328 -12 q 567 2 507 -12 q 672 45 628 17 q 740 116 715 74 q 764 214 764 158 q 743 278 764 250 q 682 306 722 306 q 628 294 647 306 q 590 267 610 282 q 540 240 569 253 q 457 228 511 228 q 389 236 415 228 q 347 258 363 244 q 323 291 331 272 q 313 331 315 310 q 315 369 308 364 q 335 369 321 375 m 303 651 q 326 738 303 704 q 397 771 350 771 q 483 740 456 771 q 511 671 511 710 q 503 626 511 649 q 481 584 496 603 q 447 554 467 565 q 401 543 426 543 q 372 550 389 543 q 339 571 354 557 q 313 605 324 585 q 303 651 303 625 "},"":{"ha":796,"x_min":36,"x_max":764,"o":"m 542 1003 q 597 1024 574 1003 q 619 1078 619 1044 q 593 1124 619 1097 q 531 1177 567 1151 q 458 1221 494 1203 q 403 1239 422 1239 q 345 1218 383 1239 q 269 1170 307 1197 q 204 1115 232 1143 q 176 1074 176 1088 q 201 1020 176 1040 q 256 1000 226 1000 q 303 1015 279 1000 q 347 1049 326 1031 q 382 1082 367 1067 q 404 1097 397 1097 q 426 1083 411 1097 q 460 1050 442 1068 q 501 1017 479 1032 q 542 1003 522 1003 m 335 369 q 382 357 357 363 q 443 351 407 351 q 562 371 506 351 q 660 430 618 390 q 726 529 701 469 q 751 669 751 589 q 722 807 751 747 q 644 907 693 867 q 531 968 596 947 q 396 989 467 989 q 215 941 285 989 q 105 817 144 893 q 51 647 65 742 q 36 460 36 553 q 59 278 36 364 q 130 128 82 193 q 253 26 178 64 q 433 -12 328 -12 q 567 2 507 -12 q 672 45 628 17 q 740 116 715 74 q 764 214 764 158 q 743 278 764 250 q 682 306 722 306 q 628 294 647 306 q 590 267 610 282 q 540 240 569 253 q 457 228 511 228 q 389 236 415 228 q 347 258 363 244 q 323 291 331 272 q 313 331 315 310 q 315 369 308 364 q 335 369 321 375 m 303 651 q 326 738 303 704 q 397 771 350 771 q 483 740 456 771 q 511 671 511 710 q 503 626 511 649 q 481 584 496 603 q 447 554 467 565 q 401 543 426 543 q 372 550 389 543 q 339 571 354 557 q 313 605 324 585 q 303 651 303 625 "},"":{"ha":796,"x_min":36,"x_max":764,"o":"m 150 1108 q 186 1033 150 1060 q 268 1007 222 1007 q 349 1034 313 1007 q 385 1108 385 1061 q 375 1151 385 1132 q 349 1183 365 1169 q 311 1203 332 1196 q 268 1210 290 1210 q 224 1203 246 1210 q 186 1183 203 1196 q 160 1152 169 1171 q 150 1108 150 1133 m 413 1108 q 449 1033 413 1060 q 531 1007 485 1007 q 611 1034 575 1007 q 647 1108 647 1061 q 638 1151 647 1132 q 611 1183 628 1169 q 574 1203 594 1196 q 531 1210 553 1210 q 487 1203 508 1210 q 449 1183 465 1196 q 422 1152 432 1171 q 413 1108 413 1133 m 335 369 q 382 357 357 363 q 443 351 407 351 q 562 371 506 351 q 660 430 618 390 q 726 529 701 469 q 751 669 751 589 q 722 807 751 747 q 644 907 693 867 q 531 968 596 947 q 396 989 467 989 q 215 941 285 989 q 105 817 144 893 q 51 647 65 742 q 36 460 36 553 q 59 278 36 364 q 130 128 82 193 q 253 26 178 64 q 433 -12 328 -12 q 567 2 507 -12 q 672 45 628 17 q 740 116 715 74 q 764 214 764 158 q 743 278 764 250 q 682 306 722 306 q 628 294 647 306 q 590 267 610 282 q 540 240 569 253 q 457 228 511 228 q 389 236 415 228 q 347 258 363 244 q 323 291 331 272 q 313 331 315 310 q 315 369 308 364 q 335 369 321 375 m 303 651 q 326 738 303 704 q 397 771 350 771 q 483 740 456 771 q 511 671 511 710 q 503 626 511 649 q 481 584 496 603 q 447 554 467 565 q 401 543 426 543 q 372 550 389 543 q 339 571 354 557 q 313 605 324 585 q 303 651 303 625 "},"":{"ha":336,"x_min":15,"x_max":321,"o":"m 15 1144 q 46 1095 15 1124 q 117 1041 76 1067 q 199 998 158 1015 q 261 981 240 981 q 304 999 288 981 q 321 1043 321 1017 q 298 1099 321 1067 q 243 1161 275 1132 q 176 1210 211 1190 q 117 1231 140 1231 q 82 1224 100 1231 q 49 1207 64 1218 q 25 1180 35 1196 q 15 1144 15 1164 m 38 829 q 38 739 38 796 q 37 613 38 682 q 36 469 36 544 q 35 324 36 393 q 35 199 35 256 q 35 108 35 142 q 39 47 35 75 q 58 0 43 19 q 99 -31 72 -19 q 172 -42 126 -42 q 230 -28 206 -42 q 270 7 254 -15 q 294 58 286 29 q 301 115 301 86 l 301 854 q 290 913 301 890 q 259 949 278 936 q 217 965 240 961 q 168 967 193 968 q 119 958 143 965 q 78 935 96 950 q 49 894 60 919 q 38 829 38 868 "},"":{"ha":336,"x_min":14,"x_max":325,"o":"m 231 1060 q 290 1099 261 1079 q 322 1151 319 1119 q 317 1192 325 1174 q 294 1222 308 1210 q 260 1238 279 1233 q 219 1240 240 1243 q 162 1216 197 1236 q 94 1167 126 1196 q 38 1108 61 1139 q 14 1053 14 1078 q 30 1009 14 1028 q 72 990 46 990 q 110 998 89 990 q 154 1016 132 1006 q 197 1039 176 1026 q 231 1060 217 1051 m 38 829 q 38 739 38 796 q 37 613 38 682 q 36 469 36 544 q 35 324 36 393 q 35 199 35 256 q 35 108 35 142 q 39 47 35 75 q 58 0 43 19 q 99 -31 72 -19 q 172 -42 126 -42 q 230 -28 206 -42 q 270 7 254 -15 q 294 58 286 29 q 301 115 301 86 l 301 854 q 290 913 301 890 q 259 949 278 936 q 217 965 240 961 q 168 967 193 968 q 119 958 143 965 q 78 935 96 950 q 49 894 60 919 q 38 829 38 868 "},"":{"ha":336,"x_min":-54,"x_max":389,"o":"m 311 1003 q 366 1024 343 1003 q 389 1078 389 1044 q 363 1124 389 1097 q 300 1177 336 1151 q 228 1221 264 1203 q 172 1239 192 1239 q 115 1218 153 1239 q 39 1170 76 1197 q -26 1115 1 1143 q -54 1074 -54 1088 q -29 1020 -54 1040 q 25 1000 -4 1000 q 72 1015 49 1000 q 116 1049 96 1031 q 151 1082 136 1067 q 174 1097 167 1097 q 196 1083 181 1097 q 230 1050 211 1068 q 270 1017 249 1032 q 311 1003 292 1003 m 38 829 q 38 739 38 796 q 37 613 38 682 q 36 469 36 544 q 35 324 36 393 q 35 199 35 256 q 35 108 35 142 q 39 47 35 75 q 58 0 43 19 q 99 -31 72 -19 q 172 -42 126 -42 q 230 -28 206 -42 q 270 7 254 -15 q 294 58 286 29 q 301 115 301 86 l 301 854 q 290 913 301 890 q 259 949 278 936 q 217 965 240 961 q 168 967 193 968 q 119 958 143 965 q 78 935 96 950 q 49 894 60 919 q 38 829 38 868 "},"":{"ha":336,"x_min":-81,"x_max":417,"o":"m -81 1108 q -44 1033 -81 1060 q 38 1007 -8 1007 q 118 1034 82 1007 q 154 1108 154 1061 q 144 1151 154 1132 q 118 1183 135 1169 q 81 1203 101 1196 q 38 1210 60 1210 q -6 1203 15 1210 q -44 1183 -28 1196 q -71 1152 -61 1171 q -81 1108 -81 1133 m 182 1108 q 218 1033 182 1060 q 300 1007 254 1007 q 381 1034 344 1007 q 417 1108 417 1061 q 407 1151 417 1132 q 381 1183 397 1169 q 343 1203 364 1196 q 300 1210 322 1210 q 256 1203 278 1210 q 218 1183 235 1196 q 192 1152 201 1171 q 182 1108 182 1133 m 38 829 q 38 739 38 796 q 37 613 38 682 q 36 469 36 544 q 35 324 36 393 q 35 199 35 256 q 35 108 35 142 q 39 47 35 75 q 58 0 43 19 q 99 -31 72 -19 q 172 -42 126 -42 q 230 -28 206 -42 q 270 7 254 -15 q 294 58 286 29 q 301 115 301 86 l 301 854 q 290 913 301 890 q 259 949 278 936 q 217 965 240 961 q 168 967 193 968 q 119 958 143 965 q 78 935 96 950 q 49 894 60 919 q 38 829 38 868 "},"":{"ha":801,"x_min":24,"x_max":776,"o":"m 24 322 q 56 186 24 249 q 143 78 89 124 q 266 6 197 32 q 407 -19 335 -19 q 574 17 504 -19 q 689 116 644 54 q 755 258 733 178 q 776 426 776 339 q 741 617 776 525 q 657 794 706 710 q 643 815 653 801 q 633 835 633 828 q 638 852 633 846 q 650 865 643 858 l 663 876 q 674 890 669 883 q 679 907 679 896 q 660 945 679 929 q 607 961 640 961 q 556 949 579 961 q 514 936 533 936 q 496 940 504 936 q 385 981 439 967 q 269 994 332 994 q 219 993 247 994 q 169 983 192 992 q 130 958 146 975 q 114 910 114 940 q 133 867 114 881 q 178 847 151 854 q 233 836 204 840 q 279 822 261 832 q 278 808 289 818 q 250 786 267 799 q 217 760 233 774 q 201 735 201 747 q 225 678 201 692 q 266 672 242 668 q 317 685 290 675 q 372 708 344 694 q 424 732 400 722 q 443 723 431 735 q 468 692 456 711 q 492 651 481 672 q 508 614 504 629 q 511 597 513 603 q 501 593 510 590 q 328 632 414 631 q 176 600 243 633 q 66 497 108 567 q 24 322 24 428 m 542 397 l 542 385 q 535 313 542 351 q 510 240 528 274 q 465 185 493 207 q 392 163 436 163 q 338 176 361 163 q 298 213 314 190 q 274 264 282 236 q 265 319 265 292 q 274 376 265 349 q 301 426 283 404 q 343 460 318 447 q 400 474 368 474 q 444 469 419 474 q 490 454 468 464 q 526 430 511 444 q 542 397 542 415 "},"":{"ha":788,"x_min":38,"x_max":757,"o":"m 411 757 q 463 742 444 757 q 491 703 482 728 q 503 648 500 679 q 506 582 506 617 q 503 467 506 524 q 500 353 500 411 q 501 296 500 331 q 505 222 501 261 q 516 144 508 183 q 538 72 524 104 q 575 20 553 40 q 629 0 597 0 q 706 40 681 0 q 742 135 732 81 q 753 248 753 190 q 754 340 754 306 q 756 409 754 375 q 757 478 757 443 q 755 553 757 510 q 749 640 753 596 q 738 727 744 685 q 725 799 732 769 q 647 940 701 894 q 497 990 592 986 q 555 1005 528 993 q 603 1035 582 1017 q 636 1076 624 1053 q 649 1125 649 1099 q 626 1204 649 1182 q 568 1226 604 1226 q 531 1218 547 1226 q 501 1199 515 1210 q 477 1180 488 1189 q 456 1171 467 1171 q 427 1180 442 1171 q 394 1199 413 1189 q 351 1219 375 1210 q 292 1228 326 1228 q 240 1216 267 1228 q 191 1183 213 1204 q 155 1135 169 1163 q 140 1079 140 1108 q 170 1019 140 1040 q 238 997 200 997 q 264 1005 253 997 q 285 1021 275 1013 q 305 1037 294 1029 q 332 1044 315 1044 q 353 1037 343 1044 q 378 1019 364 1029 q 413 1001 393 1010 q 460 990 432 993 q 389 969 415 986 q 347 931 363 951 q 324 895 332 911 q 307 879 315 879 q 288 895 294 879 q 272 931 282 911 q 243 967 263 951 q 185 983 224 983 q 118 962 144 983 q 76 906 92 940 q 53 828 60 871 q 43 741 46 785 q 40 658 40 697 q 40 593 40 619 l 39 404 q 38 333 39 375 q 41 247 38 292 q 53 157 44 201 q 81 77 63 113 q 128 20 99 42 q 203 -1 158 -1 q 256 15 236 -1 q 284 58 275 32 q 295 113 293 83 q 297 167 297 142 q 294 255 297 211 q 292 343 292 299 q 324 649 292 542 q 411 757 357 757 "},"":{"ha":854,"x_min":32,"x_max":822,"o":"m 822 503 q 811 669 822 590 q 769 813 800 749 q 683 922 738 878 q 540 983 628 967 q 569 1006 558 990 q 581 1043 581 1022 q 558 1099 581 1067 q 503 1161 535 1132 q 435 1210 471 1190 q 376 1231 400 1231 q 342 1224 360 1231 q 309 1207 324 1218 q 285 1180 294 1196 q 275 1144 275 1164 q 296 1106 275 1128 q 347 1062 317 1083 q 411 1022 376 1040 q 475 992 446 1003 q 456 993 465 993 q 435 993 446 993 q 279 972 344 993 q 169 913 214 950 q 98 825 125 875 q 56 719 71 775 q 37 603 42 663 q 32 485 32 543 q 44 286 32 378 q 98 128 57 194 q 217 23 139 61 q 425 -15 294 -15 q 627 26 550 -15 q 748 139 704 68 q 807 304 792 210 q 822 503 822 399 m 425 200 q 356 223 382 200 q 317 285 331 246 q 299 377 303 325 q 294 489 294 429 q 300 609 294 556 q 321 700 306 663 q 365 757 336 738 q 440 776 394 776 q 503 760 479 776 q 541 710 528 743 q 558 628 554 676 q 563 515 563 579 q 557 392 563 450 q 536 292 551 335 q 494 225 521 250 q 425 200 468 200 "},"":{"ha":854,"x_min":32,"x_max":822,"o":"m 489 1060 q 549 1099 519 1079 q 581 1151 578 1119 q 575 1192 583 1174 q 552 1222 567 1210 q 518 1238 538 1233 q 478 1240 499 1243 q 420 1216 456 1236 q 352 1167 385 1196 q 296 1108 319 1139 q 272 1053 272 1078 q 288 1009 272 1028 q 331 990 304 990 q 369 998 347 990 q 413 1016 390 1006 q 455 1039 435 1026 q 489 1060 475 1051 m 822 503 q 808 690 822 601 q 751 847 793 779 q 633 953 708 914 q 435 993 557 993 q 279 972 344 993 q 169 913 214 950 q 98 825 125 875 q 56 719 71 775 q 37 603 42 663 q 32 485 32 543 q 44 286 32 378 q 98 128 57 194 q 217 23 139 61 q 425 -15 294 -15 q 627 26 550 -15 q 748 139 704 68 q 807 304 792 210 q 822 503 822 399 m 425 200 q 356 223 382 200 q 317 285 331 246 q 299 377 303 325 q 294 489 294 429 q 300 609 294 556 q 321 700 306 663 q 365 757 336 738 q 440 776 394 776 q 503 760 479 776 q 541 710 528 743 q 558 628 554 676 q 563 515 563 579 q 557 392 563 450 q 536 292 551 335 q 494 225 521 250 q 425 200 468 200 "},"":{"ha":854,"x_min":32,"x_max":822,"o":"m 571 1003 q 626 1024 603 1003 q 649 1078 649 1044 q 622 1124 649 1097 q 560 1177 596 1151 q 488 1221 524 1203 q 432 1239 451 1239 q 374 1218 413 1239 q 299 1170 336 1197 q 233 1115 261 1143 q 206 1074 206 1088 q 231 1020 206 1040 q 285 1000 256 1000 q 332 1015 308 1000 q 376 1049 356 1031 q 411 1082 396 1067 q 433 1097 426 1097 q 456 1083 440 1097 q 490 1050 471 1068 q 530 1017 508 1032 q 571 1003 551 1003 m 822 503 q 808 690 822 601 q 751 847 793 779 q 633 953 708 914 q 435 993 557 993 q 279 972 344 993 q 169 913 214 950 q 98 825 125 875 q 56 719 71 775 q 37 603 42 663 q 32 485 32 543 q 44 286 32 378 q 98 128 57 194 q 217 23 139 61 q 425 -15 294 -15 q 627 26 550 -15 q 748 139 704 68 q 807 304 792 210 q 822 503 822 399 m 425 200 q 356 223 382 200 q 317 285 331 246 q 299 377 303 325 q 294 489 294 429 q 300 609 294 556 q 321 700 306 663 q 365 757 336 738 q 440 776 394 776 q 503 760 479 776 q 541 710 528 743 q 558 628 554 676 q 563 515 563 579 q 557 392 563 450 q 536 292 551 335 q 494 225 521 250 q 425 200 468 200 "},"":{"ha":854,"x_min":32,"x_max":822,"o":"m 822 503 q 810 677 822 594 q 763 825 797 760 q 667 933 729 890 q 507 989 606 976 l 511 989 q 575 999 544 989 q 630 1028 606 1010 q 668 1072 654 1047 q 682 1125 682 1097 q 660 1204 682 1182 q 601 1226 638 1226 q 565 1218 581 1226 q 535 1199 549 1210 q 510 1180 521 1189 q 489 1171 500 1171 q 460 1180 475 1171 q 427 1199 446 1189 q 384 1219 408 1210 q 325 1228 360 1228 q 273 1216 300 1228 q 224 1183 246 1204 q 188 1135 203 1163 q 174 1079 174 1108 q 203 1019 174 1040 q 271 997 233 997 q 297 1005 286 997 q 318 1021 308 1013 q 338 1037 328 1029 q 365 1044 349 1044 q 386 1038 376 1044 q 408 1022 396 1031 q 438 1005 421 1014 q 479 992 456 996 q 457 993 468 993 q 435 993 446 993 q 279 972 344 993 q 169 913 214 950 q 98 825 125 875 q 56 719 71 775 q 37 603 42 663 q 32 485 32 543 q 44 286 32 378 q 98 128 57 194 q 217 23 139 61 q 425 -15 294 -15 q 627 26 550 -15 q 748 139 704 68 q 807 304 792 210 q 822 503 822 399 m 425 200 q 356 223 382 200 q 317 285 331 246 q 299 377 303 325 q 294 489 294 429 q 300 609 294 556 q 321 700 306 663 q 365 757 336 738 q 440 776 394 776 q 503 760 479 776 q 541 710 528 743 q 558 628 554 676 q 563 515 563 579 q 557 392 563 450 q 536 292 551 335 q 494 225 521 250 q 425 200 468 200 "},"":{"ha":854,"x_min":32,"x_max":822,"o":"m 179 1108 q 215 1033 179 1060 q 297 1007 251 1007 q 378 1034 342 1007 q 414 1108 414 1061 q 404 1151 414 1132 q 378 1183 394 1169 q 340 1203 361 1196 q 297 1210 319 1210 q 253 1203 275 1210 q 215 1183 232 1196 q 189 1152 199 1171 q 179 1108 179 1133 m 442 1108 q 478 1033 442 1060 q 560 1007 514 1007 q 640 1034 604 1007 q 676 1108 676 1061 q 667 1151 676 1132 q 640 1183 657 1169 q 603 1203 624 1196 q 560 1210 582 1210 q 516 1203 538 1210 q 478 1183 494 1196 q 451 1152 461 1171 q 442 1108 442 1133 m 822 503 q 808 690 822 601 q 751 847 793 779 q 633 953 708 914 q 435 993 557 993 q 279 972 344 993 q 169 913 214 950 q 98 825 125 875 q 56 719 71 775 q 37 603 42 663 q 32 485 32 543 q 44 286 32 378 q 98 128 57 194 q 217 23 139 61 q 425 -15 294 -15 q 627 26 550 -15 q 748 139 704 68 q 807 304 792 210 q 822 503 822 399 m 425 200 q 356 223 382 200 q 317 285 331 246 q 299 377 303 325 q 294 489 294 429 q 300 609 294 556 q 321 700 306 663 q 365 757 336 738 q 440 776 394 776 q 503 760 479 776 q 541 710 528 743 q 558 628 554 676 q 563 515 563 579 q 557 392 563 450 q 536 292 551 335 q 494 225 521 250 q 425 200 468 200 "},"":{"ha":685,"x_min":53,"x_max":642,"o":"m 478 718 q 466 768 478 746 q 435 805 454 790 q 391 827 415 819 q 340 835 367 835 q 290 827 314 835 q 246 805 265 819 q 215 768 226 790 q 203 718 203 746 q 242 635 203 663 q 343 607 282 607 q 388 614 364 607 q 432 635 413 621 q 465 669 451 649 q 478 718 478 690 m 53 485 q 61 442 53 461 q 90 410 69 422 q 140 399 101 403 q 223 394 178 396 q 309 391 268 392 q 367 390 350 390 l 439 390 q 522 393 485 390 q 586 404 560 396 q 627 429 613 413 q 642 475 642 446 q 617 548 642 524 q 547 572 592 572 l 128 576 q 72 547 92 576 q 53 485 53 518 m 203 244 q 215 194 203 215 q 246 158 226 172 q 290 135 265 143 q 340 128 314 128 q 391 135 367 128 q 435 158 415 143 q 466 194 454 172 q 478 244 478 215 q 466 294 478 272 q 435 331 454 317 q 391 353 415 346 q 340 361 367 361 q 289 353 314 361 q 245 331 264 346 q 215 295 226 317 q 203 244 203 274 "},"":{"ha":854,"x_min":32,"x_max":822,"o":"m 822 503 q 801 720 822 619 q 718 889 781 821 q 735 974 735 942 q 711 1042 735 1015 q 644 1069 688 1069 q 585 1057 614 1069 q 540 1018 556 1044 q 531 1003 536 1011 q 522 988 526 994 q 481 992 503 990 q 435 993 458 993 q 279 972 344 993 q 169 913 214 950 q 98 825 125 875 q 56 719 71 775 q 37 603 42 663 q 32 485 32 543 q 35 365 32 422 q 49 258 39 308 q 78 164 60 207 q 128 88 97 121 q 121 29 121 56 q 142 -47 121 -17 q 214 -78 164 -78 q 270 -57 244 -78 q 315 -7 296 -36 q 425 -15 365 -15 q 627 26 550 -15 q 748 139 704 68 q 807 304 792 210 q 822 503 822 399 m 294 506 q 300 612 294 564 q 319 694 306 660 q 355 749 332 728 q 415 775 378 769 q 374 683 394 728 q 339 603 354 639 q 317 553 328 578 q 294 506 306 529 m 425 200 l 421 200 q 465 302 443 251 q 511 404 488 353 q 534 451 521 424 q 563 513 547 478 q 557 392 563 449 q 536 292 551 335 q 494 224 521 249 q 425 200 468 200 "},"":{"ha":819,"x_min":36,"x_max":781,"o":"m 257 1144 q 288 1095 257 1124 q 359 1041 318 1067 q 441 998 400 1015 q 503 981 482 981 q 546 999 529 981 q 563 1043 563 1017 q 540 1099 563 1067 q 485 1161 517 1132 q 417 1210 453 1190 q 358 1231 382 1231 q 324 1224 342 1231 q 291 1207 306 1218 q 267 1180 276 1196 q 257 1144 257 1164 m 668 -19 q 723 1 701 -19 q 757 53 744 22 q 774 119 769 83 q 778 185 778 154 l 781 749 q 777 823 781 782 q 759 901 774 864 q 715 962 744 938 q 633 986 686 986 q 548 951 581 986 q 515 850 515 917 q 519 710 515 779 q 524 569 524 640 q 522 517 524 550 q 517 445 521 483 q 503 368 513 407 q 481 298 494 329 q 445 247 467 267 q 394 228 424 228 q 341 244 361 228 q 310 290 321 260 q 297 363 300 321 q 293 458 293 406 q 296 603 293 531 q 299 747 299 675 q 294 822 299 782 q 276 898 290 863 q 235 957 263 933 q 163 981 208 981 q 96 949 121 981 q 58 870 71 917 q 42 772 46 824 q 39 681 39 721 q 38 652 39 668 q 38 606 38 636 q 37 527 38 576 q 36 399 36 478 q 50 238 36 315 q 99 99 64 160 q 196 2 135 39 q 353 -35 257 -35 q 453 -23 418 -35 q 504 2 488 -11 q 528 27 521 15 q 544 39 535 39 q 562 30 551 39 q 588 10 572 21 q 622 -10 603 -1 q 668 -19 642 -19 "},"":{"ha":819,"x_min":36,"x_max":781,"o":"m 472 1060 q 532 1099 503 1079 q 564 1151 561 1119 q 558 1192 567 1174 q 535 1222 550 1210 q 501 1238 521 1233 q 461 1240 482 1243 q 403 1216 439 1236 q 335 1167 368 1196 q 279 1108 303 1139 q 256 1053 256 1078 q 272 1009 256 1028 q 314 990 288 990 q 352 998 331 990 q 396 1016 374 1006 q 438 1039 418 1026 q 472 1060 458 1051 m 668 -19 q 723 1 701 -19 q 757 53 744 22 q 774 119 769 83 q 778 185 778 154 l 781 749 q 777 823 781 782 q 759 901 774 864 q 715 962 744 938 q 633 986 686 986 q 548 951 581 986 q 515 850 515 917 q 519 710 515 779 q 524 569 524 640 q 522 517 524 550 q 517 445 521 483 q 503 368 513 407 q 481 298 494 329 q 445 247 467 267 q 394 228 424 228 q 341 244 361 228 q 310 290 321 260 q 297 363 300 321 q 293 458 293 406 q 296 603 293 531 q 299 747 299 675 q 294 822 299 782 q 276 898 290 863 q 235 957 263 933 q 163 981 208 981 q 96 949 121 981 q 58 870 71 917 q 42 772 46 824 q 39 681 39 721 q 38 652 39 668 q 38 606 38 636 q 37 527 38 576 q 36 399 36 478 q 50 238 36 315 q 99 99 64 160 q 196 2 135 39 q 353 -35 257 -35 q 453 -23 418 -35 q 504 2 488 -11 q 528 27 521 15 q 544 39 535 39 q 562 30 551 39 q 588 10 572 21 q 622 -10 603 -1 q 668 -19 642 -19 "},"":{"ha":819,"x_min":36,"x_max":781,"o":"m 554 1003 q 609 1024 586 1003 q 632 1078 632 1044 q 606 1124 632 1097 q 543 1177 579 1151 q 471 1221 507 1203 q 415 1239 435 1239 q 358 1218 396 1239 q 282 1170 319 1197 q 217 1115 244 1143 q 189 1074 189 1088 q 214 1020 189 1040 q 268 1000 239 1000 q 315 1015 292 1000 q 359 1049 339 1031 q 394 1082 379 1067 q 417 1097 410 1097 q 439 1083 424 1097 q 473 1050 454 1068 q 513 1017 492 1032 q 554 1003 535 1003 m 668 -19 q 723 1 701 -19 q 757 53 744 22 q 774 119 769 83 q 778 185 778 154 l 781 749 q 777 823 781 782 q 759 901 774 864 q 715 962 744 938 q 633 986 686 986 q 548 951 581 986 q 515 850 515 917 q 519 710 515 779 q 524 569 524 640 q 522 517 524 550 q 517 445 521 483 q 503 368 513 407 q 481 298 494 329 q 445 247 467 267 q 394 228 424 228 q 341 244 361 228 q 310 290 321 260 q 297 363 300 321 q 293 458 293 406 q 296 603 293 531 q 299 747 299 675 q 294 822 299 782 q 276 898 290 863 q 235 957 263 933 q 163 981 208 981 q 96 949 121 981 q 58 870 71 917 q 42 772 46 824 q 39 681 39 721 q 38 652 39 668 q 38 606 38 636 q 37 527 38 576 q 36 399 36 478 q 50 238 36 315 q 99 99 64 160 q 196 2 135 39 q 353 -35 257 -35 q 453 -23 418 -35 q 504 2 488 -11 q 528 27 521 15 q 544 39 535 39 q 562 30 551 39 q 588 10 572 21 q 622 -10 603 -1 q 668 -19 642 -19 "},"":{"ha":819,"x_min":36,"x_max":781,"o":"m 161 1108 q 197 1033 161 1060 q 279 1007 233 1007 q 360 1034 324 1007 q 396 1108 396 1061 q 386 1151 396 1132 q 360 1183 376 1169 q 322 1203 343 1196 q 279 1210 301 1210 q 235 1203 257 1210 q 197 1183 214 1196 q 171 1152 181 1171 q 161 1108 161 1133 m 424 1108 q 460 1033 424 1060 q 542 1007 496 1007 q 622 1034 586 1007 q 658 1108 658 1061 q 649 1151 658 1132 q 622 1183 639 1169 q 585 1203 606 1196 q 542 1210 564 1210 q 498 1203 519 1210 q 460 1183 476 1196 q 433 1152 443 1171 q 424 1108 424 1133 m 668 -19 q 723 1 701 -19 q 757 53 744 22 q 774 119 769 83 q 778 185 778 154 l 781 749 q 777 823 781 782 q 759 901 774 864 q 715 962 744 938 q 633 986 686 986 q 548 951 581 986 q 515 850 515 917 q 519 710 515 779 q 524 569 524 640 q 522 517 524 550 q 517 445 521 483 q 503 368 513 407 q 481 298 494 329 q 445 247 467 267 q 394 228 424 228 q 341 244 361 228 q 310 290 321 260 q 297 363 300 321 q 293 458 293 406 q 296 603 293 531 q 299 747 299 675 q 294 822 299 782 q 276 898 290 863 q 235 957 263 933 q 163 981 208 981 q 96 949 121 981 q 58 870 71 917 q 42 772 46 824 q 39 681 39 721 q 38 652 39 668 q 38 606 38 636 q 37 527 38 576 q 36 399 36 478 q 50 238 36 315 q 99 99 64 160 q 196 2 135 39 q 353 -35 257 -35 q 453 -23 418 -35 q 504 2 488 -11 q 528 27 521 15 q 544 39 535 39 q 562 30 551 39 q 588 10 572 21 q 622 -10 603 -1 q 668 -19 642 -19 "},"":{"ha":786,"x_min":31,"x_max":753,"o":"m 456 1060 q 515 1099 486 1079 q 547 1151 544 1119 q 542 1192 550 1174 q 519 1222 533 1210 q 485 1238 504 1233 q 444 1240 465 1243 q 387 1216 422 1236 q 319 1167 351 1196 q 263 1108 286 1139 q 239 1053 239 1078 q 255 1009 239 1028 q 297 990 271 990 q 335 998 314 990 q 379 1016 357 1006 q 422 1039 401 1026 q 456 1060 442 1051 m 326 217 q 270 233 292 217 q 230 267 249 249 q 188 301 211 286 q 126 317 165 317 q 90 306 107 317 q 60 277 72 294 q 40 239 47 260 q 32 199 32 218 q 59 106 32 144 q 128 42 86 67 q 222 4 171 17 q 321 -8 274 -8 q 469 14 404 -8 q 584 74 535 36 q 667 164 633 113 q 721 274 701 215 q 749 410 744 340 q 753 551 753 481 q 751 647 753 600 q 749 742 749 693 q 744 823 749 779 q 726 903 740 867 q 681 963 711 939 q 601 988 651 988 q 542 972 565 988 q 506 930 519 956 q 488 874 493 904 q 483 814 483 843 q 486 712 483 763 q 489 610 489 661 q 478 570 489 588 q 451 540 468 553 q 414 521 435 528 q 374 514 393 514 q 317 532 339 514 q 285 576 296 550 q 272 635 275 603 q 268 693 268 667 q 270 758 268 725 q 272 822 272 790 q 273 881 272 853 q 265 932 274 910 q 233 967 256 954 q 165 981 211 981 q 90 956 117 981 q 49 894 63 932 q 33 811 36 857 q 31 722 31 765 q 31 695 31 713 q 31 659 31 678 q 32 623 32 640 q 32 594 32 606 q 56 481 32 528 q 122 403 81 433 q 219 360 164 374 q 335 346 274 346 q 389 352 363 346 q 443 358 415 358 q 463 353 453 358 q 474 324 474 347 q 465 291 474 310 q 437 256 456 272 q 391 228 418 239 q 326 217 364 217 "},"":{"ha":753,"x_min":42,"x_max":721,"o":"m 363 236 q 397 232 379 236 q 432 228 414 228 q 566 254 511 228 q 656 328 621 281 q 706 441 690 375 q 721 586 721 507 q 703 699 721 644 q 654 795 686 753 q 575 863 622 838 q 469 889 528 889 q 413 881 439 889 q 365 862 386 872 q 331 842 344 851 q 311 833 317 833 q 292 860 299 833 q 272 919 285 888 q 235 978 260 951 q 160 1006 210 1006 q 96 989 119 1006 q 60 947 72 972 q 45 889 49 921 q 42 825 42 857 q 42 729 42 792 q 44 591 42 667 q 49 434 46 515 q 60 281 53 353 q 77 153 67 208 q 103 76 88 99 q 125 46 114 60 q 149 22 136 32 q 178 6 161 11 q 217 0 194 0 q 287 22 263 0 q 322 77 311 44 q 333 148 332 110 q 335 218 335 186 q 344 234 335 232 q 363 236 353 236 m 318 518 q 345 630 318 593 q 413 667 372 667 q 473 637 451 667 q 494 568 494 607 q 490 524 494 551 q 472 472 485 497 q 438 428 460 447 q 382 410 415 410 q 363 413 374 410 q 342 426 351 415 q 325 458 332 436 q 318 518 318 481 "},"":{"ha":786,"x_min":31,"x_max":753,"o":"m 144 1108 q 181 1033 144 1060 q 263 1007 217 1007 q 343 1034 307 1007 q 379 1108 379 1061 q 369 1151 379 1132 q 343 1183 360 1169 q 306 1203 326 1196 q 263 1210 285 1210 q 219 1203 240 1210 q 181 1183 197 1196 q 154 1152 164 1171 q 144 1108 144 1133 m 407 1108 q 443 1033 407 1060 q 525 1007 479 1007 q 606 1034 569 1007 q 642 1108 642 1061 q 632 1151 642 1132 q 606 1183 622 1169 q 568 1203 589 1196 q 525 1210 547 1210 q 481 1203 503 1210 q 443 1183 460 1196 q 417 1152 426 1171 q 407 1108 407 1133 m 326 217 q 270 233 292 217 q 230 267 249 249 q 188 301 211 286 q 126 317 165 317 q 90 306 107 317 q 60 277 72 294 q 40 239 47 260 q 32 199 32 218 q 59 106 32 144 q 128 42 86 67 q 222 4 171 17 q 321 -8 274 -8 q 469 14 404 -8 q 584 74 535 36 q 667 164 633 113 q 721 274 701 215 q 749 410 744 340 q 753 551 753 481 q 751 647 753 600 q 749 742 749 693 q 744 823 749 779 q 726 903 740 867 q 681 963 711 939 q 601 988 651 988 q 542 972 565 988 q 506 930 519 956 q 488 874 493 904 q 483 814 483 843 q 486 712 483 763 q 489 610 489 661 q 478 570 489 588 q 451 540 468 553 q 414 521 435 528 q 374 514 393 514 q 317 532 339 514 q 285 576 296 550 q 272 635 275 603 q 268 693 268 667 q 270 758 268 725 q 272 822 272 790 q 273 881 272 853 q 265 932 274 910 q 233 967 256 954 q 165 981 211 981 q 90 956 117 981 q 49 894 63 932 q 33 811 36 857 q 31 722 31 765 q 31 695 31 713 q 31 659 31 678 q 32 623 32 640 q 32 594 32 606 q 56 481 32 528 q 122 403 81 433 q 219 360 164 374 q 335 346 274 346 q 389 352 363 346 q 443 358 415 358 q 463 353 453 358 q 474 324 474 347 q 465 291 474 310 q 437 256 456 272 q 391 228 418 239 q 326 217 364 217 "},"":{"ha":785,"x_min":-31,"x_max":751,"o":"m 275 0 q 469 29 382 0 q 619 122 557 58 q 717 284 682 185 q 751 522 751 383 q 722 740 751 650 q 635 888 692 831 q 494 971 578 944 q 304 997 411 997 q 81 932 124 997 q 58 872 67 911 q 46 783 50 832 q 40 682 42 735 q 39 582 39 629 q -12 549 7 574 q -31 500 -31 525 q -11 426 -31 451 q 40 390 8 401 q 42 306 42 347 q 43 240 43 265 q 97 57 43 114 q 275 0 151 0 m 286 592 l 286 643 q 307 722 286 694 q 369 750 328 750 q 435 725 411 750 q 471 667 460 700 q 485 599 482 633 q 488 544 488 564 q 481 444 488 496 q 457 351 474 393 q 414 283 440 310 q 349 256 388 256 q 298 284 310 256 q 286 358 286 313 l 286 381 q 324 383 306 382 q 360 388 342 385 q 447 423 424 396 q 471 486 471 450 q 457 565 471 535 q 399 594 443 596 l 286 592 "},"":{"ha":835,"x_min":28,"x_max":874,"o":"m 667 -29 q 757 6 728 -29 q 789 100 786 42 q 794 307 794 204 q 794 514 794 410 q 797 646 794 585 q 800 760 800 707 l 800 768 q 851 794 829 775 q 874 849 874 813 q 865 886 874 872 q 841 908 856 900 q 809 919 826 917 q 774 922 792 922 q 724 972 757 954 q 636 989 692 989 q 526 922 556 989 l 497 922 q 459 919 478 922 q 426 908 440 917 q 402 883 411 900 q 393 839 393 867 q 403 800 393 815 q 428 776 413 785 q 461 763 443 767 q 497 760 479 760 l 515 760 q 516 735 515 746 q 517 717 517 725 q 514 711 517 714 l 511 711 q 494 719 507 711 q 476 733 488 725 q 449 748 465 740 q 410 760 433 756 q 356 765 388 765 q 225 736 285 765 q 122 653 165 707 q 53 523 78 599 q 28 356 28 447 q 49 221 28 288 q 111 101 71 154 q 209 17 151 49 q 338 -15 267 -15 q 417 0 383 -15 q 473 33 450 15 q 510 65 496 50 q 529 81 524 81 q 542 74 538 81 q 549 60 546 68 q 553 43 551 51 q 556 31 554 35 q 571 -2 560 10 q 598 -20 582 -14 q 632 -28 614 -26 q 667 -29 650 -29 m 504 522 q 526 473 519 507 q 532 399 532 439 q 524 342 532 374 q 499 283 515 311 q 456 236 482 256 q 397 217 431 217 q 349 232 371 217 q 313 271 328 247 q 290 322 299 294 q 282 372 282 349 q 291 436 282 404 q 318 494 300 468 q 363 537 336 521 q 426 553 390 553 q 472 543 450 553 q 504 522 493 533 "},"":{"ha":336,"x_min":35,"x_max":301,"o":"m 38 829 q 38 739 38 796 q 37 613 38 682 q 36 469 36 544 q 35 324 36 393 q 35 199 35 256 q 35 108 35 142 q 39 47 35 75 q 58 0 43 19 q 99 -31 72 -19 q 172 -42 126 -42 q 230 -28 206 -42 q 270 7 254 -15 q 294 58 286 29 q 301 115 301 86 l 301 854 q 290 913 301 890 q 259 949 278 936 q 217 965 240 961 q 168 967 193 968 q 119 958 143 965 q 78 935 96 950 q 49 894 60 919 q 38 829 38 868 "},"":{"ha":604,"x_min":-61,"x_max":589,"o":"m 289 408 l 289 421 q 366 449 329 435 q 428 476 403 464 q 498 538 485 504 q 500 606 511 572 q 462 676 485 651 q 397 685 439 700 l 293 647 q 294 722 293 683 q 294 804 294 760 q 292 866 294 833 q 277 926 289 899 q 243 970 265 953 q 181 988 221 988 q 103 963 132 988 q 58 900 74 938 q 38 819 43 863 q 33 738 33 775 l 33 553 l 4 542 q -29 520 -15 533 q -51 491 -43 507 q -60 459 -58 475 q -57 429 -61 443 q -19 369 -42 386 q 33 349 4 351 l 33 267 q 55 115 33 169 q 116 35 76 61 q 212 3 156 8 q 338 -1 268 -1 q 522 54 456 -1 q 589 199 589 110 q 579 256 589 226 q 551 308 569 286 q 507 339 532 331 q 450 332 482 347 q 380 292 404 308 q 336 275 356 275 q 310 290 319 275 q 296 326 300 306 q 290 370 292 347 q 289 408 289 393 "},"":{"ha":449,"x_min":-71,"x_max":481,"o":"m 290 368 l 290 382 q 357 419 325 401 q 410 451 389 436 q 472 523 463 488 q 464 590 481 558 q 417 654 443 633 q 351 654 392 675 l 301 628 l 301 674 l 301 783 q 297 849 301 813 q 281 915 293 885 q 245 967 268 946 q 185 988 222 988 q 100 953 131 988 q 55 869 69 918 q 38 765 40 819 q 35 672 35 711 l 35 485 l -18 457 q -49 432 -37 447 q -66 400 -61 417 q -71 367 -71 383 q -64 338 -71 350 q -19 284 -44 299 q 35 271 7 269 l 35 218 q 90 39 35 99 q 274 -21 144 -21 q 397 6 361 -21 q 432 104 432 33 q 418 169 432 146 q 386 202 404 192 q 349 213 368 213 q 321 210 331 214 q 293 221 300 201 q 285 269 286 240 q 288 328 285 299 q 290 368 290 357 "},"":{"ha":1256,"x_min":36,"x_max":1240,"o":"m 446 -15 q 714 78 610 -15 q 805 18 750 40 q 939 -4 860 -4 q 1028 4 976 -4 q 1128 32 1081 13 q 1208 85 1175 51 q 1240 169 1240 119 q 1215 269 1240 236 q 1146 303 1189 303 q 1113 297 1126 303 q 1082 278 1100 292 q 1030 248 1058 258 q 964 238 1001 238 q 915 251 933 238 q 888 286 897 265 q 877 333 879 307 q 875 382 875 358 q 880 415 875 399 q 907 431 885 431 l 1086 431 q 1160 458 1131 431 q 1190 526 1190 486 q 1163 603 1190 571 q 1088 635 1136 635 q 1042 634 1061 635 q 1004 633 1022 633 q 967 631 986 632 q 921 629 947 629 q 898 635 906 629 q 887 650 890 640 q 883 672 883 660 q 883 694 883 683 q 885 712 883 701 q 892 732 888 722 q 903 749 896 742 q 919 756 910 756 q 956 753 940 756 q 988 748 972 751 q 1020 742 1004 744 q 1057 740 1036 740 q 1110 745 1083 740 q 1157 763 1136 750 q 1191 797 1178 775 q 1204 854 1204 819 q 1188 922 1204 897 q 1144 960 1171 947 q 1085 976 1117 972 q 1021 979 1053 979 l 840 979 q 763 963 796 979 q 703 919 729 947 q 464 988 610 988 q 290 957 368 988 q 155 864 211 926 q 67 704 99 801 q 36 474 36 607 q 67 255 36 347 q 154 102 99 163 q 284 13 210 42 q 446 -15 358 -15 m 303 474 q 315 591 303 538 q 349 683 328 644 q 395 742 369 721 q 447 764 421 764 q 511 736 483 764 q 558 665 539 708 q 585 573 576 622 q 594 479 594 524 q 590 388 594 436 q 572 299 586 339 q 531 232 557 258 q 458 206 504 206 q 386 233 415 206 q 338 302 357 261 q 311 390 319 343 q 303 474 303 436 "},"":{"ha":1329,"x_min":32,"x_max":1297,"o":"m 868 369 q 915 357 890 363 q 976 351 940 351 q 1095 371 1039 351 q 1193 430 1151 390 q 1260 529 1235 469 q 1285 669 1285 589 q 1256 807 1285 747 q 1178 907 1226 867 q 1065 968 1129 947 q 929 989 1000 989 q 799 967 854 989 q 703 906 743 944 q 593 970 658 947 q 435 993 528 993 q 279 972 344 993 q 169 913 214 950 q 98 825 125 875 q 56 719 71 775 q 37 603 42 663 q 32 485 32 543 q 44 286 32 378 q 98 128 57 194 q 217 23 139 61 q 425 -15 294 -15 q 590 10 522 -15 q 704 82 658 36 q 816 13 751 38 q 967 -12 881 -12 q 1101 2 1040 -12 q 1205 45 1161 17 q 1273 116 1249 74 q 1297 214 1297 158 q 1276 278 1297 250 q 1215 306 1256 306 q 1162 294 1181 306 q 1123 267 1143 282 q 1074 240 1103 253 q 990 228 1044 228 q 922 236 949 228 q 880 258 896 244 q 856 291 864 272 q 846 331 849 310 q 848 369 842 364 q 868 369 854 375 m 425 200 q 356 223 382 200 q 317 285 331 246 q 299 377 303 325 q 294 489 294 429 q 300 609 294 556 q 321 700 306 663 q 365 757 336 738 q 440 776 394 776 q 503 760 479 776 q 541 710 528 743 q 558 628 554 676 q 563 515 563 579 q 557 392 563 450 q 536 292 551 335 q 494 225 521 250 q 425 200 468 200 m 836 651 q 860 738 836 704 q 931 771 883 771 q 1017 740 989 771 q 1044 671 1044 710 q 1037 626 1044 649 q 1015 584 1029 603 q 980 554 1000 565 q 935 543 960 543 q 905 550 922 543 q 872 571 888 557 q 847 605 857 585 q 836 651 836 625 "},"":{"ha":743,"x_min":15,"x_max":719,"o":"m 228 1222 q 173 1201 196 1222 q 150 1147 150 1181 q 176 1103 150 1129 q 239 1053 203 1076 q 311 1013 275 1029 q 367 996 347 996 q 424 1015 386 996 q 500 1059 463 1033 q 565 1111 538 1085 q 593 1151 593 1138 q 568 1205 593 1185 q 514 1225 543 1225 q 467 1214 490 1225 q 423 1190 443 1203 q 388 1167 403 1178 q 365 1156 372 1156 q 343 1166 358 1156 q 309 1189 328 1176 q 269 1212 290 1201 q 228 1222 247 1222 m 128 418 q 78 407 100 418 q 43 377 57 396 q 22 335 29 358 q 15 286 15 311 q 40 163 15 218 q 112 69 64 108 q 229 8 160 29 q 390 -14 299 -14 q 510 6 451 -14 q 616 64 569 26 q 691 156 663 101 q 719 278 719 210 q 690 399 719 347 q 615 490 660 451 q 519 559 571 529 q 422 613 467 589 q 348 661 378 638 q 318 711 318 685 q 340 755 318 740 q 394 769 361 769 q 460 749 435 769 q 494 693 485 728 q 522 638 503 661 q 594 614 542 614 q 674 648 643 614 q 704 740 704 682 q 685 840 704 794 q 628 919 667 886 q 533 972 590 953 q 401 992 476 992 q 261 969 326 992 q 148 906 196 946 q 72 808 100 865 q 44 685 44 751 q 75 573 44 622 q 151 483 106 524 q 251 411 197 443 q 351 352 306 379 q 428 301 397 325 q 458 256 458 278 q 435 224 458 236 q 371 213 411 213 q 269 247 304 213 q 224 351 235 282 q 190 401 218 383 q 128 418 163 418 "},"":{"ha":733,"x_min":31,"x_max":703,"o":"m 224 1222 q 169 1201 192 1222 q 146 1147 146 1181 q 172 1103 146 1129 q 235 1053 199 1076 q 307 1013 271 1029 q 363 996 343 996 q 420 1015 382 996 q 496 1059 458 1033 q 561 1111 533 1085 q 589 1151 589 1138 q 564 1205 589 1185 q 510 1225 539 1225 q 463 1214 486 1225 q 419 1190 439 1203 q 383 1167 399 1178 q 361 1156 368 1156 q 339 1166 354 1156 q 305 1189 324 1176 q 265 1212 286 1201 q 224 1222 243 1222 m 561 565 q 653 603 624 565 q 682 708 682 642 q 661 818 682 767 q 601 908 640 869 q 504 969 561 947 q 374 992 447 992 q 230 963 290 992 q 129 888 169 935 q 69 783 89 842 q 50 663 50 724 q 78 548 50 596 q 150 465 107 500 q 242 406 193 431 q 335 359 292 381 q 406 315 378 338 q 435 264 435 293 q 427 235 435 246 q 408 219 419 225 q 384 210 397 213 q 360 208 371 208 q 306 222 326 208 q 274 254 286 235 q 253 296 261 274 q 235 338 244 318 q 196 381 219 369 q 140 392 172 392 q 95 379 115 392 q 60 347 75 367 q 38 299 46 326 q 31 243 31 272 q 60 124 31 174 q 135 44 89 75 q 242 0 182 14 q 364 -14 301 -14 q 492 7 431 -14 q 600 67 553 28 q 675 165 647 107 q 703 296 703 222 q 673 406 703 360 q 599 485 643 451 q 502 543 554 519 q 406 588 450 567 q 331 631 361 610 q 301 678 301 651 q 322 749 301 724 q 382 775 342 775 q 410 768 394 775 q 438 746 425 761 q 458 708 450 731 q 467 651 467 685 q 489 590 467 615 q 561 565 511 565 "},"":{"ha":729,"x_min":7,"x_max":722,"o":"m 117 1108 q 153 1033 117 1060 q 235 1007 189 1007 q 315 1034 279 1007 q 351 1108 351 1061 q 342 1151 351 1132 q 315 1183 332 1169 q 278 1203 299 1196 q 235 1210 257 1210 q 191 1203 213 1210 q 153 1183 169 1196 q 126 1152 136 1171 q 117 1108 117 1133 m 379 1108 q 415 1033 379 1060 q 497 1007 451 1007 q 578 1034 542 1007 q 614 1108 614 1061 q 604 1151 614 1132 q 578 1183 594 1169 q 540 1203 561 1196 q 497 1210 519 1210 q 453 1203 475 1210 q 415 1183 432 1196 q 389 1152 399 1171 q 379 1108 379 1133 m 243 238 q 245 163 243 204 q 258 85 247 122 q 294 24 269 49 q 365 0 319 0 q 442 27 415 0 q 480 94 468 54 q 493 178 492 133 q 494 260 494 224 q 492 338 494 299 q 489 415 489 376 q 506 451 489 424 q 549 517 524 478 q 606 605 575 557 q 662 701 636 653 q 705 797 688 750 q 722 881 722 843 q 688 958 722 928 q 599 988 653 988 q 540 963 567 988 q 491 902 513 939 q 452 822 469 865 q 420 742 435 779 q 394 681 406 706 q 372 657 383 657 q 348 681 361 657 q 318 742 335 706 q 282 819 301 778 q 240 897 263 861 q 192 958 217 933 q 139 982 167 982 q 47 948 86 982 q 7 839 7 914 q 24 776 7 814 q 69 694 42 738 q 126 604 96 650 q 184 517 157 558 q 228 446 211 476 q 246 400 246 415 q 244 319 246 360 q 243 238 243 278 "},"":{"ha":751,"x_min":24,"x_max":731,"o":"m 232 1222 q 177 1201 200 1222 q 154 1147 154 1181 q 181 1103 154 1129 q 243 1053 207 1076 q 315 1013 279 1029 q 371 996 351 996 q 428 1015 390 996 q 504 1059 467 1033 q 569 1111 542 1085 q 597 1151 597 1138 q 572 1205 597 1185 q 518 1225 547 1225 q 471 1214 494 1225 q 427 1190 447 1203 q 392 1167 407 1178 q 369 1156 376 1156 q 347 1166 363 1156 q 313 1189 332 1176 q 273 1212 294 1201 q 232 1222 251 1222 m 717 807 q 685 913 717 875 q 599 967 654 950 q 471 988 544 985 q 314 992 397 992 q 237 989 285 992 q 143 973 189 986 q 65 931 97 960 q 32 853 32 903 q 51 794 32 815 q 101 764 71 774 q 169 753 132 754 q 244 756 207 753 q 314 763 282 758 q 365 767 346 767 q 385 764 374 767 q 397 749 397 761 q 369 705 397 740 q 300 617 342 669 q 210 503 258 565 q 121 377 163 440 q 51 256 79 314 q 24 157 24 199 q 44 78 24 110 q 98 28 65 47 q 169 3 131 10 q 244 -4 208 -4 q 328 -6 286 -4 q 411 -7 369 -7 q 497 -6 443 -7 q 602 8 550 -4 q 692 49 654 21 q 731 131 731 76 q 717 206 731 181 q 678 240 704 231 q 615 249 653 250 q 529 249 578 249 q 477 247 503 249 q 425 244 451 244 q 391 249 410 244 q 372 274 372 253 q 398 322 372 286 q 462 406 424 357 q 544 511 500 454 q 627 624 589 568 q 691 727 665 679 q 717 807 717 775 "}}}
